<?xml version="1.0" encoding="UTF-8" standalone="no"?>
<svg
   xmlns:dc="http://purl.org/dc/elements/1.1/"
   xmlns:cc="http://creativecommons.org/ns#"
   xmlns:rdf="http://www.w3.org/1999/02/22-rdf-syntax-ns#"
   xmlns:svg="http://www.w3.org/2000/svg"
   xmlns="http://www.w3.org/2000/svg"
   xmlns:sodipodi="http://sodipodi.sourceforge.net/DTD/sodipodi-0.dtd"
   xmlns:inkscape="http://www.inkscape.org/namespaces/inkscape"
   stroke-dasharray="none"
   shape-rendering="auto"
   font-family="'Dialog'"
   width="571"
   text-rendering="auto"
   fill-opacity="1"
   contentScriptType="text/ecmascript"
   color-interpolation="auto"
   color-rendering="auto"
   preserveAspectRatio="xMidYMid meet"
   font-size="12"
   viewBox="0 0 571 476"
   fill="black"
   stroke="black"
   image-rendering="auto"
   stroke-miterlimit="10"
   zoomAndPan="magnify"
   version="1.0"
   stroke-linecap="square"
   stroke-linejoin="miter"
   contentStyleType="text/css"
   font-style="normal"
   height="476"
   stroke-width="1"
   stroke-dashoffset="0"
   font-weight="normal"
   stroke-opacity="1"
   id="svg2"
   sodipodi:version="0.32"
   inkscape:version="0.46"
   sodipodi:docname="computationProcess.svg"
   inkscape:output_extension="org.inkscape.output.svg.inkscape">
  <metadata
     id="metadata217">
    <rdf:RDF>
      <cc:Work
         rdf:about="">
        <dc:format>image/svg+xml</dc:format>
        <dc:type
           rdf:resource="http://purl.org/dc/dcmitype/StillImage" />
      </cc:Work>
    </rdf:RDF>
  </metadata>
  <sodipodi:namedview
     inkscape:window-height="740"
     inkscape:window-width="1280"
     inkscape:pageshadow="2"
     inkscape:pageopacity="0.0"
     guidetolerance="10.0"
     gridtolerance="10.0"
     objecttolerance="10.0"
     borderopacity="1.0"
     bordercolor="#666666"
     pagecolor="#ffffff"
     id="base"
     showgrid="false"
     inkscape:zoom="0.9474606"
     inkscape:cx="285.5"
     inkscape:cy="238"
     inkscape:window-x="150"
     inkscape:window-y="95"
     inkscape:current-layer="svg2" />
<!--Generated by the Batik Graphics2D SVG Generator-->  <defs
     id="genericDefs">
    <inkscape:perspective
       sodipodi:type="inkscape:persp3d"
       inkscape:vp_x="0 : 238 : 1"
       inkscape:vp_y="0 : 1000 : 0"
       inkscape:vp_z="571 : 238 : 1"
       inkscape:persp3d-origin="285.5 : 158.66667 : 1"
       id="perspective219" />
    <defs
       id="defs1">
      <clipPath
         id="clipPath1"
         clipPathUnits="userSpaceOnUse">
        <path
           id="path9"
           d="M9 9 L562 9 L562 467 L9 467 L9 9 Z" />
      </clipPath>
      <clipPath
         id="clipPath2"
         clipPathUnits="userSpaceOnUse">
        <path
           id="path12"
           d="M9 9 L565 9 L565 28 L9 28 L9 9 Z" />
      </clipPath>
      <clipPath
         id="clipPath3"
         clipPathUnits="userSpaceOnUse">
        <path
           id="path15"
           d="M9 74 L91 74 L91 126 L9 126 L9 74 Z" />
      </clipPath>
      <clipPath
         id="clipPath4"
         clipPathUnits="userSpaceOnUse">
        <path
           id="path18"
           d="M11 91 L93 91 L93 110 L11 110 L11 91 Z" />
      </clipPath>
      <clipPath
         id="clipPath5"
         clipPathUnits="userSpaceOnUse">
        <path
           id="path21"
           d="M178 74 L275 74 L275 126 L178 126 L178 74 Z" />
      </clipPath>
      <clipPath
         id="clipPath6"
         clipPathUnits="userSpaceOnUse">
        <path
           id="path24"
           d="M178 91 L278 91 L278 110 L178 110 L178 91 Z" />
      </clipPath>
      <clipPath
         id="clipPath7"
         clipPathUnits="userSpaceOnUse">
        <path
           id="path27"
           d="M178 152 L288 152 L288 204 L178 204 L178 152 Z" />
      </clipPath>
      <clipPath
         id="clipPath8"
         clipPathUnits="userSpaceOnUse">
        <path
           id="path30"
           d="M178 169 L291 169 L291 188 L178 188 L178 169 Z" />
      </clipPath>
      <clipPath
         id="clipPath9"
         clipPathUnits="userSpaceOnUse">
        <path
           id="path33"
           d="M178 230 L325 230 L325 282 L178 282 L178 230 Z" />
      </clipPath>
      <clipPath
         id="clipPath10"
         clipPathUnits="userSpaceOnUse">
        <path
           id="path36"
           d="M187 263 L192 263 L192 280 L187 280 L187 263 Z" />
      </clipPath>
      <clipPath
         id="clipPath11"
         clipPathUnits="userSpaceOnUse">
        <path
           id="path39"
           d="M182 269 L192 269 L192 280 L182 280 L182 269 Z" />
      </clipPath>
      <clipPath
         id="clipPath12"
         clipPathUnits="userSpaceOnUse">
        <path
           id="path42"
           d="M187 269 L197 269 L197 280 L187 280 L187 269 Z" />
      </clipPath>
      <clipPath
         id="clipPath13"
         clipPathUnits="userSpaceOnUse">
        <path
           id="path45"
           d="M178 237 L328 237 L328 256 L178 256 L178 237 Z" />
      </clipPath>
      <clipPath
         id="clipPath14"
         clipPathUnits="userSpaceOnUse">
        <path
           id="path48"
           d="M9 308 L91 308 L91 360 L9 360 L9 308 Z" />
      </clipPath>
      <clipPath
         id="clipPath15"
         clipPathUnits="userSpaceOnUse">
        <path
           id="path51"
           d="M10 325 L94 325 L94 344 L10 344 L10 325 Z" />
      </clipPath>
      <clipPath
         id="clipPath16"
         clipPathUnits="userSpaceOnUse">
        <path
           id="path54"
           d="M178 308 L297 308 L297 360 L178 360 L178 308 Z" />
      </clipPath>
      <clipPath
         id="clipPath17"
         clipPathUnits="userSpaceOnUse">
        <path
           id="path57"
           d="M178 325 L300 325 L300 344 L178 344 L178 325 Z" />
      </clipPath>
      <clipPath
         id="clipPath18"
         clipPathUnits="userSpaceOnUse">
        <path
           id="path60"
           d="M-1 -1 L572 -1 L572 477 L-1 477 L-1 -1 Z" />
      </clipPath>
      <clipPath
         id="clipPath19"
         clipPathUnits="userSpaceOnUse">
        <path
           id="path63"
           d="M164 95 L181 95 L181 104 L164 104 L164 95 Z" />
      </clipPath>
      <clipPath
         id="clipPath20"
         clipPathUnits="userSpaceOnUse">
        <path
           id="path66"
           d="M134 170 L136 170 L136 189 L134 189 L134 170 Z" />
      </clipPath>
      <clipPath
         id="clipPath21"
         clipPathUnits="userSpaceOnUse">
        <path
           id="path69"
           d="M222 138 L231 138 L231 155 L222 155 L222 138 Z" />
      </clipPath>
      <clipPath
         id="clipPath22"
         clipPathUnits="userSpaceOnUse">
        <path
           id="path72"
           d="M145 130 L147 130 L147 149 L145 149 L145 130 Z" />
      </clipPath>
      <clipPath
         id="clipPath23"
         clipPathUnits="userSpaceOnUse">
        <path
           id="path75"
           d="M225 216 L234 216 L234 233 L225 233 L225 216 Z" />
      </clipPath>
      <clipPath
         id="clipPath24"
         clipPathUnits="userSpaceOnUse">
        <path
           id="path78"
           d="M148 208 L150 208 L150 227 L148 227 L148 208 Z" />
      </clipPath>
      <clipPath
         id="clipPath25"
         clipPathUnits="userSpaceOnUse">
        <path
           id="path81"
           d="M225 294 L234 294 L234 311 L225 311 L225 294 Z" />
      </clipPath>
      <clipPath
         id="clipPath26"
         clipPathUnits="userSpaceOnUse">
        <path
           id="path84"
           d="M148 286 L150 286 L150 305 L148 305 L148 286 Z" />
      </clipPath>
      <clipPath
         id="clipPath27"
         clipPathUnits="userSpaceOnUse">
        <path
           id="path87"
           d="M89 330 L106 330 L106 339 L89 339 L89 330 Z" />
      </clipPath>
      <clipPath
         id="clipPath28"
         clipPathUnits="userSpaceOnUse">
        <path
           id="path90"
           d="M104 308 L167 308 L167 327 L104 327 L104 308 Z" />
      </clipPath>
      <clipPath
         id="clipPath29"
         clipPathUnits="userSpaceOnUse">
        <path
           id="path93"
           d="M133 245 L135 245 L135 264 L133 264 L133 245 Z" />
      </clipPath>
      <clipPath
         id="clipPath30"
         clipPathUnits="userSpaceOnUse">
        <path
           id="path96"
           d="M273 96 L290 96 L290 105 L273 105 L273 96 Z" />
      </clipPath>
      <clipPath
         id="clipPath31"
         clipPathUnits="userSpaceOnUse">
        <path
           id="path99"
           d="M308 308 L380 308 L380 327 L308 327 L308 308 Z" />
      </clipPath>
      <clipPath
         id="clipPath32"
         clipPathUnits="userSpaceOnUse">
        <path
           id="path102"
           d="M463 196 L465 196 L465 215 L463 215 L463 196 Z" />
      </clipPath>
    </defs>
  </defs>
  <rect
     x="10"
     y="75"
     clip-path="url(#clipPath3)"
     width="80"
     rx="8"
     ry="8"
     height="50"
     id="rect112"
     style="font-size:13px;fill:#ffffff;stroke:none;stroke-linejoin:round;stroke-miterlimit:0"
     transform="translate(84.436229,-2.1109057)" />
  <rect
     x="10"
     y="75"
     clip-path="url(#clipPath3)"
     width="79"
     rx="8"
     ry="8"
     height="49"
     id="rect114"
     style="font-size:13px;fill:none;stroke:#b0b0b0;stroke-linejoin:round;stroke-miterlimit:0"
     transform="translate(84.436229,-2.1109057)" />
  <text
     x="17"
     y="107"
     clip-path="url(#clipPath4)"
     xml:space="preserve"
     id="text116"
     style="font-size:13px;fill:#000000;stroke:none;stroke-linejoin:round;stroke-miterlimit:0"
     transform="translate(84.436229,-2.1109057)">Load data</text>
  <rect
     x="179"
     y="75"
     clip-path="url(#clipPath5)"
     width="95"
     rx="8"
     ry="8"
     height="50"
     id="rect118"
     style="font-size:13px;fill:#ffffff;stroke:none;stroke-linejoin:round;stroke-miterlimit:0"
     transform="translate(84.436229,-2.1109057)" />
  <rect
     x="179"
     y="75"
     clip-path="url(#clipPath5)"
     width="94"
     rx="8"
     ry="8"
     height="49"
     id="rect120"
     style="font-size:13px;fill:none;stroke:#b0b0b0;stroke-linejoin:round;stroke-miterlimit:0"
     transform="translate(84.436229,-2.1109057)" />
  <text
     x="184"
     y="107"
     clip-path="url(#clipPath6)"
     xml:space="preserve"
     id="text122"
     style="font-size:13px;fill:#000000;stroke:none;stroke-linejoin:round;stroke-miterlimit:0"
     transform="translate(84.436229,-2.1109057)">tune params</text>
  <rect
     x="179"
     y="153"
     clip-path="url(#clipPath7)"
     width="108"
     rx="8"
     ry="8"
     height="50"
     id="rect124"
     style="font-size:13px;fill:#ffffff;stroke:none;stroke-linejoin:round;stroke-miterlimit:0"
     transform="translate(84.436229,-2.1109057)" />
  <rect
     x="179"
     y="153"
     clip-path="url(#clipPath7)"
     width="107"
     rx="8"
     ry="8"
     height="49"
     id="rect126"
     style="font-size:13px;fill:none;stroke:#b0b0b0;stroke-linejoin:round;stroke-miterlimit:0"
     transform="translate(84.436229,-2.1109057)" />
  <text
     x="184"
     y="185"
     clip-path="url(#clipPath8)"
     xml:space="preserve"
     id="text128"
     style="font-size:13px;fill:#000000;stroke:none;stroke-linejoin:round;stroke-miterlimit:0"
     transform="translate(84.436229,-2.1109057)">send to server</text>
  <rect
     x="179"
     y="231"
     clip-path="url(#clipPath9)"
     width="145"
     rx="8"
     ry="8"
     height="50"
     id="rect130"
     style="font-size:13px;fill:#ffffff;stroke:none;stroke-linejoin:round;stroke-miterlimit:0"
     transform="translate(84.436229,-2.1109057)" />
  <rect
     x="179"
     y="231"
     clip-path="url(#clipPath9)"
     width="144"
     rx="8"
     ry="8"
     height="49"
     id="rect132"
     style="font-size:13px;fill:none;stroke:#b0b0b0;stroke-linejoin:round;stroke-miterlimit:0"
     transform="translate(84.436229,-2.1109057)" />
  <line
     clip-path="url(#clipPath10)"
     x1="189"
     x2="189"
     y1="265"
     y2="277"
     id="line134"
     style="font-size:13px;fill:none;stroke:#00007f;stroke-width:2;stroke-linejoin:round;stroke-miterlimit:0"
     transform="translate(84.436229,-2.1109057)" />
  <line
     clip-path="url(#clipPath11)"
     x1="189"
     x2="184"
     y1="271"
     y2="271"
     id="line136"
     style="font-size:13px;fill:none;stroke:#00007f;stroke-width:2;stroke-linejoin:round;stroke-miterlimit:0"
     transform="translate(84.436229,-2.1109057)" />
  <line
     clip-path="url(#clipPath11)"
     x1="184"
     x2="184"
     y1="271"
     y2="277"
     id="line138"
     style="font-size:13px;fill:none;stroke:#00007f;stroke-width:2;stroke-linejoin:round;stroke-miterlimit:0"
     transform="translate(84.436229,-2.1109057)" />
  <line
     clip-path="url(#clipPath12)"
     x1="189"
     x2="194"
     y1="271"
     y2="271"
     id="line140"
     style="font-size:13px;fill:none;stroke:#00007f;stroke-width:2;stroke-linejoin:round;stroke-miterlimit:0"
     transform="translate(84.436229,-2.1109057)" />
  <line
     clip-path="url(#clipPath12)"
     x1="194"
     x2="194"
     y1="271"
     y2="277"
     id="line142"
     style="font-size:13px;fill:none;stroke:#00007f;stroke-width:2;stroke-linejoin:round;stroke-miterlimit:0"
     transform="translate(84.436229,-2.1109057)" />
  <text
     x="184"
     y="253"
     clip-path="url(#clipPath13)"
     xml:space="preserve"
     id="text144"
     style="font-size:13px;fill:#000000;stroke:none;stroke-linejoin:round;stroke-miterlimit:0"
     transform="translate(84.436229,-2.1109057)">Server computation</text>
  <rect
     x="10"
     y="309"
     clip-path="url(#clipPath14)"
     width="80"
     rx="8"
     ry="8"
     height="50"
     id="rect146"
     style="font-size:13px;fill:#ffffff;stroke:none;stroke-linejoin:round;stroke-miterlimit:0"
     transform="translate(84.436229,-2.1109057)" />
  <rect
     x="10"
     y="309"
     clip-path="url(#clipPath14)"
     width="79"
     rx="8"
     ry="8"
     height="49"
     id="rect148"
     style="font-size:13px;fill:none;stroke:#b0b0b0;stroke-linejoin:round;stroke-miterlimit:0"
     transform="translate(84.436229,-2.1109057)" />
  <text
     x="16"
     y="341"
     clip-path="url(#clipPath15)"
     xml:space="preserve"
     id="text150"
     style="font-size:13px;fill:#000000;stroke:none;stroke-linejoin:round;stroke-miterlimit:0"
     transform="translate(84.436229,-2.1109057)">Save data</text>
  <rect
     x="179"
     y="309"
     clip-path="url(#clipPath16)"
     width="117"
     rx="8"
     ry="8"
     height="50"
     id="rect152"
     style="font-size:13px;fill:#ffffff;stroke:none;stroke-linejoin:round;stroke-miterlimit:0"
     transform="translate(84.436229,-2.1109057)" />
  <rect
     x="179"
     y="309"
     clip-path="url(#clipPath16)"
     width="116"
     rx="8"
     ry="8"
     height="49"
     id="rect154"
     style="font-size:13px;fill:none;stroke:#b0b0b0;stroke-linejoin:round;stroke-miterlimit:0"
     transform="translate(84.436229,-2.1109057)" />
  <text
     x="184"
     y="341"
     clip-path="url(#clipPath17)"
     xml:space="preserve"
     id="text156"
     style="font-size:13px;fill:#000000;stroke:none;stroke-linejoin:round;stroke-miterlimit:0"
     transform="translate(84.436229,-2.1109057)">visualize results</text>
  <line
     clip-path="url(#clipPath18)"
     x1="90"
     x2="179"
     y1="99"
     y2="99"
     id="line158"
     style="font-size:13px;fill:none;stroke:#000000;stroke-linejoin:round;stroke-miterlimit:0"
     transform="translate(84.436229,-2.1109057)" />
  <line
     clip-path="url(#clipPath19)"
     x1="165"
     x2="179"
     y1="96"
     y2="99"
     id="line160"
     style="font-size:13px;fill:none;stroke:#000000;stroke-linejoin:round;stroke-miterlimit:0"
     transform="translate(84.436229,-2.1109057)" />
  <line
     clip-path="url(#clipPath19)"
     x1="179"
     x2="165"
     y1="99"
     y2="102"
     id="line162"
     style="font-size:13px;fill:none;stroke:#000000;stroke-linejoin:round;stroke-miterlimit:0"
     transform="translate(84.436229,-2.1109057)" />
  <text
     x="135"
     y="184"
     clip-path="url(#clipPath20)"
     xml:space="preserve"
     id="text164"
     style="font-size:13px;fill:#000000;stroke:none;stroke-linejoin:round;stroke-miterlimit:0" />
  <line
     clip-path="url(#clipPath18)"
     x1="226"
     x2="226"
     y1="125"
     y2="153"
     id="line166"
     style="font-size:13px;fill:none;stroke:#000000;stroke-linejoin:round;stroke-miterlimit:0"
     transform="translate(84.436229,-2.1109057)" />
  <line
     clip-path="url(#clipPath21)"
     x1="229"
     x2="226"
     y1="139"
     y2="153"
     id="line168"
     style="font-size:13px;fill:none;stroke:#000000;stroke-linejoin:round;stroke-miterlimit:0"
     transform="translate(84.436229,-2.1109057)" />
  <line
     clip-path="url(#clipPath21)"
     x1="226"
     x2="223"
     y1="153"
     y2="139"
     id="line170"
     style="font-size:13px;fill:none;stroke:#000000;stroke-linejoin:round;stroke-miterlimit:0"
     transform="translate(84.436229,-2.1109057)" />
  <text
     x="146"
     y="144"
     clip-path="url(#clipPath22)"
     xml:space="preserve"
     id="text172"
     style="font-size:13px;fill:#000000;stroke:none;stroke-linejoin:round;stroke-miterlimit:0" />
  <line
     clip-path="url(#clipPath18)"
     x1="229"
     x2="229"
     y1="203"
     y2="231"
     id="line174"
     style="font-size:13px;fill:none;stroke:#000000;stroke-linejoin:round;stroke-miterlimit:0"
     transform="translate(84.436229,-2.1109057)" />
  <line
     clip-path="url(#clipPath23)"
     x1="232"
     x2="229"
     y1="217"
     y2="231"
     id="line176"
     style="font-size:13px;fill:none;stroke:#000000;stroke-linejoin:round;stroke-miterlimit:0"
     transform="translate(84.436229,-2.1109057)" />
  <line
     clip-path="url(#clipPath23)"
     x1="229"
     x2="226"
     y1="231"
     y2="217"
     id="line178"
     style="font-size:13px;fill:none;stroke:#000000;stroke-linejoin:round;stroke-miterlimit:0"
     transform="translate(84.436229,-2.1109057)" />
  <text
     x="149"
     y="222"
     clip-path="url(#clipPath24)"
     xml:space="preserve"
     id="text180"
     style="font-size:13px;fill:#000000;stroke:none;stroke-linejoin:round;stroke-miterlimit:0" />
  <line
     clip-path="url(#clipPath18)"
     x1="229"
     x2="229"
     y1="281"
     y2="294"
     id="line182"
     style="font-size:13px;fill:none;stroke:#000000;stroke-linejoin:round;stroke-miterlimit:0"
     transform="translate(84.436229,-2.1109057)" />
  <line
     clip-path="url(#clipPath18)"
     x1="229"
     x2="229"
     y1="294"
     y2="309"
     id="line184"
     style="font-size:13px;fill:none;stroke:#000000;stroke-linejoin:round;stroke-miterlimit:0"
     transform="translate(84.436229,-2.1109057)" />
  <line
     clip-path="url(#clipPath25)"
     x1="232"
     x2="229"
     y1="295"
     y2="309"
     id="line186"
     style="font-size:13px;fill:none;stroke:#000000;stroke-linejoin:round;stroke-miterlimit:0"
     transform="translate(84.436229,-2.1109057)" />
  <line
     clip-path="url(#clipPath25)"
     x1="229"
     x2="226"
     y1="309"
     y2="295"
     id="line188"
     style="font-size:13px;fill:none;stroke:#000000;stroke-linejoin:round;stroke-miterlimit:0"
     transform="translate(84.436229,-2.1109057)" />
  <text
     x="149"
     y="300"
     clip-path="url(#clipPath26)"
     xml:space="preserve"
     id="text190"
     style="font-size:13px;fill:#000000;stroke:none;stroke-linejoin:round;stroke-miterlimit:0" />
  <line
     clip-path="url(#clipPath18)"
     x1="179"
     x2="90"
     y1="334"
     y2="334"
     id="line192"
     style="font-size:13px;fill:none;stroke:#000000;stroke-linejoin:round;stroke-miterlimit:0"
     transform="translate(84.436229,-2.1109057)" />
  <line
     clip-path="url(#clipPath27)"
     x1="104"
     x2="90"
     y1="337"
     y2="334"
     id="line194"
     style="font-size:13px;fill:none;stroke:#000000;stroke-linejoin:round;stroke-miterlimit:0"
     transform="translate(84.436229,-2.1109057)" />
  <line
     clip-path="url(#clipPath27)"
     x1="90"
     x2="104"
     y1="334"
     y2="331"
     id="line196"
     style="font-size:13px;fill:none;stroke:#000000;stroke-linejoin:round;stroke-miterlimit:0"
     transform="translate(84.436229,-2.1109057)" />
  <text
     x="105"
     y="324"
     clip-path="url(#clipPath28)"
     xml:space="preserve"
     id="text198"
     style="font-size:13px;fill:#000000;stroke:none;stroke-linejoin:round;stroke-miterlimit:0"
     transform="translate(84.436229,-2.1109057)">result ok</text>
  <text
     x="134"
     y="259"
     clip-path="url(#clipPath29)"
     xml:space="preserve"
     id="text200"
     style="font-size:13px;fill:#000000;stroke:none;stroke-linejoin:round;stroke-miterlimit:0" />
  <line
     clip-path="url(#clipPath18)"
     x1="296"
     x2="384"
     y1="333"
     y2="333"
     id="line202"
     style="font-size:13px;fill:none;stroke:#000000;stroke-linejoin:round;stroke-miterlimit:0"
     transform="translate(84.436229,-2.1109057)" />
  <line
     clip-path="url(#clipPath18)"
     x1="384"
     x2="384"
     y1="333"
     y2="100"
     id="line204"
     style="font-size:13px;fill:none;stroke:#000000;stroke-linejoin:round;stroke-miterlimit:0"
     transform="translate(84.436229,-2.1109057)" />
  <line
     clip-path="url(#clipPath18)"
     x1="384"
     x2="274"
     y1="100"
     y2="100"
     id="line206"
     style="font-size:13px;fill:none;stroke:#000000;stroke-linejoin:round;stroke-miterlimit:0"
     transform="translate(84.436229,-2.1109057)" />
  <line
     clip-path="url(#clipPath30)"
     x1="288"
     x2="274"
     y1="103"
     y2="100"
     id="line208"
     style="font-size:13px;fill:none;stroke:#000000;stroke-linejoin:round;stroke-miterlimit:0"
     transform="translate(84.436229,-2.1109057)" />
  <line
     clip-path="url(#clipPath30)"
     x1="274"
     x2="288"
     y1="100"
     y2="97"
     id="line210"
     style="font-size:13px;fill:none;stroke:#000000;stroke-linejoin:round;stroke-miterlimit:0"
     transform="translate(84.436229,-2.1109057)" />
  <text
     x="309"
     y="324"
     clip-path="url(#clipPath31)"
     xml:space="preserve"
     id="text212"
     style="font-size:13px;fill:#000000;stroke:none;stroke-linejoin:round;stroke-miterlimit:0"
     transform="translate(84.436229,-2.1109057)">result bad</text>
  <text
     x="464"
     y="210"
     clip-path="url(#clipPath32)"
     xml:space="preserve"
     id="text214"
     style="font-size:13px;fill:#000000;stroke:none;stroke-linejoin:round;stroke-miterlimit:0" />
</svg>
