<?xml version="1.0" encoding="UTF-8" standalone="no"?>
<!-- Created with Inkscape (http://www.inkscape.org/) -->
<svg
   xmlns:svg="http://www.w3.org/2000/svg"
   xmlns="http://www.w3.org/2000/svg"
   version="1.0"
   width="744.09448"
   height="1052.3622"
   id="svg4080">
  <defs
     id="defs4082" />
  <g
     id="layer1">
    <g
       transform="matrix(0.1476935,0,0,0.1852574,245.69168,166.88351)"
       id="g4617">
      <path
         d="M -942.85717,412.36218 L -631.42857,409.50504 L -480,123.79076 L -317.14286,398.07647 L 205.71428,395.21933 L -240,689.50504 L -68.571431,900.93361 L -434.28572,840.93361 L -937.14287,1029.5051 L -637.14286,649.50504 L -942.85717,412.36218 z"
         id="path4092"
         style="fill:none;fill-rule:evenodd;stroke:#000000;stroke-width:1px;stroke-linecap:butt;stroke-linejoin:miter;stroke-opacity:1" />
      <path
         d="M 259.99999,395.21932 L 571.42858,392.36218 L 722.85715,106.6479 L 885.71429,380.93361 L 1408.5714,378.07647 L 962.85715,672.36218 L 1134.2857,883.79075 L 768.57143,823.79075 L 265.71429,1012.3622 L 565.71429,632.36218 L 259.99999,395.21932 z"
         id="path4094"
         style="fill:none;fill-rule:evenodd;stroke:#000000;stroke-width:1px;stroke-linecap:butt;stroke-linejoin:miter;stroke-opacity:1" />
      <path
         d="M 1457.1428,378.07646 L 1768.5714,375.21932 L 1920,89.505043 L 2082.8571,363.79075 L 2605.7143,360.93361 L 2160,655.21932 L 2331.4286,866.64789 L 1965.7143,806.64789 L 1462.8571,995.21934 L 1762.8571,615.21932 L 1457.1428,378.07646 z"
         id="path4096"
         style="fill:none;fill-rule:evenodd;stroke:#000000;stroke-width:1px;stroke-linecap:butt;stroke-linejoin:miter;stroke-opacity:1" />
      <path
         d="M -380.00001,586.64789 A 75.714287,74.285713 0 1 1 -531.42858,586.64789 A 75.714287,74.285713 0 1 1 -380.00001,586.64789 z"
         id="path4098"
         style="fill:none;fill-opacity:1;stroke:#000000;stroke-width:5;stroke-linejoin:round;stroke-miterlimit:4;stroke-dasharray:none;stroke-dashoffset:0;stroke-opacity:1" />
      <path
         d="M 687.98936,421.07524 C 691.37226,407.54363 726.37261,387.13186 741.54924,387.13186 C 763.31153,387.13186 756.85145,414.33411 767.37275,424.85541 C 782.54869,440.03134 776.23461,442.5169 793.83388,451.31653 C 810.65528,459.72724 820.88549,466.5848 835.41565,470.21734 C 851.32814,474.19546 861.46529,480.50991 880.77759,485.33799 C 897.19568,489.44251 910.81392,500.25368 918.5792,508.01895 C 929.58827,519.02803 918.81793,545.34311 914.79904,553.38089 C 907.66263,567.65371 888.10465,577.86671 883.92012,594.60482 C 855.95219,631.49605 888.70384,655.27672 892.11807,693.24686 C 892.11807,717.05496 892.06452,727.32186 880.77759,738.60879 C 865.78189,753.60449 856.41542,754.25418 839.19581,749.94928 C 822.3976,745.74973 817.11805,733.24016 805.17436,727.26831 C 792.56434,720.9633 777.3648,715.92783 759.81242,715.92783 C 737.37151,715.92783 735.58322,715.92783 710.67033,715.92783 C 700.76938,715.92783 680.4019,731.06204 672.86871,734.82863 C 659.52846,741.49876 655.55816,744.96979 650.18775,723.48815 C 645.89693,706.3249 641.97688,695.84901 646.40758,678.12621 C 651.80932,656.51926 650.6853,643.10966 653.96791,636.54444 C 661.83393,620.81239 662.45262,602.44039 657.74807,583.62218 C 655.28418,573.76662 647.17061,566.24743 642.62742,557.16105 C 634.54815,541.00251 624.50547,541.37565 619.94645,523.1396 C 616.6377,509.90456 612.38613,494.16646 612.38613,473.9975 C 646.49913,439.95687 670.0387,477.35861 687.98936,421.07524 z"
         id="path4613"
         style="fill:none;fill-rule:evenodd;stroke:#000000;stroke-width:5;stroke-linecap:butt;stroke-linejoin:miter;stroke-miterlimit:4;stroke-dasharray:none;stroke-opacity:1" />
      <path
         d="M 1831.102,371.24744 C 1834.4849,357.71583 1904.8693,151.5382 1920.0459,151.5382 C 1974.7831,224.43084 1991.9847,354.23354 2078.4825,404.43739 C 2189.3175,440.12746 2282.302,433.63053 2372.776,424.2815 C 2383.7851,435.29058 2179.8772,563.33459 2175.8583,571.37237 C 2119.0614,626.15105 2090.554,622.41431 2111.8961,684.70036 C 2128.1137,718.82878 2192.9307,780.69731 2181.6438,791.98424 C 2166.6481,806.97994 2040.8094,739.81035 2023.5898,735.50545 C 1994.9549,720.52557 1947.8015,715.86385 1880.852,741.02545 C 1867.5117,747.69558 1667.4552,879.43351 1662.0848,857.95187 C 1657.794,840.78862 1786.5639,687.30251 1790.9946,669.57971 C 1847.1408,526.86256 1676.8865,520.94599 1587.4249,433.01569 C 1621.5379,398.97506 1813.1514,427.53081 1831.102,371.24744 z"
         id="path4615"
         style="fill:none;fill-rule:evenodd;stroke:#000000;stroke-width:5;stroke-linecap:butt;stroke-linejoin:miter;stroke-miterlimit:4;stroke-dasharray:none;stroke-opacity:1" />
    </g>
  </g>
</svg>
