<?xml version="1.0" encoding="UTF-8" standalone="no"?>
<svg
   xmlns:dc="http://purl.org/dc/elements/1.1/"
   xmlns:cc="http://creativecommons.org/ns#"
   xmlns:rdf="http://www.w3.org/1999/02/22-rdf-syntax-ns#"
   xmlns:svg="http://www.w3.org/2000/svg"
   xmlns="http://www.w3.org/2000/svg"
   xmlns:sodipodi="http://sodipodi.sourceforge.net/DTD/sodipodi-0.dtd"
   xmlns:inkscape="http://www.inkscape.org/namespaces/inkscape"
   stroke-dasharray="none"
   shape-rendering="auto"
   font-family="'Dialog'"
   width="944"
   text-rendering="auto"
   fill-opacity="1"
   contentScriptType="text/ecmascript"
   color-interpolation="auto"
   color-rendering="auto"
   preserveAspectRatio="xMidYMid meet"
   font-size="12"
   viewBox="0 0 944 562"
   fill="black"
   stroke="black"
   image-rendering="auto"
   stroke-miterlimit="10"
   zoomAndPan="magnify"
   version="1.0"
   stroke-linecap="square"
   stroke-linejoin="miter"
   contentStyleType="text/css"
   font-style="normal"
   height="562"
   stroke-width="1"
   stroke-dashoffset="0"
   font-weight="normal"
   stroke-opacity="1"
   id="svg2"
   sodipodi:version="0.32"
   inkscape:version="0.46"
   sodipodi:docname="originalHierarchy.svg"
   inkscape:output_extension="org.inkscape.output.svg.inkscape">
  <metadata
     id="metadata764">
    <rdf:RDF>
      <cc:Work
         rdf:about="">
        <dc:format>image/svg+xml</dc:format>
        <dc:type
           rdf:resource="http://purl.org/dc/dcmitype/StillImage" />
      </cc:Work>
    </rdf:RDF>
  </metadata>
  <sodipodi:namedview
     inkscape:window-height="850"
     inkscape:window-width="1440"
     inkscape:pageshadow="2"
     inkscape:pageopacity="0.0"
     guidetolerance="10.0"
     gridtolerance="10.0"
     objecttolerance="10.0"
     borderopacity="1.0"
     bordercolor="#666666"
     pagecolor="#ffffff"
     id="base"
     showgrid="false"
     inkscape:zoom="1.7480139"
     inkscape:cx="439.31617"
     inkscape:cy="246.68084"
     inkscape:window-x="-5"
     inkscape:window-y="-3"
     inkscape:current-layer="svg2"
     showguides="true"
     inkscape:guide-bbox="true" />
<!--Generated by the Batik Graphics2D SVG Generator-->  <defs
     id="genericDefs">
    <marker
       inkscape:stockid="DiamondL"
       orient="auto"
       refY="0.0"
       refX="0.0"
       id="DiamondL"
       style="overflow:visible">
      <path
         id="path3779"
         d="M 0,-7.0710768 L -7.0710894,0 L 0,7.0710589 L 7.0710462,0 L 0,-7.0710768 z "
         style="fill-rule:evenodd;stroke:#000000;stroke-width:1.0pt;marker-start:none"
         transform="scale(0.8)" />
    </marker>
    <marker
       inkscape:stockid="Arrow1Lend"
       orient="auto"
       refY="0.0"
       refX="0.0"
       id="Arrow1Lend"
       style="overflow:visible;">
      <path
         id="path3702"
         d="M 0.0,0.0 L 5.0,-5.0 L -12.5,0.0 L 5.0,5.0 L 0.0,0.0 z "
         style="fill-rule:evenodd;stroke:#000000;stroke-width:1.0pt;marker-start:none;"
         transform="scale(0.8) rotate(180) translate(12.5,0)" />
    </marker>
    <marker
       inkscape:stockid="Arrow1Mend"
       orient="auto"
       refY="0.0"
       refX="0.0"
       id="Arrow1Mend"
       style="overflow:visible;">
      <path
         id="path3708"
         d="M 0.0,0.0 L 5.0,-5.0 L -12.5,0.0 L 5.0,5.0 L 0.0,0.0 z "
         style="fill-rule:evenodd;stroke:#000000;stroke-width:1.0pt;marker-start:none;"
         transform="scale(0.4) rotate(180) translate(10,0)" />
    </marker>
    <marker
       inkscape:stockid="EmptyTriangleOutL"
       orient="auto"
       refY="0.0"
       refX="0.0"
       id="EmptyTriangleOutL"
       style="overflow:visible">
      <path
         id="path3860"
         d="M 5.77,0.0 L -2.88,5.0 L -2.88,-5.0 L 5.77,0.0 z "
         style="fill-rule:evenodd;fill:#FFFFFF;stroke:#000000;stroke-width:1.0pt;marker-start:none"
         transform="scale(0.8) translate(-6,0)" />
    </marker>
    <inkscape:perspective
       sodipodi:type="inkscape:persp3d"
       inkscape:vp_x="0 : 281 : 1"
       inkscape:vp_y="0 : 1000 : 0"
       inkscape:vp_z="944 : 281 : 1"
       inkscape:persp3d-origin="472 : 187.33333 : 1"
       id="perspective766" />
    <defs
       id="defs1">
      <clipPath
         id="clipPath1"
         clipPathUnits="userSpaceOnUse">
        <path
           id="path9"
           d="M9 9 L111 9 L111 75 L9 75 L9 9 Z" />
      </clipPath>
      <clipPath
         id="clipPath2"
         clipPathUnits="userSpaceOnUse">
        <path
           id="path12"
           d="M28 14 L90 14 L90 33 L28 33 L28 14 Z" />
      </clipPath>
      <clipPath
         id="clipPath3"
         clipPathUnits="userSpaceOnUse">
        <path
           id="path15"
           d="M-1 -1 L76 -1 L76 18 L-1 18 L-1 -1 Z" />
      </clipPath>
      <clipPath
         id="clipPath4"
         clipPathUnits="userSpaceOnUse">
        <path
           id="path18"
           d="M19 31 L100 31 L100 50 L19 50 L19 31 Z" />
      </clipPath>
      <clipPath
         id="clipPath5"
         clipPathUnits="userSpaceOnUse">
        <path
           id="path21"
           d="M14 48 L101 48 L101 62 L14 62 L14 48 Z" />
      </clipPath>
      <clipPath
         id="clipPath6"
         clipPathUnits="userSpaceOnUse">
        <path
           id="path24"
           d="M165 450 L506 450 L506 535 L165 535 L165 450 Z" />
      </clipPath>
      <clipPath
         id="clipPath7"
         clipPathUnits="userSpaceOnUse">
        <path
           id="path27"
           d="M165 450 L506 450 L506 481 L165 481 L165 450 Z" />
      </clipPath>
      <clipPath
         id="clipPath8"
         clipPathUnits="userSpaceOnUse">
        <path
           id="path30"
           d="M166 451 L505 451 L505 458 L166 458 L166 451 Z" />
      </clipPath>
      <clipPath
         id="clipPath9"
         clipPathUnits="userSpaceOnUse">
        <path
           id="path33"
           d="M166 456 L505 456 L505 480 L166 480 L166 456 Z" />
      </clipPath>
      <clipPath
         id="clipPath10"
         clipPathUnits="userSpaceOnUse">
        <path
           id="path36"
           d="M-6 -4 L324 -4 L324 20 L-6 20 L-6 -4 Z" />
      </clipPath>
      <clipPath
         id="clipPath11"
         clipPathUnits="userSpaceOnUse">
        <path
           id="path39"
           d="M170 456 L503 456 L503 480 L170 480 L170 456 Z" />
      </clipPath>
      <clipPath
         id="clipPath12"
         clipPathUnits="userSpaceOnUse">
        <path
           id="path42"
           d="M165 479 L506 479 L506 499 L165 499 L165 479 Z" />
      </clipPath>
      <clipPath
         id="clipPath13"
         clipPathUnits="userSpaceOnUse">
        <path
           id="path45"
           d="M306 480 L367 480 L367 497 L306 497 L306 480 Z" />
      </clipPath>
      <clipPath
         id="clipPath14"
         clipPathUnits="userSpaceOnUse">
        <path
           id="path48"
           d="M165 497 L506 497 L506 517 L165 517 L165 497 Z" />
      </clipPath>
      <clipPath
         id="clipPath15"
         clipPathUnits="userSpaceOnUse">
        <path
           id="path51"
           d="M302 498 L372 498 L372 515 L302 515 L302 498 Z" />
      </clipPath>
      <clipPath
         id="clipPath16"
         clipPathUnits="userSpaceOnUse">
        <path
           id="path54"
           d="M165 515 L506 515 L506 535 L165 535 L165 515 Z" />
      </clipPath>
      <clipPath
         id="clipPath17"
         clipPathUnits="userSpaceOnUse">
        <path
           id="path57"
           d="M311 516 L362 516 L362 533 L311 533 L311 516 Z" />
      </clipPath>
      <clipPath
         id="clipPath18"
         clipPathUnits="userSpaceOnUse">
        <path
           id="path60"
           d="M165 74 L505 74 L505 193 L165 193 L165 74 Z" />
      </clipPath>
      <clipPath
         id="clipPath19"
         clipPathUnits="userSpaceOnUse">
        <path
           id="path63"
           d="M165 74 L505 74 L505 105 L165 105 L165 74 Z" />
      </clipPath>
      <clipPath
         id="clipPath20"
         clipPathUnits="userSpaceOnUse">
        <path
           id="path66"
           d="M166 75 L504 75 L504 82 L166 82 L166 75 Z" />
      </clipPath>
      <clipPath
         id="clipPath21"
         clipPathUnits="userSpaceOnUse">
        <path
           id="path69"
           d="M166 80 L504 80 L504 104 L166 104 L166 80 Z" />
      </clipPath>
      <clipPath
         id="clipPath22"
         clipPathUnits="userSpaceOnUse">
        <path
           id="path72"
           d="M-6 -4 L210 -4 L210 20 L-6 20 L-6 -4 Z" />
      </clipPath>
      <clipPath
         id="clipPath23"
         clipPathUnits="userSpaceOnUse">
        <path
           id="path75"
           d="M227 80 L446 80 L446 104 L227 104 L227 80 Z" />
      </clipPath>
      <clipPath
         id="clipPath24"
         clipPathUnits="userSpaceOnUse">
        <path
           id="path78"
           d="M165 103 L505 103 L505 140 L165 140 L165 103 Z" />
      </clipPath>
      <clipPath
         id="clipPath25"
         clipPathUnits="userSpaceOnUse">
        <path
           id="path81"
           d="M305 104 L366 104 L366 121 L305 121 L305 104 Z" />
      </clipPath>
      <clipPath
         id="clipPath26"
         clipPathUnits="userSpaceOnUse">
        <path
           id="path84"
           d="M170 120 L503 120 L503 139 L170 139 L170 120 Z" />
      </clipPath>
      <clipPath
         id="clipPath27"
         clipPathUnits="userSpaceOnUse">
        <path
           id="path87"
           d="M165 138 L505 138 L505 175 L165 175 L165 138 Z" />
      </clipPath>
      <clipPath
         id="clipPath28"
         clipPathUnits="userSpaceOnUse">
        <path
           id="path90"
           d="M301 139 L371 139 L371 156 L301 156 L301 139 Z" />
      </clipPath>
      <clipPath
         id="clipPath29"
         clipPathUnits="userSpaceOnUse">
        <path
           id="path93"
           d="M170 155 L338 155 L338 174 L170 174 L170 155 Z" />
      </clipPath>
      <clipPath
         id="clipPath30"
         clipPathUnits="userSpaceOnUse">
        <path
           id="path96"
           d="M165 173 L505 173 L505 193 L165 193 L165 173 Z" />
      </clipPath>
      <clipPath
         id="clipPath31"
         clipPathUnits="userSpaceOnUse">
        <path
           id="path99"
           d="M311 174 L362 174 L362 191 L311 191 L311 174 Z" />
      </clipPath>
      <clipPath
         id="clipPath32"
         clipPathUnits="userSpaceOnUse">
        <path
           id="path102"
           d="M620 74 L935 74 L935 176 L620 176 L620 74 Z" />
      </clipPath>
      <clipPath
         id="clipPath33"
         clipPathUnits="userSpaceOnUse">
        <path
           id="path105"
           d="M620 74 L935 74 L935 105 L620 105 L620 74 Z" />
      </clipPath>
      <clipPath
         id="clipPath34"
         clipPathUnits="userSpaceOnUse">
        <path
           id="path108"
           d="M621 75 L934 75 L934 82 L621 82 L621 75 Z" />
      </clipPath>
      <clipPath
         id="clipPath35"
         clipPathUnits="userSpaceOnUse">
        <path
           id="path111"
           d="M621 80 L934 80 L934 104 L621 104 L621 80 Z" />
      </clipPath>
      <clipPath
         id="clipPath36"
         clipPathUnits="userSpaceOnUse">
        <path
           id="path114"
           d="M-6 -4 L191 -4 L191 20 L-6 20 L-6 -4 Z" />
      </clipPath>
      <clipPath
         id="clipPath37"
         clipPathUnits="userSpaceOnUse">
        <path
           id="path117"
           d="M679 80 L879 80 L879 104 L679 104 L679 80 Z" />
      </clipPath>
      <clipPath
         id="clipPath38"
         clipPathUnits="userSpaceOnUse">
        <path
           id="path120"
           d="M620 103 L935 103 L935 123 L620 123 L620 103 Z" />
      </clipPath>
      <clipPath
         id="clipPath39"
         clipPathUnits="userSpaceOnUse">
        <path
           id="path123"
           d="M748 104 L809 104 L809 121 L748 121 L748 104 Z" />
      </clipPath>
      <clipPath
         id="clipPath40"
         clipPathUnits="userSpaceOnUse">
        <path
           id="path126"
           d="M620 121 L935 121 L935 158 L620 158 L620 121 Z" />
      </clipPath>
      <clipPath
         id="clipPath41"
         clipPathUnits="userSpaceOnUse">
        <path
           id="path129"
           d="M744 122 L814 122 L814 139 L744 139 L744 122 Z" />
      </clipPath>
      <clipPath
         id="clipPath42"
         clipPathUnits="userSpaceOnUse">
        <path
           id="path132"
           d="M625 138 L806 138 L806 157 L625 157 L625 138 Z" />
      </clipPath>
      <clipPath
         id="clipPath43"
         clipPathUnits="userSpaceOnUse">
        <path
           id="path135"
           d="M620 156 L935 156 L935 176 L620 176 L620 156 Z" />
      </clipPath>
      <clipPath
         id="clipPath44"
         clipPathUnits="userSpaceOnUse">
        <path
           id="path138"
           d="M753 157 L804 157 L804 174 L753 174 L753 157 Z" />
      </clipPath>
      <clipPath
         id="clipPath45"
         clipPathUnits="userSpaceOnUse">
        <path
           id="path141"
           d="M165 220 L506 220 L506 305 L165 305 L165 220 Z" />
      </clipPath>
      <clipPath
         id="clipPath46"
         clipPathUnits="userSpaceOnUse">
        <path
           id="path144"
           d="M165 220 L506 220 L506 251 L165 251 L165 220 Z" />
      </clipPath>
      <clipPath
         id="clipPath47"
         clipPathUnits="userSpaceOnUse">
        <path
           id="path147"
           d="M166 221 L505 221 L505 228 L166 228 L166 221 Z" />
      </clipPath>
      <clipPath
         id="clipPath48"
         clipPathUnits="userSpaceOnUse">
        <path
           id="path150"
           d="M166 226 L505 226 L505 250 L166 250 L166 226 Z" />
      </clipPath>
      <clipPath
         id="clipPath49"
         clipPathUnits="userSpaceOnUse">
        <path
           id="path153"
           d="M-6 -4 L239 -4 L239 20 L-6 20 L-6 -4 Z" />
      </clipPath>
      <clipPath
         id="clipPath50"
         clipPathUnits="userSpaceOnUse">
        <path
           id="path156"
           d="M213 226 L461 226 L461 250 L213 250 L213 226 Z" />
      </clipPath>
      <clipPath
         id="clipPath51"
         clipPathUnits="userSpaceOnUse">
        <path
           id="path159"
           d="M165 249 L506 249 L506 269 L165 269 L165 249 Z" />
      </clipPath>
      <clipPath
         id="clipPath52"
         clipPathUnits="userSpaceOnUse">
        <path
           id="path162"
           d="M306 250 L367 250 L367 267 L306 267 L306 250 Z" />
      </clipPath>
      <clipPath
         id="clipPath53"
         clipPathUnits="userSpaceOnUse">
        <path
           id="path165"
           d="M165 267 L506 267 L506 287 L165 287 L165 267 Z" />
      </clipPath>
      <clipPath
         id="clipPath54"
         clipPathUnits="userSpaceOnUse">
        <path
           id="path168"
           d="M302 268 L372 268 L372 285 L302 285 L302 268 Z" />
      </clipPath>
      <clipPath
         id="clipPath55"
         clipPathUnits="userSpaceOnUse">
        <path
           id="path171"
           d="M165 285 L506 285 L506 305 L165 305 L165 285 Z" />
      </clipPath>
      <clipPath
         id="clipPath56"
         clipPathUnits="userSpaceOnUse">
        <path
           id="path174"
           d="M311 286 L362 286 L362 303 L311 303 L311 286 Z" />
      </clipPath>
      <clipPath
         id="clipPath57"
         clipPathUnits="userSpaceOnUse">
        <path
           id="path177"
           d="M165 334 L506 334 L506 419 L165 419 L165 334 Z" />
      </clipPath>
      <clipPath
         id="clipPath58"
         clipPathUnits="userSpaceOnUse">
        <path
           id="path180"
           d="M165 334 L506 334 L506 365 L165 365 L165 334 Z" />
      </clipPath>
      <clipPath
         id="clipPath59"
         clipPathUnits="userSpaceOnUse">
        <path
           id="path183"
           d="M166 335 L505 335 L505 342 L166 342 L166 335 Z" />
      </clipPath>
      <clipPath
         id="clipPath60"
         clipPathUnits="userSpaceOnUse">
        <path
           id="path186"
           d="M166 340 L505 340 L505 364 L166 364 L166 340 Z" />
      </clipPath>
      <clipPath
         id="clipPath61"
         clipPathUnits="userSpaceOnUse">
        <path
           id="path189"
           d="M-6 -4 L260 -4 L260 20 L-6 20 L-6 -4 Z" />
      </clipPath>
      <clipPath
         id="clipPath62"
         clipPathUnits="userSpaceOnUse">
        <path
           id="path192"
           d="M202 340 L471 340 L471 364 L202 364 L202 340 Z" />
      </clipPath>
      <clipPath
         id="clipPath63"
         clipPathUnits="userSpaceOnUse">
        <path
           id="path195"
           d="M165 363 L506 363 L506 383 L165 383 L165 363 Z" />
      </clipPath>
      <clipPath
         id="clipPath64"
         clipPathUnits="userSpaceOnUse">
        <path
           id="path198"
           d="M306 364 L367 364 L367 381 L306 381 L306 364 Z" />
      </clipPath>
      <clipPath
         id="clipPath65"
         clipPathUnits="userSpaceOnUse">
        <path
           id="path201"
           d="M165 381 L506 381 L506 401 L165 401 L165 381 Z" />
      </clipPath>
      <clipPath
         id="clipPath66"
         clipPathUnits="userSpaceOnUse">
        <path
           id="path204"
           d="M302 382 L372 382 L372 399 L302 399 L302 382 Z" />
      </clipPath>
      <clipPath
         id="clipPath67"
         clipPathUnits="userSpaceOnUse">
        <path
           id="path207"
           d="M165 399 L506 399 L506 419 L165 419 L165 399 Z" />
      </clipPath>
      <clipPath
         id="clipPath68"
         clipPathUnits="userSpaceOnUse">
        <path
           id="path210"
           d="M311 400 L362 400 L362 417 L311 417 L311 400 Z" />
      </clipPath>
      <clipPath
         id="clipPath69"
         clipPathUnits="userSpaceOnUse">
        <path
           id="path213"
           d="M620 451 L933 451 L933 553 L620 553 L620 451 Z" />
      </clipPath>
      <clipPath
         id="clipPath70"
         clipPathUnits="userSpaceOnUse">
        <path
           id="path216"
           d="M620 451 L933 451 L933 482 L620 482 L620 451 Z" />
      </clipPath>
      <clipPath
         id="clipPath71"
         clipPathUnits="userSpaceOnUse">
        <path
           id="path219"
           d="M621 452 L932 452 L932 459 L621 459 L621 452 Z" />
      </clipPath>
      <clipPath
         id="clipPath72"
         clipPathUnits="userSpaceOnUse">
        <path
           id="path222"
           d="M621 457 L932 457 L932 481 L621 481 L621 457 Z" />
      </clipPath>
      <clipPath
         id="clipPath73"
         clipPathUnits="userSpaceOnUse">
        <path
           id="path225"
           d="M-6 -4 L305 -4 L305 20 L-6 20 L-6 -4 Z" />
      </clipPath>
      <clipPath
         id="clipPath74"
         clipPathUnits="userSpaceOnUse">
        <path
           id="path228"
           d="M621 457 L935 457 L935 481 L621 481 L621 457 Z" />
      </clipPath>
      <clipPath
         id="clipPath75"
         clipPathUnits="userSpaceOnUse">
        <path
           id="path231"
           d="M620 480 L933 480 L933 500 L620 500 L620 480 Z" />
      </clipPath>
      <clipPath
         id="clipPath76"
         clipPathUnits="userSpaceOnUse">
        <path
           id="path234"
           d="M747 481 L808 481 L808 498 L747 498 L747 481 Z" />
      </clipPath>
      <clipPath
         id="clipPath77"
         clipPathUnits="userSpaceOnUse">
        <path
           id="path237"
           d="M620 498 L933 498 L933 535 L620 535 L620 498 Z" />
      </clipPath>
      <clipPath
         id="clipPath78"
         clipPathUnits="userSpaceOnUse">
        <path
           id="path240"
           d="M743 499 L813 499 L813 516 L743 516 L743 499 Z" />
      </clipPath>
      <clipPath
         id="clipPath79"
         clipPathUnits="userSpaceOnUse">
        <path
           id="path243"
           d="M625 515 L797 515 L797 534 L625 534 L625 515 Z" />
      </clipPath>
      <clipPath
         id="clipPath80"
         clipPathUnits="userSpaceOnUse">
        <path
           id="path246"
           d="M620 533 L933 533 L933 553 L620 553 L620 533 Z" />
      </clipPath>
      <clipPath
         id="clipPath81"
         clipPathUnits="userSpaceOnUse">
        <path
           id="path249"
           d="M752 534 L803 534 L803 551 L752 551 L752 534 Z" />
      </clipPath>
      <clipPath
         id="clipPath82"
         clipPathUnits="userSpaceOnUse">
        <path
           id="path252"
           d="M620 334 L935 334 L935 419 L620 419 L620 334 Z" />
      </clipPath>
      <clipPath
         id="clipPath83"
         clipPathUnits="userSpaceOnUse">
        <path
           id="path255"
           d="M620 334 L935 334 L935 365 L620 365 L620 334 Z" />
      </clipPath>
      <clipPath
         id="clipPath84"
         clipPathUnits="userSpaceOnUse">
        <path
           id="path258"
           d="M621 335 L934 335 L934 342 L621 342 L621 335 Z" />
      </clipPath>
      <clipPath
         id="clipPath85"
         clipPathUnits="userSpaceOnUse">
        <path
           id="path261"
           d="M621 340 L934 340 L934 364 L621 364 L621 340 Z" />
      </clipPath>
      <clipPath
         id="clipPath86"
         clipPathUnits="userSpaceOnUse">
        <path
           id="path264"
           d="M-6 -4 L241 -4 L241 20 L-6 20 L-6 -4 Z" />
      </clipPath>
      <clipPath
         id="clipPath87"
         clipPathUnits="userSpaceOnUse">
        <path
           id="path267"
           d="M654 340 L904 340 L904 364 L654 364 L654 340 Z" />
      </clipPath>
      <clipPath
         id="clipPath88"
         clipPathUnits="userSpaceOnUse">
        <path
           id="path270"
           d="M620 363 L935 363 L935 383 L620 383 L620 363 Z" />
      </clipPath>
      <clipPath
         id="clipPath89"
         clipPathUnits="userSpaceOnUse">
        <path
           id="path273"
           d="M748 364 L809 364 L809 381 L748 381 L748 364 Z" />
      </clipPath>
      <clipPath
         id="clipPath90"
         clipPathUnits="userSpaceOnUse">
        <path
           id="path276"
           d="M620 381 L935 381 L935 401 L620 401 L620 381 Z" />
      </clipPath>
      <clipPath
         id="clipPath91"
         clipPathUnits="userSpaceOnUse">
        <path
           id="path279"
           d="M744 382 L814 382 L814 399 L744 399 L744 382 Z" />
      </clipPath>
      <clipPath
         id="clipPath92"
         clipPathUnits="userSpaceOnUse">
        <path
           id="path282"
           d="M620 399 L935 399 L935 419 L620 419 L620 399 Z" />
      </clipPath>
      <clipPath
         id="clipPath93"
         clipPathUnits="userSpaceOnUse">
        <path
           id="path285"
           d="M753 400 L804 400 L804 417 L753 417 L753 400 Z" />
      </clipPath>
      <clipPath
         id="clipPath94"
         clipPathUnits="userSpaceOnUse">
        <path
           id="path288"
           d="M620 217 L935 217 L935 302 L620 302 L620 217 Z" />
      </clipPath>
      <clipPath
         id="clipPath95"
         clipPathUnits="userSpaceOnUse">
        <path
           id="path291"
           d="M620 217 L935 217 L935 248 L620 248 L620 217 Z" />
      </clipPath>
      <clipPath
         id="clipPath96"
         clipPathUnits="userSpaceOnUse">
        <path
           id="path294"
           d="M621 218 L934 218 L934 225 L621 225 L621 218 Z" />
      </clipPath>
      <clipPath
         id="clipPath97"
         clipPathUnits="userSpaceOnUse">
        <path
           id="path297"
           d="M621 223 L934 223 L934 247 L621 247 L621 223 Z" />
      </clipPath>
      <clipPath
         id="clipPath98"
         clipPathUnits="userSpaceOnUse">
        <path
           id="path300"
           d="M-6 -4 L144 -4 L144 20 L-6 20 L-6 -4 Z" />
      </clipPath>
      <clipPath
         id="clipPath99"
         clipPathUnits="userSpaceOnUse">
        <path
           id="path303"
           d="M702 223 L855 223 L855 247 L702 247 L702 223 Z" />
      </clipPath>
      <clipPath
         id="clipPath100"
         clipPathUnits="userSpaceOnUse">
        <path
           id="path306"
           d="M620 246 L935 246 L935 266 L620 266 L620 246 Z" />
      </clipPath>
      <clipPath
         id="clipPath101"
         clipPathUnits="userSpaceOnUse">
        <path
           id="path309"
           d="M748 247 L809 247 L809 264 L748 264 L748 247 Z" />
      </clipPath>
      <clipPath
         id="clipPath102"
         clipPathUnits="userSpaceOnUse">
        <path
           id="path312"
           d="M620 264 L935 264 L935 284 L620 284 L620 264 Z" />
      </clipPath>
      <clipPath
         id="clipPath103"
         clipPathUnits="userSpaceOnUse">
        <path
           id="path315"
           d="M744 265 L814 265 L814 282 L744 282 L744 265 Z" />
      </clipPath>
      <clipPath
         id="clipPath104"
         clipPathUnits="userSpaceOnUse">
        <path
           id="path318"
           d="M620 282 L935 282 L935 302 L620 302 L620 282 Z" />
      </clipPath>
      <clipPath
         id="clipPath105"
         clipPathUnits="userSpaceOnUse">
        <path
           id="path321"
           d="M753 283 L804 283 L804 300 L753 300 L753 283 Z" />
      </clipPath>
      <clipPath
         id="clipPath106"
         clipPathUnits="userSpaceOnUse">
        <path
           id="path324"
           d="M-1 -1 L945 -1 L945 563 L-1 563 L-1 -1 Z" />
      </clipPath>
      <clipPath
         id="clipPath107"
         clipPathUnits="userSpaceOnUse">
        <path
           id="path327"
           d="M503 141 L514 141 L514 150 L503 150 L503 141 Z" />
      </clipPath>
      <clipPath
         id="clipPath108"
         clipPathUnits="userSpaceOnUse">
        <path
           id="path330"
           d="M619 142 L625 142 L625 148 L619 148 L619 142 Z" />
      </clipPath>
      <clipPath
         id="clipPath109"
         clipPathUnits="userSpaceOnUse">
        <path
           id="path333"
           d="M614 141 L624 141 L624 150 L614 150 L614 141 Z" />
      </clipPath>
      <clipPath
         id="clipPath110"
         clipPathUnits="userSpaceOnUse">
        <path
           id="path336"
           d="M330 191 L345 191 L345 208 L330 208 L330 191 Z" />
      </clipPath>
      <clipPath
         id="clipPath111"
         clipPathUnits="userSpaceOnUse">
        <path
           id="path339"
           d="M328 303 L343 303 L343 320 L328 320 L328 303 Z" />
      </clipPath>
      <clipPath
         id="clipPath112"
         clipPathUnits="userSpaceOnUse">
        <path
           id="path342"
           d="M313 417 L328 417 L328 434 L313 434 L313 417 Z" />
      </clipPath>
      <clipPath
         id="clipPath113"
         clipPathUnits="userSpaceOnUse">
        <path
           id="path345"
           d="M763 417 L778 417 L778 434 L763 434 L763 417 Z" />
      </clipPath>
      <clipPath
         id="clipPath114"
         clipPathUnits="userSpaceOnUse">
        <path
           id="path348"
           d="M761 300 L776 300 L776 317 L761 317 L761 300 Z" />
      </clipPath>
      <clipPath
         id="clipPath115"
         clipPathUnits="userSpaceOnUse">
        <path
           id="path351"
           d="M756 174 L771 174 L771 191 L756 191 L756 174 Z" />
      </clipPath>
    </defs>
  </defs>
  <rect
     style="fill:#efefef;fill-opacity:1;stroke:none;stroke-width:0.21113917;stroke-miterlimit:4;stroke-dasharray:none;stroke-dashoffset:0;stroke-opacity:1"
     id="rect3628"
     width="268.05606"
     height="25.959332"
     x="437.12775"
     y="336.3244" />
  <rect
     y="336.32312"
     x="437.12656"
     height="25.211325"
     width="268.05856"
     id="rect3630"
     style="fill:none;fill-opacity:1;stroke:#000000;stroke-width:0.17104882;stroke-miterlimit:4;stroke-dasharray:none;stroke-dashoffset:0;stroke-opacity:1" />
  <rect
     y="264.47095"
     x="437.12775"
     height="25.959332"
     width="268.05606"
     id="rect3624"
     style="fill:#efefef;fill-opacity:1;stroke:none;stroke-width:0.21113917;stroke-miterlimit:4;stroke-dasharray:none;stroke-dashoffset:0;stroke-opacity:1" />
  <rect
     style="fill:none;fill-opacity:1;stroke:#000000;stroke-width:0.17104882;stroke-miterlimit:4;stroke-dasharray:none;stroke-dashoffset:0;stroke-opacity:1"
     id="rect3626"
     width="268.05856"
     height="25.211325"
     x="437.12656"
     y="264.4697" />
  <rect
     y="294.1781"
     x="85.29422"
     height="24.340445"
     width="268.05606"
     id="rect3580"
     style="fill:#efefef;fill-opacity:1;stroke:none;stroke-width:0.21113917;stroke-miterlimit:4;stroke-dasharray:none;stroke-dashoffset:0;stroke-opacity:1" />
  <rect
     style="fill:none;fill-opacity:1;stroke:#000000;stroke-width:0.16852324;stroke-miterlimit:4;stroke-dasharray:none;stroke-dashoffset:0;stroke-opacity:1"
     id="rect3594"
     width="268.06107"
     height="24.47209"
     x="85.29174"
     y="294.17557" />
  <rect
     y="366.79248"
     x="85.294235"
     height="25.959332"
     width="268.05606"
     id="rect3596"
     style="fill:#efefef;fill-opacity:1;stroke:none;stroke-width:0.21113917;stroke-miterlimit:4;stroke-dasharray:none;stroke-dashoffset:0;stroke-opacity:1" />
  <rect
     style="fill:none;fill-opacity:1;stroke:#000000;stroke-width:0.17356695;stroke-miterlimit:4;stroke-dasharray:none;stroke-dashoffset:0;stroke-opacity:1"
     id="rect3610"
     width="268.05606"
     height="25.959337"
     x="85.294235"
     y="366.79248" />
  <rect
     style="fill:#efefef;fill-opacity:1;stroke:none;stroke-width:0.21113917;stroke-miterlimit:4;stroke-dasharray:none;stroke-dashoffset:0;stroke-opacity:1"
     id="rect3612"
     width="268.05606"
     height="26.364054"
     x="85.294243"
     y="440.8992" />
  <rect
     y="440.90045"
     x="85.295464"
     height="26.703012"
     width="268.05362"
     id="rect3614"
     style="fill:none;fill-opacity:1;stroke:#000000;stroke-width:0.17603475;stroke-miterlimit:4;stroke-dasharray:none;stroke-dashoffset:0;stroke-opacity:1" />
  <rect
     y="408.17783"
     x="436.30835"
     height="25.959332"
     width="268.05606"
     id="rect3632"
     style="fill:#efefef;fill-opacity:1;stroke:none;stroke-width:0.21113917;stroke-miterlimit:4;stroke-dasharray:none;stroke-dashoffset:0;stroke-opacity:1" />
  <text
     font-size="12"
     x="744"
     y="514"
     clip-path="url(#clipPath78)"
     xml:space="preserve"
     id="text615"
     style="font-size:12px;fill:#000000;stroke:none;stroke-linejoin:round;stroke-miterlimit:0"
     transform="matrix(0.814543,0,0,0.829626,-48.968179,18.628666)">operations</text>
  <text
     x="626"
     y="531"
     clip-path="url(#clipPath79)"
     xml:space="preserve"
     id="text617"
     style="font-size:13px;fill:#000000;stroke:none;stroke-linejoin:round;stroke-miterlimit:0"
     transform="matrix(0.814543,0,0,0.829626,-48.968179,18.628666)">CalculateSpeedImage(  )</text>
  <rect
     style="fill:none;fill-opacity:1;stroke:#000000;stroke-width:0.26236913;stroke-miterlimit:4;stroke-dasharray:none;stroke-dashoffset:0;stroke-opacity:1"
     id="rect3634"
     width="267.96808"
     height="59.337273"
     x="436.35239"
     y="408.22263" />
  <path
     style="fill:none;fill-rule:evenodd;stroke:#000000;stroke-width:0.82204992px;stroke-linecap:butt;stroke-linejoin:miter;marker-end:url(#EmptyTriangleOutL);stroke-opacity:1"
     d="M 219.32227,440.81161 L 219.32227,392.8394"
     id="path3694"
     inkscape:connector-type="polyline" />
  <path
     style="fill:none;fill-rule:evenodd;stroke:#000000;stroke-width:0.82204992px;stroke-linecap:butt;stroke-linejoin:miter;marker-start:none;marker-end:url(#EmptyTriangleOutL);stroke-opacity:1"
     d="M 219.24435,366.7049 L 218.96259,319.45088"
     id="path4989"
     inkscape:connector-type="polyline"
     sodipodi:nodetypes="cc" />
  <path
     style="fill:none;fill-rule:evenodd;stroke:#000000;stroke-width:0.82204992px;stroke-linecap:butt;stroke-linejoin:miter;marker-start:none;marker-end:url(#EmptyTriangleOutL);stroke-opacity:1"
     d="M 219.32227,294.09053 L 219.32227,246.11831"
     id="path4993"
     inkscape:connector-type="polyline" />
  <path
     style="fill:none;fill-rule:evenodd;stroke:#000000;stroke-width:0.82204992px;stroke-linecap:butt;stroke-linejoin:miter;marker-end:url(#EmptyTriangleOutL);stroke-opacity:1"
     d="M 570.61194,408.09024 L 571.03543,362.28372"
     id="path9119"
     inkscape:connector-type="polyline" />
  <path
     style="fill:none;fill-rule:evenodd;stroke:#000000;stroke-width:0.82204992px;stroke-linecap:butt;stroke-linejoin:miter;marker-end:url(#EmptyTriangleOutL);stroke-opacity:1"
     d="M 571.15584,336.23681 L 571.15584,290.43028"
     id="path9636"
     inkscape:connector-type="polyline" />
  <path
     style="fill:none;fill-rule:evenodd;stroke:#000000;stroke-width:0.82204992px;stroke-linecap:butt;stroke-linejoin:miter;marker-end:url(#EmptyTriangleOutL);stroke-opacity:1"
     d="M 571.27512,264.38337 L 571.69465,218.57684"
     id="path10153"
     inkscape:connector-type="polyline" />
  <path
     style="fill:none;fill-rule:evenodd;stroke:#000000;stroke-width:0.82204992px;stroke-linecap:butt;stroke-linejoin:miter;marker-start:url(#DiamondL);marker-end:url(#Arrow1Lend);stroke-opacity:1"
     d="M 353.43629,196.47495 L 437.86121,193.17824"
     id="path10680"
     inkscape:connector-type="polyline" />
  <text
     xml:space="preserve"
     style="font-size:12px;font-style:normal;font-variant:normal;font-weight:normal;font-stretch:normal;text-align:start;line-height:100%;writing-mode:lr-tb;text-anchor:start;fill:#000000;fill-opacity:1;stroke:none;stroke-width:1px;stroke-linecap:butt;stroke-linejoin:miter;stroke-opacity:1;font-family:Sans;-inkscape-font-specification:Sans"
     x="88.10907"
     y="458.16107"
     id="text2712"
     sodipodi:linespacing="100%"><tspan
       sodipodi:role="line"
       id="tspan2714"
       x="88.10907"
       y="458.16107">ThresholdSegmentationLevelSetImageFilter</tspan></text>
  <text
     xml:space="preserve"
     style="font-size:12px;font-style:normal;font-variant:normal;font-weight:normal;font-stretch:normal;text-align:start;line-height:100%;writing-mode:lr-tb;text-anchor:start;fill:#000000;fill-opacity:1;stroke:none;stroke-width:1px;stroke-linecap:butt;stroke-linejoin:miter;stroke-opacity:1;font-family:Sans;-inkscape-font-specification:Sans"
     x="115.24414"
     y="384.36758"
     id="text2716"
     sodipodi:linespacing="100%"><tspan
       sodipodi:role="line"
       id="tspan2718"
       x="115.24414"
       y="384.36758">SegmentationLevelSetImageFilter</tspan></text>
  <text
     xml:space="preserve"
     style="font-size:12px;font-style:normal;font-variant:normal;font-weight:normal;font-stretch:normal;text-align:start;line-height:100%;writing-mode:lr-tb;text-anchor:start;fill:#000000;fill-opacity:1;stroke:none;stroke-width:1px;stroke-linecap:butt;stroke-linejoin:miter;stroke-opacity:1;font-family:Sans;-inkscape-font-specification:Sans"
     x="124.67661"
     y="310.8533"
     id="text2720"
     sodipodi:linespacing="100%"
     sodipodi:insensitive="true"><tspan
       sodipodi:role="line"
       id="tspan2722"
       x="124.67661"
       y="310.8533">SparseFieldLevelSetImageFilter</tspan></text>
  <text
     xml:space="preserve"
     style="font-size:12px;font-style:normal;font-variant:normal;font-weight:normal;font-stretch:normal;text-align:start;line-height:100%;writing-mode:lr-tb;text-anchor:start;fill:#000000;fill-opacity:1;stroke:none;stroke-width:1px;stroke-linecap:butt;stroke-linejoin:miter;stroke-opacity:1;font-family:Sans;-inkscape-font-specification:Sans"
     x="520.81091"
     y="280.83057"
     id="text2736"
     sodipodi:linespacing="100%"><tspan
       sodipodi:role="line"
       id="tspan2738"
       x="520.81091"
       y="280.83057">LevelSetFunction</tspan></text>
  <text
     xml:space="preserve"
     style="font-size:12px;font-style:normal;font-variant:normal;font-weight:normal;font-stretch:normal;text-align:start;line-height:100%;writing-mode:lr-tb;text-anchor:start;fill:#000000;fill-opacity:1;stroke:none;stroke-width:1px;stroke-linecap:butt;stroke-linejoin:miter;stroke-opacity:1;font-family:Sans;-inkscape-font-specification:Sans"
     x="475.92783"
     y="353.76367"
     id="text2740"
     sodipodi:linespacing="100%"><tspan
       sodipodi:role="line"
       id="tspan2742"
       x="475.92783"
       y="353.76367">SegmentationLevelSetFunction</tspan></text>
  <text
     xml:space="preserve"
     style="font-size:12px;font-style:normal;font-variant:normal;font-weight:normal;font-stretch:normal;text-align:start;line-height:100%;writing-mode:lr-tb;text-anchor:start;fill:#000000;fill-opacity:1;stroke:none;stroke-width:1px;stroke-linecap:butt;stroke-linejoin:miter;stroke-opacity:1;font-family:Sans;-inkscape-font-specification:Sans"
     x="447.38303"
     y="426.12924"
     id="text2744"
     sodipodi:linespacing="100%"><tspan
       sodipodi:role="line"
       id="tspan2746"
       x="447.38303"
       y="426.12924">ThresholdSegmentationLevelSetFunction</tspan></text>
  <rect
     style="fill:#efefef;fill-opacity:1;stroke:none;stroke-width:0.21113917;stroke-miterlimit:4;stroke-dasharray:none;stroke-dashoffset:0;stroke-opacity:1"
     id="rect2806"
     width="268.05606"
     height="25.959332"
     x="85.294228"
     y="157.39322" />
  <text
     font-size="12"
     x="306"
     y="119"
     clip-path="url(#clipPath25)"
     xml:space="preserve"
     id="text433"
     style="font-size:12px;fill:#000000;stroke:none;stroke-linejoin:round;stroke-miterlimit:0"
     transform="matrix(0.814543,0,0,0.829626,-46.035805,94.198804)">attributes</text>
  <text
     font-size="12"
     x="302"
     y="154"
     clip-path="url(#clipPath28)"
     xml:space="preserve"
     id="text443"
     style="font-size:12px;fill:#000000;stroke:none;stroke-linejoin:round;stroke-miterlimit:0"
     transform="matrix(0.814543,0,0,0.829626,-46.035805,94.198804)">operations</text>
  <rect
     y="157.4673"
     x="85.366966"
     height="88.489326"
     width="267.91058"
     id="rect3578"
     style="fill:none;fill-opacity:1;stroke:#000000;stroke-width:0.32036704;stroke-miterlimit:4;stroke-dasharray:none;stroke-dashoffset:0;stroke-opacity:1" />
  <text
     xml:space="preserve"
     style="font-size:12px;font-style:normal;font-variant:normal;font-weight:normal;font-stretch:normal;text-align:start;line-height:100%;writing-mode:lr-tb;text-anchor:start;fill:#000000;fill-opacity:1;stroke:none;stroke-width:1px;stroke-linecap:butt;stroke-linejoin:miter;stroke-opacity:1;font-family:Sans;-inkscape-font-specification:Sans"
     x="126.10454"
     y="174.13123"
     id="text2664"
     sodipodi:linespacing="100%"><tspan
       sodipodi:role="line"
       id="tspan2666"
       x="126.10454"
       y="174.13123">FiniteDifferenceImageFilter</tspan></text>
  <text
     xml:space="preserve"
     style="font-size:11.39527416px;font-style:normal;font-variant:normal;font-weight:normal;font-stretch:normal;text-align:start;line-height:100%;writing-mode:lr-tb;text-anchor:start;fill:#000000;fill-opacity:1;stroke:none;stroke-width:1px;stroke-linecap:butt;stroke-linejoin:miter;stroke-opacity:1;font-family:Sans;-inkscape-font-specification:Sans"
     x="93.490486"
     y="198.49426"
     id="text2673"
     sodipodi:linespacing="100%"
     transform="scale(0.9496061,1.0530682)"><tspan
       sodipodi:role="line"
       id="tspan2675"
       x="93.490486"
       y="198.49426">m_DifferenceFunction : FiniteDifferenceFunction</tspan></text>
  <text
     xml:space="preserve"
     style="font-size:10px;font-style:normal;font-variant:normal;font-weight:normal;font-stretch:normal;text-align:start;line-height:100%;writing-mode:lr-tb;text-anchor:start;fill:#000000;fill-opacity:1;stroke:none;stroke-width:1px;stroke-linecap:butt;stroke-linejoin:miter;stroke-opacity:1;font-family:Sans;-inkscape-font-specification:Sans"
     x="89.82531"
     y="238.77603"
     id="text2677"
     sodipodi:linespacing="100%"><tspan
       sodipodi:role="line"
       id="tspan2679"
       x="89.82531"
       y="238.77603">virtual GenerateData(  )</tspan></text>
  <g
     id="g2666"
     transform="matrix(0.9914579,0,0,1.0000704,3.7410055,-1.3237919e-2)">
    <rect
       y="157.49239"
       x="437.69983"
       height="25.959332"
       width="268.05606"
       id="rect2741"
       style="fill:#efefef;fill-opacity:1;stroke:none;stroke-width:0.21113917;stroke-miterlimit:4;stroke-dasharray:none;stroke-dashoffset:0;stroke-opacity:1" />
    <text
       transform="matrix(0.814543,0,0,0.829626,-47.329359,80.893966)"
       style="font-size:12px;fill:#000000;stroke:none;stroke-linejoin:round;stroke-miterlimit:0"
       id="text487"
       xml:space="preserve"
       clip-path="url(#clipPath41)"
       y="137"
       x="745"
       font-size="12">operations</text>
    <text
       transform="matrix(0.814543,0,0,0.829626,-47.329359,80.893966)"
       style="font-size:13px;fill:#000000;stroke:none;stroke-linejoin:round;stroke-miterlimit:0"
       id="text489"
       xml:space="preserve"
       clip-path="url(#clipPath42)"
       y="154"
       x="626">virtual ComputeUpdate(  )</text>
    <rect
       style="fill:none;fill-opacity:1;stroke:#000000;stroke-width:0.26602396;stroke-miterlimit:4;stroke-dasharray:none;stroke-dashoffset:0;stroke-opacity:1"
       id="rect3622"
       width="267.96445"
       height="61.002766"
       x="437.99301"
       y="157.43983" />
    <text
       sodipodi:linespacing="100%"
       id="text2743"
       y="174.70331"
       x="498.27982"
       style="font-size:12px;font-style:normal;font-variant:normal;font-weight:normal;font-stretch:normal;text-align:start;line-height:100%;writing-mode:lr-tb;text-anchor:start;fill:#000000;fill-opacity:1;stroke:none;stroke-width:1px;stroke-linecap:butt;stroke-linejoin:miter;stroke-opacity:1;font-family:Sans;-inkscape-font-specification:Sans"
       xml:space="preserve"><tspan
         y="174.70331"
         x="498.27982"
         id="tspan2745"
         sodipodi:role="line">FiniteDifferenceFunction</tspan></text>
  </g>
</svg>
