<?xml version="1.0" encoding="UTF-8"?><svg stroke-dasharray="none" shape-rendering="auto" xmlns="http://www.w3.org/2000/svg" font-family="'Dialog'" width="281" text-rendering="auto" fill-opacity="1" contentScriptType="text/ecmascript" color-interpolation="auto" color-rendering="auto" preserveAspectRatio="xMidYMid meet" font-size="12" viewBox="0 0 281 558" fill="black" xmlns:xlink="http://www.w3.org/1999/xlink" stroke="black" image-rendering="auto" stroke-miterlimit="10" zoomAndPan="magnify" version="1.0" stroke-linecap="square" stroke-linejoin="miter" contentStyleType="text/css" font-style="normal" height="558" stroke-width="1" stroke-dashoffset="0" font-weight="normal" stroke-opacity="1">
<!--Generated by the Batik Graphics2D SVG Generator-->
<defs id="genericDefs"/>
<g>
<defs id="defs1">
<clipPath clipPathUnits="userSpaceOnUse" id="clipPath1">
<path d="M9 9 L272 9 L272 549 L9 549 L9 9 Z"/>
</clipPath>
<clipPath clipPathUnits="userSpaceOnUse" id="clipPath2">
<path d="M9 9 L275 9 L275 28 L9 28 L9 9 Z"/>
</clipPath>
<clipPath clipPathUnits="userSpaceOnUse" id="clipPath3">
<path d="M48 35 L139 35 L139 87 L48 87 L48 35 Z"/>
</clipPath>
<clipPath clipPathUnits="userSpaceOnUse" id="clipPath4">
<path d="M48 52 L142 52 L142 71 L48 71 L48 52 Z"/>
</clipPath>
<clipPath clipPathUnits="userSpaceOnUse" id="clipPath5">
<path d="M48 100 L220 100 L220 152 L48 152 L48 100 Z"/>
</clipPath>
<clipPath clipPathUnits="userSpaceOnUse" id="clipPath6">
<path d="M48 117 L223 117 L223 136 L48 136 L48 117 Z"/>
</clipPath>
<clipPath clipPathUnits="userSpaceOnUse" id="clipPath7">
<path d="M48 165 L139 165 L139 217 L48 217 L48 165 Z"/>
</clipPath>
<clipPath clipPathUnits="userSpaceOnUse" id="clipPath8">
<path d="M48 182 L142 182 L142 201 L48 201 L48 182 Z"/>
</clipPath>
<clipPath clipPathUnits="userSpaceOnUse" id="clipPath9">
<path d="M48 230 L212 230 L212 282 L48 282 L48 230 Z"/>
</clipPath>
<clipPath clipPathUnits="userSpaceOnUse" id="clipPath10">
<path d="M48 247 L215 247 L215 266 L48 266 L48 247 Z"/>
</clipPath>
<clipPath clipPathUnits="userSpaceOnUse" id="clipPath11">
<path d="M48 295 L213 295 L213 347 L48 347 L48 295 Z"/>
</clipPath>
<clipPath clipPathUnits="userSpaceOnUse" id="clipPath12">
<path d="M48 312 L216 312 L216 331 L48 331 L48 312 Z"/>
</clipPath>
<clipPath clipPathUnits="userSpaceOnUse" id="clipPath13">
<path d="M100 399 L142 399 L142 441 L100 441 L100 399 Z"/>
</clipPath>
<clipPath clipPathUnits="userSpaceOnUse" id="clipPath14">
<path d="M100 490 L142 490 L142 532 L100 532 L100 490 Z"/>
</clipPath>
<clipPath clipPathUnits="userSpaceOnUse" id="clipPath15">
<path d="M204 503 L229 503 L229 528 L204 528 L204 503 Z"/>
</clipPath>
<clipPath clipPathUnits="userSpaceOnUse" id="clipPath16">
<path d="M208 507 L226 507 L226 525 L208 525 L208 507 Z"/>
</clipPath>
<clipPath clipPathUnits="userSpaceOnUse" id="clipPath17">
<path d="M-1 -1 L282 -1 L282 559 L-1 559 L-1 -1 Z"/>
</clipPath>
<clipPath clipPathUnits="userSpaceOnUse" id="clipPath18">
<path d="M83 86 L92 86 L92 103 L83 103 L83 86 Z"/>
</clipPath>
<clipPath clipPathUnits="userSpaceOnUse" id="clipPath19">
<path d="M6 85 L8 85 L8 104 L6 104 L6 85 Z"/>
</clipPath>
<clipPath clipPathUnits="userSpaceOnUse" id="clipPath20">
<path d="M82 151 L91 151 L91 168 L82 168 L82 151 Z"/>
</clipPath>
<clipPath clipPathUnits="userSpaceOnUse" id="clipPath21">
<path d="M5 150 L7 150 L7 169 L5 169 L5 150 Z"/>
</clipPath>
<clipPath clipPathUnits="userSpaceOnUse" id="clipPath22">
<path d="M87 216 L96 216 L96 233 L87 233 L87 216 Z"/>
</clipPath>
<clipPath clipPathUnits="userSpaceOnUse" id="clipPath23">
<path d="M10 215 L12 215 L12 234 L10 234 L10 215 Z"/>
</clipPath>
<clipPath clipPathUnits="userSpaceOnUse" id="clipPath24">
<path d="M117 281 L126 281 L126 298 L117 298 L117 281 Z"/>
</clipPath>
<clipPath clipPathUnits="userSpaceOnUse" id="clipPath25">
<path d="M40 280 L42 280 L42 299 L40 299 L40 280 Z"/>
</clipPath>
<clipPath clipPathUnits="userSpaceOnUse" id="clipPath26">
<path d="M117 385 L126 385 L126 402 L117 402 L117 385 Z"/>
</clipPath>
<clipPath clipPathUnits="userSpaceOnUse" id="clipPath27">
<path d="M59 360 L181 360 L181 379 L59 379 L59 360 Z"/>
</clipPath>
<clipPath clipPathUnits="userSpaceOnUse" id="clipPath28">
<path d="M40 364 L42 364 L42 383 L40 383 L40 364 Z"/>
</clipPath>
<clipPath clipPathUnits="userSpaceOnUse" id="clipPath29">
<path d="M210 248 L227 248 L227 257 L210 257 L210 248 Z"/>
</clipPath>
<clipPath clipPathUnits="userSpaceOnUse" id="clipPath30">
<path d="M152 399 L174 399 L174 418 L152 418 L152 399 Z"/>
</clipPath>
<clipPath clipPathUnits="userSpaceOnUse" id="clipPath31">
<path d="M114 476 L123 476 L123 493 L114 493 L114 476 Z"/>
</clipPath>
<clipPath clipPathUnits="userSpaceOnUse" id="clipPath32">
<path d="M46 451 L200 451 L200 470 L46 470 L46 451 Z"/>
</clipPath>
<clipPath clipPathUnits="userSpaceOnUse" id="clipPath33">
<path d="M37 457 L39 457 L39 476 L37 476 L37 457 Z"/>
</clipPath>
<clipPath clipPathUnits="userSpaceOnUse" id="clipPath34">
<path d="M34 185 L51 185 L51 194 L34 194 L34 185 Z"/>
</clipPath>
<clipPath clipPathUnits="userSpaceOnUse" id="clipPath35">
<path d="M61 490 L91 490 L91 509 L61 509 L61 490 Z"/>
</clipPath>
<clipPath clipPathUnits="userSpaceOnUse" id="clipPath36">
<path d="M99 366 L101 366 L101 385 L99 385 L99 366 Z"/>
</clipPath>
<clipPath clipPathUnits="userSpaceOnUse" id="clipPath37">
<path d="M190 505 L207 505 L207 514 L190 514 L190 505 Z"/>
</clipPath>
<clipPath clipPathUnits="userSpaceOnUse" id="clipPath38">
<path d="M152 490 L174 490 L174 509 L152 509 L152 490 Z"/>
</clipPath>
</defs>
<g fill="white" font-size="13" stroke-miterlimit="0" stroke="white" stroke-linejoin="round">
<rect x="10" y="10" clip-path="url(#clipPath1)" width="261" rx="9" ry="9" height="538" stroke="none"/>
<rect x="10" y="10" clip-path="url(#clipPath1)" fill="none" width="260" rx="9" ry="9" height="537" stroke="rgb(176,176,176)"/>
<text x="114" y="25" clip-path="url(#clipPath2)" fill="black" stroke="none" xml:space="preserve">Activity</text>
<rect x="49" y="36" clip-path="url(#clipPath3)" width="89" rx="8" ry="8" height="50" stroke="none"/>
<rect x="49" y="36" clip-path="url(#clipPath3)" fill="none" width="88" rx="8" ry="8" height="49" stroke="rgb(176,176,176)"/>
<text x="54" y="68" clip-path="url(#clipPath4)" fill="black" stroke="none" xml:space="preserve">Port to PPE</text>
<rect x="49" y="101" clip-path="url(#clipPath5)" width="170" rx="8" ry="8" height="50" stroke="none"/>
<rect x="49" y="101" clip-path="url(#clipPath5)" fill="none" width="169" rx="8" ry="8" height="49" stroke="rgb(176,176,176)"/>
<text x="54" y="133" clip-path="url(#clipPath6)" fill="black" stroke="none" xml:space="preserve">Find hotspots by profiler</text>
<rect x="49" y="166" clip-path="url(#clipPath7)" width="89" rx="8" ry="8" height="50" stroke="none"/>
<rect x="49" y="166" clip-path="url(#clipPath7)" fill="none" width="88" rx="8" ry="8" height="49" stroke="rgb(176,176,176)"/>
<text x="54" y="198" clip-path="url(#clipPath8)" fill="black" stroke="none" xml:space="preserve">Port to SPE</text>
<rect x="49" y="231" clip-path="url(#clipPath9)" width="162" rx="8" ry="8" height="50" stroke="none"/>
<rect x="49" y="231" clip-path="url(#clipPath9)" fill="none" width="161" rx="8" ry="8" height="49" stroke="rgb(176,176,176)"/>
<text x="54" y="263" clip-path="url(#clipPath10)" fill="black" stroke="none" xml:space="preserve">SIMDize the SPE code</text>
<rect x="49" y="296" clip-path="url(#clipPath11)" width="163" rx="8" ry="8" height="50" stroke="none"/>
<rect x="49" y="296" clip-path="url(#clipPath11)" fill="none" width="162" rx="8" ry="8" height="49" stroke="rgb(176,176,176)"/>
<text x="54" y="328" clip-path="url(#clipPath12)" fill="black" stroke="none" xml:space="preserve">Data transfers tunning</text>
<polygon clip-path="url(#clipPath13)" points=" 120 400 140 419 120 439 101 419" stroke="none"/>
<polygon fill="none" clip-path="url(#clipPath13)" points=" 120 400 140 419 120 439 101 419" stroke="rgb(176,176,176)"/>
<polygon clip-path="url(#clipPath14)" points=" 120 491 140 510 120 530 101 510" stroke="none"/>
<polygon fill="none" clip-path="url(#clipPath14)" points=" 120 491 140 510 120 530 101 510" stroke="rgb(176,176,176)"/>
<circle r="11" clip-path="url(#clipPath15)" cx="216" cy="515" stroke="none"/>
<circle clip-path="url(#clipPath15)" fill="none" r="11" cx="216" cy="515" stroke="black"/>
<line clip-path="url(#clipPath16)" fill="none" x1="209" x2="224" y1="508" y2="523" stroke="black"/>
<line clip-path="url(#clipPath16)" fill="none" x1="209" x2="224" y1="523" y2="508" stroke="black"/>
<line clip-path="url(#clipPath17)" fill="none" x1="87" x2="87" y1="86" y2="101" stroke="black"/>
<line clip-path="url(#clipPath18)" fill="none" x1="90" x2="87" y1="87" y2="101" stroke="black"/>
<line clip-path="url(#clipPath18)" fill="none" x1="87" x2="84" y1="101" y2="87" stroke="black"/>
<text x="7" y="99" clip-path="url(#clipPath19)" fill="black" stroke="none" xml:space="preserve"/>
<line clip-path="url(#clipPath17)" fill="none" x1="86" x2="86" y1="151" y2="166" stroke="black"/>
<line clip-path="url(#clipPath20)" fill="none" x1="89" x2="86" y1="152" y2="166" stroke="black"/>
<line clip-path="url(#clipPath20)" fill="none" x1="86" x2="83" y1="166" y2="152" stroke="black"/>
<text x="6" y="164" clip-path="url(#clipPath21)" fill="black" stroke="none" xml:space="preserve"/>
<line clip-path="url(#clipPath17)" fill="none" x1="91" x2="91" y1="216" y2="231" stroke="black"/>
<line clip-path="url(#clipPath22)" fill="none" x1="94" x2="91" y1="217" y2="231" stroke="black"/>
<line clip-path="url(#clipPath22)" fill="none" x1="91" x2="88" y1="231" y2="217" stroke="black"/>
<text x="11" y="229" clip-path="url(#clipPath23)" fill="black" stroke="none" xml:space="preserve"/>
<line clip-path="url(#clipPath17)" fill="none" x1="121" x2="121" y1="281" y2="296" stroke="black"/>
<line clip-path="url(#clipPath24)" fill="none" x1="124" x2="121" y1="282" y2="296" stroke="black"/>
<line clip-path="url(#clipPath24)" fill="none" x1="121" x2="118" y1="296" y2="282" stroke="black"/>
<text x="41" y="294" clip-path="url(#clipPath25)" fill="black" stroke="none" xml:space="preserve"/>
<line clip-path="url(#clipPath17)" fill="none" x1="121" x2="121" y1="346" y2="400" stroke="black"/>
<line clip-path="url(#clipPath26)" fill="none" x1="124" x2="121" y1="386" y2="400" stroke="black"/>
<line clip-path="url(#clipPath26)" fill="none" x1="121" x2="118" y1="400" y2="386" stroke="black"/>
<text x="60" y="376" clip-path="url(#clipPath27)" fill="black" stroke="none" xml:space="preserve">performance OK?</text>
<text x="41" y="378" clip-path="url(#clipPath28)" fill="black" stroke="none" xml:space="preserve"/>
<line clip-path="url(#clipPath17)" fill="none" x1="141" x2="257" y1="418" y2="418" stroke="black"/>
<line clip-path="url(#clipPath17)" fill="none" x1="257" x2="257" y1="418" y2="252" stroke="black"/>
<line clip-path="url(#clipPath17)" fill="none" x1="257" x2="211" y1="252" y2="252" stroke="black"/>
<line clip-path="url(#clipPath29)" fill="none" x1="225" x2="211" y1="255" y2="252" stroke="black"/>
<line clip-path="url(#clipPath29)" fill="none" x1="211" x2="225" y1="252" y2="249" stroke="black"/>
<text x="153" y="415" clip-path="url(#clipPath30)" fill="black" stroke="none" xml:space="preserve">no</text>
<line clip-path="url(#clipPath17)" fill="none" x1="118" x2="118" y1="440" y2="491" stroke="black"/>
<line clip-path="url(#clipPath31)" fill="none" x1="121" x2="118" y1="477" y2="491" stroke="black"/>
<line clip-path="url(#clipPath31)" fill="none" x1="118" x2="115" y1="491" y2="477" stroke="black"/>
<text x="47" y="467" clip-path="url(#clipPath32)" fill="black" stroke="none" xml:space="preserve">yes, another hotspot?</text>
<text x="38" y="471" clip-path="url(#clipPath33)" fill="black" stroke="none" xml:space="preserve"/>
<line clip-path="url(#clipPath17)" fill="none" x1="101" x2="20" y1="509" y2="509" stroke="black"/>
<line clip-path="url(#clipPath17)" fill="none" x1="20" x2="20" y1="509" y2="189" stroke="black"/>
<line clip-path="url(#clipPath17)" fill="none" x1="20" x2="49" y1="189" y2="189" stroke="black"/>
<line clip-path="url(#clipPath34)" fill="none" x1="35" x2="49" y1="186" y2="189" stroke="black"/>
<line clip-path="url(#clipPath34)" fill="none" x1="49" x2="35" y1="189" y2="192" stroke="black"/>
<text x="62" y="506" clip-path="url(#clipPath35)" fill="black" stroke="none" xml:space="preserve">yes</text>
<text x="100" y="380" clip-path="url(#clipPath36)" fill="black" stroke="none" xml:space="preserve"/>
<line clip-path="url(#clipPath17)" fill="none" x1="141" x2="205" y1="509" y2="509" stroke="black"/>
<line clip-path="url(#clipPath37)" fill="none" x1="191" x2="205" y1="506" y2="509" stroke="black"/>
<line clip-path="url(#clipPath37)" fill="none" x1="205" x2="191" y1="509" y2="512" stroke="black"/>
<text x="153" y="506" clip-path="url(#clipPath38)" fill="black" stroke="none" xml:space="preserve">no</text>
</g>
</g>
</svg>