<?xml version="1.0" encoding="UTF-8" standalone="no"?>
<svg
   xmlns:dc="http://purl.org/dc/elements/1.1/"
   xmlns:cc="http://creativecommons.org/ns#"
   xmlns:rdf="http://www.w3.org/1999/02/22-rdf-syntax-ns#"
   xmlns:svg="http://www.w3.org/2000/svg"
   xmlns="http://www.w3.org/2000/svg"
   xmlns:sodipodi="http://sodipodi.sourceforge.net/DTD/sodipodi-0.dtd"
   xmlns:inkscape="http://www.inkscape.org/namespaces/inkscape"
   shape-rendering="auto"
   width="744.09448"
   text-rendering="auto"
   contentScriptType="text/ecmascript"
   color-rendering="auto"
   color-interpolation="auto"
   preserveAspectRatio="xMidYMid meet"
   font-size="12"
   viewBox="0 0 620 620"
   image-rendering="auto"
   stroke-miterlimit="10"
   zoomAndPan="magnify"
   version="1.0"
   contentStyleType="text/css"
   font-style="normal"
   height="1052.3622"
   font-weight="normal"
   id="svg2"
   sodipodi:version="0.32"
   inkscape:version="0.46"
   sodipodi:docname="portingCycle.svg"
   inkscape:output_extension="org.inkscape.output.svg.inkscape"
   style="font-size:12px;font-style:normal;font-weight:normal;fill:#000000;fill-opacity:1;stroke:#000000;stroke-width:1;stroke-linecap:square;stroke-linejoin:miter;stroke-miterlimit:10;stroke-dasharray:none;stroke-dashoffset:0;stroke-opacity:1;font-family:Dialog">
  <metadata
     id="metadata183">
    <rdf:RDF>
      <cc:Work
         rdf:about="">
        <dc:format>image/svg+xml</dc:format>
        <dc:type
           rdf:resource="http://purl.org/dc/dcmitype/StillImage" />
      </cc:Work>
    </rdf:RDF>
  </metadata>
  <sodipodi:namedview
     inkscape:window-height="850"
     inkscape:window-width="1440"
     inkscape:pageshadow="2"
     inkscape:pageopacity="0.0"
     guidetolerance="10.0"
     gridtolerance="10.0"
     objecttolerance="10.0"
     borderopacity="1.0"
     bordercolor="#666666"
     pagecolor="#ffffff"
     id="base"
     showgrid="false"
     inkscape:zoom="2.2720588"
     inkscape:cx="284.41645"
     inkscape:cy="803.38551"
     inkscape:window-x="-5"
     inkscape:window-y="-3"
     inkscape:current-layer="svg2" />
<!--Generated by the Batik Graphics2D SVG Generator-->  <defs
     id="genericDefs">
    <inkscape:perspective
       sodipodi:type="inkscape:persp3d"
       inkscape:vp_x="0 : 310 : 1"
       inkscape:vp_y="0 : 1000 : 0"
       inkscape:vp_z="620 : 310 : 1"
       inkscape:persp3d-origin="310 : 206.66667 : 1"
       id="perspective185" />
    <defs
       id="defs1">
      <clipPath
         id="clipPath1"
         clipPathUnits="userSpaceOnUse">
        <path
           id="path9"
           d="M 9,9 L 611,9 L 611,611 L 9,611 L 9,9 z" />
      </clipPath>
      <clipPath
         id="clipPath2"
         clipPathUnits="userSpaceOnUse">
        <path
           id="path12"
           d="M 9,9 L 614,9 L 614,28 L 9,28 L 9,9 z" />
      </clipPath>
      <clipPath
         id="clipPath3"
         clipPathUnits="userSpaceOnUse">
        <path
           id="path15"
           d="M 79,143 L 306,143 L 306,195 L 79,195 L 79,143 z" />
      </clipPath>
      <clipPath
         id="clipPath4"
         clipPathUnits="userSpaceOnUse">
        <path
           id="path18"
           d="M 125,157 L 263,157 L 263,181 L 125,181 L 125,157 z" />
      </clipPath>
      <clipPath
         id="clipPath5"
         clipPathUnits="userSpaceOnUse">
        <path
           id="path21"
           d="M 79,303 L 306,303 L 306,354 L 79,354 L 79,303 z" />
      </clipPath>
      <clipPath
         id="clipPath6"
         clipPathUnits="userSpaceOnUse">
        <path
           id="path24"
           d="M 81,316 L 307,316 L 307,340 L 81,340 L 81,316 z" />
      </clipPath>
      <clipPath
         id="clipPath7"
         clipPathUnits="userSpaceOnUse">
        <path
           id="path27"
           d="M 79,219 L 306,219 L 306,270 L 79,270 L 79,219 z" />
      </clipPath>
      <clipPath
         id="clipPath8"
         clipPathUnits="userSpaceOnUse">
        <path
           id="path30"
           d="M 122,232 L 267,232 L 267,256 L 122,256 L 122,232 z" />
      </clipPath>
      <clipPath
         id="clipPath9"
         clipPathUnits="userSpaceOnUse">
        <path
           id="path33"
           d="M 79,65 L 306,65 L 306,117 L 79,117 L 79,65 z" />
      </clipPath>
      <clipPath
         id="clipPath10"
         clipPathUnits="userSpaceOnUse">
        <path
           id="path36"
           d="M 134,79 L 255,79 L 255,103 L 134,103 L 134,79 z" />
      </clipPath>
      <clipPath
         id="clipPath11"
         clipPathUnits="userSpaceOnUse">
        <path
           id="path39"
           d="M 163,387 L 208,387 L 208,432 L 163,432 L 163,387 z" />
      </clipPath>
      <clipPath
         id="clipPath12"
         clipPathUnits="userSpaceOnUse">
        <path
           id="path42"
           d="M -1,-1 L 621,-1 L 621,621 L -1,621 L -1,-1 z" />
      </clipPath>
      <clipPath
         id="clipPath13"
         clipPathUnits="userSpaceOnUse">
        <path
           id="path45"
           d="M 182,205 L 191,205 L 191,222 L 182,222 L 182,205 z" />
      </clipPath>
      <clipPath
         id="clipPath14"
         clipPathUnits="userSpaceOnUse">
        <path
           id="path48"
           d="M 105,198 L 107,198 L 107,217 L 105,217 L 105,198 z" />
      </clipPath>
      <clipPath
         id="clipPath15"
         clipPathUnits="userSpaceOnUse">
        <path
           id="path51"
           d="M 181,373 L 190,373 L 190,390 L 181,390 L 181,373 z" />
      </clipPath>
      <clipPath
         id="clipPath16"
         clipPathUnits="userSpaceOnUse">
        <path
           id="path54"
           d="M 104,362 L 106,362 L 106,381 L 104,381 L 104,362 z" />
      </clipPath>
      <clipPath
         id="clipPath17"
         clipPathUnits="userSpaceOnUse">
        <path
           id="path57"
           d="M 184,289 L 193,289 L 193,306 L 184,306 L 184,289 z" />
      </clipPath>
      <clipPath
         id="clipPath18"
         clipPathUnits="userSpaceOnUse">
        <path
           id="path60"
           d="M 107,278 L 109,278 L 109,297 L 107,297 L 107,278 z" />
      </clipPath>
      <clipPath
         id="clipPath19"
         clipPathUnits="userSpaceOnUse">
        <path
           id="path63"
           d="M 182,129 L 191,129 L 191,146 L 182,146 L 182,129 z" />
      </clipPath>
      <clipPath
         id="clipPath20"
         clipPathUnits="userSpaceOnUse">
        <path
           id="path66"
           d="M 105,121 L 107,121 L 107,140 L 105,140 L 105,121 z" />
      </clipPath>
      <clipPath
         id="clipPath21"
         clipPathUnits="userSpaceOnUse">
        <path
           id="path69"
           d="M 304,239 L 321,239 L 321,248 L 304,248 L 304,239 z" />
      </clipPath>
      <clipPath
         id="clipPath22"
         clipPathUnits="userSpaceOnUse">
        <path
           id="path72"
           d="M 219,415 L 343,415 L 343,434 L 219,434 L 219,415 z" />
      </clipPath>
      <clipPath
         id="clipPath23"
         clipPathUnits="userSpaceOnUse">
        <path
           id="path75"
           d="M 404,365 L 406,365 L 406,384 L 404,384 L 404,365 z" />
      </clipPath>
      <clipPath
         id="clipPath24"
         clipPathUnits="userSpaceOnUse">
        <path
           id="path78"
           d="M 65,161 L 82,161 L 82,170 L 65,170 L 65,161 z" />
      </clipPath>
      <clipPath
         id="clipPath25"
         clipPathUnits="userSpaceOnUse">
        <path
           id="path81"
           d="M 51,415 L 166,415 L 166,434 L 51,434 L 51,415 z" />
      </clipPath>
      <clipPath
         id="clipPath26"
         clipPathUnits="userSpaceOnUse">
        <path
           id="path84"
           d="M 141,320 L 143,320 L 143,339 L 141,339 L 141,320 z" />
      </clipPath>
    </defs>
  </defs>
  <rect
     x="80"
     y="144"
     clip-path="url(#clipPath3)"
     width="225"
     rx="8"
     ry="8"
     height="50"
     id="rect94"
     style="font-size:14px;fill:#ffffff;stroke:none;stroke-linejoin:round;stroke-miterlimit:0"
     transform="matrix(0.6246519,0,0,0.6246519,175.71944,-90.326786)" />
  <rect
     x="80"
     y="144"
     clip-path="url(#clipPath3)"
     width="224"
     rx="8"
     ry="8"
     height="49"
     id="rect96"
     style="font-size:14px;fill:none;stroke:#b0b0b0;stroke-linejoin:round;stroke-miterlimit:0"
     transform="matrix(0.6246519,0,0,0.6246519,175.71944,-90.326786)" />
  <rect
     x="80"
     y="304"
     clip-path="url(#clipPath5)"
     width="225"
     rx="8"
     ry="8"
     height="49"
     id="rect100"
     style="font-size:14px;fill:#ffffff;stroke:none;stroke-linejoin:round;stroke-miterlimit:0"
     transform="matrix(0.6246519,0,0,0.6246519,175.71944,-90.326786)" />
  <rect
     x="80"
     y="304"
     clip-path="url(#clipPath5)"
     width="224"
     rx="8"
     ry="8"
     height="48"
     id="rect102"
     style="font-size:14px;fill:none;stroke:#b0b0b0;stroke-linejoin:round;stroke-miterlimit:0"
     transform="matrix(0.6246519,0,0,0.6246519,175.71944,-90.326786)" />
  <text
     x="87"
     font-size="18"
     y="337"
     clip-path="url(#clipPath6)"
     xml:space="preserve"
     id="text104"
     style="font-size:18px;fill:#000000;stroke:none;stroke-linejoin:round;stroke-miterlimit:0"
     transform="matrix(0.6246519,0,0,0.6246519,175.71944,-90.326786)"
     sodipodi:linespacing="100%"><tspan
       style="text-anchor:start;text-align:start;writing-mode:lr;line-height:100%"
       id="tspan2732">optimize data transfer</tspan></text>
  <rect
     x="80"
     y="220"
     clip-path="url(#clipPath7)"
     width="225"
     rx="8"
     ry="8"
     height="49"
     id="rect106"
     style="font-size:14px;fill:#ffffff;stroke:none;stroke-linejoin:round;stroke-miterlimit:0"
     transform="matrix(0.6246519,0,0,0.6246519,175.71944,-90.326786)" />
  <rect
     x="80"
     y="220"
     clip-path="url(#clipPath7)"
     width="224"
     rx="8"
     ry="8"
     height="48"
     id="rect108"
     style="font-size:14px;fill:none;stroke:#b0b0b0;stroke-linejoin:round;stroke-miterlimit:0"
     transform="matrix(0.6246519,0,0,0.6246519,175.71944,-90.326786)" />
  <text
     x="128"
     font-size="18"
     y="253"
     clip-path="url(#clipPath8)"
     xml:space="preserve"
     id="text110"
     style="font-size:18px;fill:#000000;stroke:none;stroke-linejoin:round;stroke-miterlimit:0"
     transform="matrix(0.6246519,0,0,0.6246519,175.71944,-90.326786)">optimize code</text>
  <rect
     x="80"
     y="66"
     clip-path="url(#clipPath9)"
     width="225"
     rx="8"
     ry="8"
     height="50"
     id="rect112"
     style="font-size:14px;fill:#ffffff;stroke:none;stroke-linejoin:round;stroke-miterlimit:0"
     transform="matrix(0.6246519,0,0,0.6246519,175.71944,-140.0706)" />
  <rect
     x="80"
     y="66"
     clip-path="url(#clipPath9)"
     width="224"
     rx="8"
     ry="8"
     height="49"
     id="rect114"
     style="font-size:14px;fill:none;stroke:#b0b0b0;stroke-linejoin:round;stroke-miterlimit:0"
     transform="matrix(0.6246519,0,0,0.6246519,175.71944,-140.0706)" />
  <text
     x="140"
     font-size="18"
     y="100"
     clip-path="url(#clipPath10)"
     xml:space="preserve"
     id="text116"
     style="font-size:18px;fill:#000000;stroke:none;stroke-linejoin:round;stroke-miterlimit:0"
     transform="matrix(0.6246519,0,0,0.6246519,175.71944,-140.0706)">port to PPE</text>
  <polygon
     clip-path="url(#clipPath11)"
     points="184,388 205,408 184,429 164,408 184,388 "
     id="polygon118"
     style="font-size:14px;fill:#ffffff;stroke:none;stroke-linejoin:round;stroke-miterlimit:0"
     transform="matrix(0.6246519,0,0,0.6246519,175.71913,-90.326786)" />
  <polygon
     clip-path="url(#clipPath11)"
     points="184,388 205,408 184,429 164,408 184,388 "
     id="polygon120"
     style="font-size:14px;fill:none;stroke:#b0b0b0;stroke-linejoin:round;stroke-miterlimit:0"
     transform="matrix(0.6246519,0,0,0.6246519,175.71913,-90.326786)" />
  <line
     clip-path="url(#clipPath12)"
     x1="186"
     x2="186"
     y1="194"
     y2="220"
     id="line122"
     style="font-size:14px;fill:none;stroke:#000000;stroke-linejoin:round;stroke-miterlimit:0"
     transform="matrix(0.6246519,0,0,0.6246519,175.71944,-90.326786)" />
  <line
     clip-path="url(#clipPath13)"
     x1="189"
     x2="186"
     y1="206"
     y2="220"
     id="line124"
     style="font-size:14px;fill:none;stroke:#000000;stroke-linejoin:round;stroke-miterlimit:0"
     transform="matrix(0.6246519,0,0,0.6246519,175.71944,-90.326786)" />
  <line
     clip-path="url(#clipPath13)"
     x1="186"
     x2="183"
     y1="220"
     y2="206"
     id="line126"
     style="font-size:14px;fill:none;stroke:#000000;stroke-linejoin:round;stroke-miterlimit:0"
     transform="matrix(0.6246519,0,0,0.6246519,175.71944,-90.326786)" />
  <text
     x="106"
     y="213"
     clip-path="url(#clipPath14)"
     xml:space="preserve"
     id="text128"
     style="font-size:14px;fill:#000000;stroke:none;stroke-linejoin:round;stroke-miterlimit:0" />
  <line
     clip-path="url(#clipPath12)"
     x1="185"
     x2="185"
     y1="353"
     y2="388"
     id="line130"
     style="font-size:14px;fill:none;stroke:#000000;stroke-linejoin:round;stroke-miterlimit:0"
     transform="matrix(0.6246519,0,0,0.6246519,174.9699,-90.326786)" />
  <line
     clip-path="url(#clipPath15)"
     x1="188"
     x2="185"
     y1="374"
     y2="388"
     id="line132"
     style="font-size:14px;fill:none;stroke:#000000;stroke-linejoin:round;stroke-miterlimit:0"
     transform="matrix(0.6246519,0,0,0.6246519,174.9699,-90.326786)" />
  <line
     clip-path="url(#clipPath15)"
     x1="185"
     x2="182"
     y1="388"
     y2="374"
     id="line134"
     style="font-size:14px;fill:none;stroke:#000000;stroke-linejoin:round;stroke-miterlimit:0"
     transform="matrix(0.6246519,0,0,0.6246519,174.9699,-90.326786)" />
  <text
     x="105"
     y="377"
     clip-path="url(#clipPath16)"
     xml:space="preserve"
     id="text136"
     style="font-size:14px;fill:#000000;stroke:none;stroke-linejoin:round;stroke-miterlimit:0" />
  <line
     clip-path="url(#clipPath12)"
     x1="188"
     x2="188"
     y1="269"
     y2="304"
     id="line138"
     style="font-size:14px;fill:none;stroke:#000000;stroke-linejoin:round;stroke-miterlimit:0"
     transform="matrix(0.6246519,0,0,0.6246519,174.05332,-90.326786)" />
  <line
     clip-path="url(#clipPath17)"
     x1="191"
     x2="188"
     y1="290"
     y2="304"
     id="line140"
     style="font-size:14px;fill:none;stroke:#000000;stroke-linejoin:round;stroke-miterlimit:0"
     transform="matrix(0.6246519,0,0,0.6246519,174.05332,-90.326786)" />
  <line
     clip-path="url(#clipPath17)"
     x1="188"
     x2="185"
     y1="304"
     y2="290"
     id="line142"
     style="font-size:14px;fill:none;stroke:#000000;stroke-linejoin:round;stroke-miterlimit:0"
     transform="matrix(0.6246519,0,0,0.6246519,174.05332,-90.326786)" />
  <text
     x="108"
     y="293"
     clip-path="url(#clipPath18)"
     xml:space="preserve"
     id="text144"
     style="font-size:14px;fill:#000000;stroke:none;stroke-linejoin:round;stroke-miterlimit:0" />
  <line
     clip-path="url(#clipPath12)"
     x1="186"
     x2="186"
     y1="116"
     y2="144"
     id="line146"
     style="font-size:14px;fill:none;stroke:#000000;stroke-linejoin:round;stroke-miterlimit:0"
     transform="matrix(0.6246519,0,0,0.6246519,175.71944,-140.0706)" />
  <line
     clip-path="url(#clipPath19)"
     x1="189"
     x2="186"
     y1="130"
     y2="144"
     id="line148"
     style="font-size:14px;fill:none;stroke:#000000;stroke-linejoin:round;stroke-miterlimit:0"
     transform="matrix(0.6246519,0,0,0.6246519,175.71944,-140.0706)" />
  <line
     clip-path="url(#clipPath19)"
     x1="186"
     x2="183"
     y1="144"
     y2="130"
     id="line150"
     style="font-size:14px;fill:none;stroke:#000000;stroke-linejoin:round;stroke-miterlimit:0"
     transform="matrix(0.6246519,0,0,0.6246519,175.71944,-140.0706)" />
  <text
     x="106"
     y="136"
     clip-path="url(#clipPath20)"
     xml:space="preserve"
     id="text152"
     style="font-size:14px;fill:#000000;stroke:none;stroke-linejoin:round;stroke-miterlimit:0" />
  <line
     clip-path="url(#clipPath12)"
     x1="207"
     x2="325"
     y1="408"
     y2="408"
     id="line154"
     style="font-size:14px;fill:none;stroke:#000000;stroke-linejoin:round;stroke-miterlimit:0"
     transform="matrix(0.6339301,0,0,0.6246519,172.6994,-90.326786)" />
  <line
     clip-path="url(#clipPath12)"
     x1="325"
     x2="325"
     y1="408"
     y2="243"
     id="line156"
     style="font-size:14px;fill:none;stroke:#000000;stroke-linejoin:round;stroke-miterlimit:0"
     transform="matrix(0.6246519,0,0,0.6246519,175.71944,-90.326786)" />
  <line
     clip-path="url(#clipPath12)"
     x1="325"
     x2="305"
     y1="243"
     y2="243"
     id="line158"
     style="font-size:14px;fill:none;stroke:#000000;stroke-linejoin:round;stroke-miterlimit:0"
     transform="matrix(0.6246519,0,0,0.6246519,175.71944,-90.326786)" />
  <line
     clip-path="url(#clipPath21)"
     x1="319"
     x2="305"
     y1="246"
     y2="243"
     id="line160"
     style="font-size:14px;fill:none;stroke:#000000;stroke-linejoin:round;stroke-miterlimit:0"
     transform="matrix(0.6246519,0,0,0.6246519,175.71944,-90.326786)" />
  <line
     clip-path="url(#clipPath21)"
     x1="305"
     x2="319"
     y1="243"
     y2="240"
     id="line162"
     style="font-size:14px;fill:none;stroke:#000000;stroke-linejoin:round;stroke-miterlimit:0"
     transform="matrix(0.6246519,0,0,0.6246519,175.71944,-90.326786)" />
  <text
     x="220"
     y="432"
     clip-path="url(#clipPath22)"
     xml:space="preserve"
     id="text164"
     style="font-size:14px;line-height:125%;fill:#000000;stroke:none;stroke-linejoin:round;stroke-miterlimit:0"
     transform="matrix(0.6246519,0,0,0.6246519,173.63753,-90.326786)"
     sodipodi:linespacing="125%"><tspan
       style="text-align:start;line-height:125%;writing-mode:lr-tb;text-anchor:start"
       id="tspan2710">perf. poor</tspan></text>
  <text
     x="405"
     y="380"
     clip-path="url(#clipPath23)"
     xml:space="preserve"
     id="text166"
     style="font-size:14px;fill:#000000;stroke:none;stroke-linejoin:round;stroke-miterlimit:0" />
  <line
     clip-path="url(#clipPath12)"
     x1="164"
     x2="62"
     y1="410"
     y2="410"
     id="line168"
     style="font-size:14px;fill:none;stroke:#000000;stroke-linejoin:round;stroke-miterlimit:0"
     transform="matrix(0.6282251,0,0,0.6246519,175.49969,-91.327019)" />
  <line
     clip-path="url(#clipPath12)"
     x1="62"
     x2="62"
     y1="410"
     y2="165"
     id="line170"
     style="font-size:14px;fill:none;stroke:#000000;stroke-linejoin:round;stroke-miterlimit:0"
     transform="matrix(0.6246519,0,0,0.8110036,175.71944,-167.55685)" />
  <line
     clip-path="url(#clipPath12)"
     x1="62"
     x2="80"
     y1="165"
     y2="165"
     id="line172"
     style="font-size:14px;fill:none;stroke:#000000;stroke-linejoin:round;stroke-miterlimit:0"
     transform="matrix(0.6246519,0,0,0.6246519,175.71944,-136.98764)" />
  <line
     clip-path="url(#clipPath24)"
     x1="66"
     x2="80"
     y1="162"
     y2="165"
     id="line174"
     style="font-size:14px;fill:none;stroke:#000000;stroke-linejoin:round;stroke-miterlimit:0"
     transform="matrix(0.6246519,0,0,0.6246519,175.71944,-136.98764)" />
  <line
     clip-path="url(#clipPath24)"
     x1="80"
     x2="66"
     y1="165"
     y2="168"
     id="line176"
     style="font-size:14px;fill:none;stroke:#000000;stroke-linejoin:round;stroke-miterlimit:0"
     transform="matrix(0.6246519,0,0,0.6246519,175.71944,-136.98764)" />
  <text
     x="52"
     y="432"
     clip-path="url(#clipPath25)"
     xml:space="preserve"
     id="text178"
     style="font-size:14px;fill:#000000;stroke:none;stroke-linejoin:round;stroke-miterlimit:0"
     transform="matrix(0.6246519,0,0,0.6246519,175.71944,-90.326786)">another hotspot</text>
  <text
     x="142"
     y="335"
     clip-path="url(#clipPath26)"
     xml:space="preserve"
     id="text180"
     style="font-size:14px;fill:#000000;stroke:none;stroke-linejoin:round;stroke-miterlimit:0" />
  <text
     sodipodi:linespacing="100%"
     transform="matrix(0.6246519,0,0,0.6246519,205.68335,-191.17698)"
     style="font-size:18px;text-align:start;line-height:100%;writing-mode:lr-tb;text-anchor:start;fill:#000000;stroke:none;stroke-linejoin:round;stroke-miterlimit:0"
     id="text2479"
     xml:space="preserve"
     clip-path="url(#clipPath6)"
     y="337"
     font-size="18"
     x="87"><tspan
       sodipodi:role="line"
       id="tspan2497"
       x="87"
       y="337">port to SPE</tspan></text>
  <rect
     transform="matrix(0.6246519,0,0,0.6246519,175.71944,-90.32679)"
     style="font-size:14px;fill:#ffffff;stroke:none;stroke-linejoin:round;stroke-miterlimit:0"
     id="rect2485"
     height="50"
     ry="8"
     rx="8"
     width="225"
     clip-path="url(#clipPath9)"
     y="66"
     x="80" />
  <rect
     transform="matrix(0.6246519,0,0,0.6246519,175.71944,-90.32679)"
     style="font-size:14px;fill:none;stroke:#b0b0b0;stroke-linejoin:round;stroke-miterlimit:0"
     id="rect2487"
     height="49"
     ry="8"
     rx="8"
     width="224"
     clip-path="url(#clipPath9)"
     y="66"
     x="80" />
  <text
     transform="matrix(0.6246519,0,0,0.6246519,175.71944,-90.32679)"
     style="font-size:18px;fill:#000000;stroke:none;stroke-linejoin:round;stroke-miterlimit:0;text-anchor:start;text-align:start;writing-mode:lr;line-height:125%"
     id="text2489"
     xml:space="preserve"
     clip-path="url(#clipPath10)"
     y="100"
     font-size="18"
     x="140"
     sodipodi:linespacing="125%"><tspan
       sodipodi:role="line"
       id="tspan2499">find hotspot</tspan></text>
  <line
     transform="matrix(0.6246519,0,0,0.6246519,175.71944,-90.32679)"
     style="font-size:14px;fill:none;stroke:#000000;stroke-linejoin:round;stroke-miterlimit:0"
     id="line2491"
     y2="144"
     y1="116"
     x2="186"
     x1="186"
     clip-path="url(#clipPath12)" />
  <line
     transform="matrix(0.6246519,0,0,0.6246519,175.71944,-90.32679)"
     style="font-size:14px;fill:none;stroke:#000000;stroke-linejoin:round;stroke-miterlimit:0"
     id="line2493"
     y2="144"
     y1="130"
     x2="186"
     x1="189"
     clip-path="url(#clipPath19)" />
  <line
     transform="matrix(0.6246519,0,0,0.6246519,175.71944,-90.32679)"
     style="font-size:14px;fill:none;stroke:#000000;stroke-linejoin:round;stroke-miterlimit:0"
     id="line2495"
     y2="130"
     y1="144"
     x2="183"
     x1="186"
     clip-path="url(#clipPath19)" />
</svg>
