<?xml version="1.0" encoding="UTF-8" standalone="no"?>
<svg
   xmlns:dc="http://purl.org/dc/elements/1.1/"
   xmlns:cc="http://creativecommons.org/ns#"
   xmlns:rdf="http://www.w3.org/1999/02/22-rdf-syntax-ns#"
   xmlns:svg="http://www.w3.org/2000/svg"
   xmlns="http://www.w3.org/2000/svg"
   xmlns:sodipodi="http://sodipodi.sourceforge.net/DTD/sodipodi-0.dtd"
   xmlns:inkscape="http://www.inkscape.org/namespaces/inkscape"
   stroke-dasharray="none"
   shape-rendering="auto"
   font-family="'Dialog'"
   width="476"
   text-rendering="auto"
   fill-opacity="1"
   contentScriptType="text/ecmascript"
   color-interpolation="auto"
   color-rendering="auto"
   preserveAspectRatio="xMidYMid meet"
   font-size="12"
   viewBox="0 0 476 372"
   fill="black"
   stroke="black"
   image-rendering="auto"
   stroke-miterlimit="10"
   zoomAndPan="magnify"
   version="1.0"
   stroke-linecap="square"
   stroke-linejoin="miter"
   contentStyleType="text/css"
   font-style="normal"
   height="372"
   stroke-width="1"
   stroke-dashoffset="0"
   font-weight="normal"
   stroke-opacity="1"
   id="svg2"
   sodipodi:version="0.32"
   inkscape:version="0.46"
   sodipodi:docname="PPUCentricModel.svg"
   inkscape:output_extension="org.inkscape.output.svg.inkscape">
  <metadata
     id="metadata245">
    <rdf:RDF>
      <cc:Work
         rdf:about="">
        <dc:format>image/svg+xml</dc:format>
        <dc:type
           rdf:resource="http://purl.org/dc/dcmitype/StillImage" />
      </cc:Work>
    </rdf:RDF>
  </metadata>
  <sodipodi:namedview
     inkscape:window-height="740"
     inkscape:window-width="1280"
     inkscape:pageshadow="2"
     inkscape:pageopacity="0.0"
     guidetolerance="10.0"
     gridtolerance="10.0"
     objecttolerance="10.0"
     borderopacity="1.0"
     bordercolor="#666666"
     pagecolor="#ffffff"
     id="base"
     showgrid="false"
     inkscape:zoom="1.1365546"
     inkscape:cx="238"
     inkscape:cy="186"
     inkscape:window-x="-5"
     inkscape:window-y="-3"
     inkscape:current-layer="svg2" />
<!--Generated by the Batik Graphics2D SVG Generator-->  <defs
     id="genericDefs">
    <inkscape:perspective
       sodipodi:type="inkscape:persp3d"
       inkscape:vp_x="0 : 186 : 1"
       inkscape:vp_y="0 : 1000 : 0"
       inkscape:vp_z="476 : 186 : 1"
       inkscape:persp3d-origin="238 : 124 : 1"
       id="perspective247" />
    <defs
       id="defs1">
      <clipPath
         id="clipPath1"
         clipPathUnits="userSpaceOnUse">
        <path
           id="path9"
           d="M9 9 L467 9 L467 363 L9 363 L9 9 Z" />
      </clipPath>
      <clipPath
         id="clipPath2"
         clipPathUnits="userSpaceOnUse">
        <path
           id="path12"
           d="M9 9 L470 9 L470 28 L9 28 L9 9 Z" />
      </clipPath>
      <clipPath
         id="clipPath3"
         clipPathUnits="userSpaceOnUse">
        <path
           id="path15"
           d="M72 78 L202 78 L202 130 L72 130 L72 78 Z" />
      </clipPath>
      <clipPath
         id="clipPath4"
         clipPathUnits="userSpaceOnUse">
        <path
           id="path18"
           d="M72 95 L205 95 L205 114 L72 114 L72 95 Z" />
      </clipPath>
      <clipPath
         id="clipPath5"
         clipPathUnits="userSpaceOnUse">
        <path
           id="path21"
           d="M72 156 L210 156 L210 208 L72 208 L72 156 Z" />
      </clipPath>
      <clipPath
         id="clipPath6"
         clipPathUnits="userSpaceOnUse">
        <path
           id="path24"
           d="M72 173 L213 173 L213 192 L72 192 L72 173 Z" />
      </clipPath>
      <clipPath
         id="clipPath7"
         clipPathUnits="userSpaceOnUse">
        <path
           id="path27"
           d="M332 78 L414 78 L414 130 L332 130 L332 78 Z" />
      </clipPath>
      <clipPath
         id="clipPath8"
         clipPathUnits="userSpaceOnUse">
        <path
           id="path30"
           d="M348 95 L402 95 L402 114 L348 114 L348 95 Z" />
      </clipPath>
      <clipPath
         id="clipPath9"
         clipPathUnits="userSpaceOnUse">
        <path
           id="path33"
           d="M332 143 L414 143 L414 195 L332 195 L332 143 Z" />
      </clipPath>
      <clipPath
         id="clipPath10"
         clipPathUnits="userSpaceOnUse">
        <path
           id="path36"
           d="M348 160 L402 160 L402 179 L348 179 L348 160 Z" />
      </clipPath>
      <clipPath
         id="clipPath11"
         clipPathUnits="userSpaceOnUse">
        <path
           id="path39"
           d="M332 208 L414 208 L414 260 L332 260 L332 208 Z" />
      </clipPath>
      <clipPath
         id="clipPath12"
         clipPathUnits="userSpaceOnUse">
        <path
           id="path42"
           d="M348 225 L402 225 L402 244 L348 244 L348 225 Z" />
      </clipPath>
      <clipPath
         id="clipPath13"
         clipPathUnits="userSpaceOnUse">
        <path
           id="path45"
           d="M72 234 L205 234 L205 285 L72 285 L72 234 Z" />
      </clipPath>
      <clipPath
         id="clipPath14"
         clipPathUnits="userSpaceOnUse">
        <path
           id="path48"
           d="M72 250 L208 250 L208 269 L72 269 L72 250 Z" />
      </clipPath>
      <clipPath
         id="clipPath15"
         clipPathUnits="userSpaceOnUse">
        <path
           id="path51"
           d="M230 269 L350 269 L350 337 L230 337 L230 269 Z" />
      </clipPath>
      <clipPath
         id="clipPath16"
         clipPathUnits="userSpaceOnUse">
        <path
           id="path54"
           d="M235 274 L331 274 L331 327 L235 327 L235 274 Z" />
      </clipPath>
      <clipPath
         id="clipPath17"
         clipPathUnits="userSpaceOnUse">
        <path
           id="path57"
           d="M235 274 L332 274 L332 327 L235 327 L235 274 Z" />
      </clipPath>
      <clipPath
         id="clipPath18"
         clipPathUnits="userSpaceOnUse">
        <path
           id="path60"
           d="M-1 -1 L477 -1 L477 373 L-1 373 L-1 -1 Z" />
      </clipPath>
      <clipPath
         id="clipPath19"
         clipPathUnits="userSpaceOnUse">
        <path
           id="path63"
           d="M134 142 L143 142 L143 159 L134 159 L134 142 Z" />
      </clipPath>
      <clipPath
         id="clipPath20"
         clipPathUnits="userSpaceOnUse">
        <path
           id="path66"
           d="M57 134 L59 134 L59 153 L57 153 L57 134 Z" />
      </clipPath>
      <clipPath
         id="clipPath21"
         clipPathUnits="userSpaceOnUse">
        <path
           id="path69"
           d="M318 101 L335 101 L335 113 L318 113 L318 101 Z" />
      </clipPath>
      <clipPath
         id="clipPath22"
         clipPathUnits="userSpaceOnUse">
        <path
           id="path72"
           d="M306 195 L308 195 L308 214 L306 214 L306 195 Z" />
      </clipPath>
      <clipPath
         id="clipPath23"
         clipPathUnits="userSpaceOnUse">
        <path
           id="path75"
           d="M318 160 L335 160 L335 169 L318 169 L318 160 Z" />
      </clipPath>
      <clipPath
         id="clipPath24"
         clipPathUnits="userSpaceOnUse">
        <path
           id="path78"
           d="M282 241 L284 241 L284 260 L282 260 L282 241 Z" />
      </clipPath>
      <clipPath
         id="clipPath25"
         clipPathUnits="userSpaceOnUse">
        <path
           id="path81"
           d="M318 221 L335 221 L335 230 L318 230 L318 221 Z" />
      </clipPath>
      <clipPath
         id="clipPath26"
         clipPathUnits="userSpaceOnUse">
        <path
           id="path84"
           d="M251 281 L253 281 L253 300 L251 300 L251 281 Z" />
      </clipPath>
      <clipPath
         id="clipPath27"
         clipPathUnits="userSpaceOnUse">
        <path
           id="path87"
           d="M134 220 L143 220 L143 237 L134 237 L134 220 Z" />
      </clipPath>
      <clipPath
         id="clipPath28"
         clipPathUnits="userSpaceOnUse">
        <path
           id="path90"
           d="M57 212 L59 212 L59 231 L57 231 L57 212 Z" />
      </clipPath>
      <clipPath
         id="clipPath29"
         clipPathUnits="userSpaceOnUse">
        <path
           id="path93"
           d="M208 162 L225 162 L225 174 L208 174 L208 162 Z" />
      </clipPath>
      <clipPath
         id="clipPath30"
         clipPathUnits="userSpaceOnUse">
        <path
           id="path96"
           d="M236 62 L238 62 L238 81 L236 81 L236 62 Z" />
      </clipPath>
      <clipPath
         id="clipPath31"
         clipPathUnits="userSpaceOnUse">
        <path
           id="path99"
           d="M208 181 L225 181 L225 190 L208 190 L208 181 Z" />
      </clipPath>
      <clipPath
         id="clipPath32"
         clipPathUnits="userSpaceOnUse">
        <path
           id="path102"
           d="M259 90 L261 90 L261 109 L259 109 L259 90 Z" />
      </clipPath>
      <clipPath
         id="clipPath33"
         clipPathUnits="userSpaceOnUse">
        <path
           id="path105"
           d="M208 203 L225 203 L225 212 L208 212 L208 203 Z" />
      </clipPath>
      <clipPath
         id="clipPath34"
         clipPathUnits="userSpaceOnUse">
        <path
           id="path108"
           d="M290 135 L292 135 L292 154 L290 154 L290 135 Z" />
      </clipPath>
    </defs>
  </defs>
  <rect
     x="10"
     y="10"
     clip-path="url(#clipPath1)"
     width="456"
     rx="9"
     ry="9"
     height="352"
     id="rect112"
     style="font-size:13px;fill:#ffffff;stroke:none;stroke-linejoin:round;stroke-miterlimit:0" />
  <rect
     x="73"
     y="79"
     clip-path="url(#clipPath3)"
     width="128"
     rx="8"
     ry="8"
     height="50"
     id="rect118"
     style="font-size:13px;fill:#ffffff;stroke:none;stroke-linejoin:round;stroke-miterlimit:0" />
  <rect
     x="73"
     y="79"
     clip-path="url(#clipPath3)"
     width="127"
     rx="8"
     ry="8"
     height="49"
     id="rect120"
     style="font-size:13px;fill:none;stroke:#b0b0b0;stroke-linejoin:round;stroke-miterlimit:0" />
  <text
     x="78"
     y="111"
     clip-path="url(#clipPath4)"
     xml:space="preserve"
     id="text122"
     style="font-size:13px;fill:#000000;stroke:none;stroke-linejoin:round;stroke-miterlimit:0">PPU runs program</text>
  <rect
     x="73"
     y="157"
     clip-path="url(#clipPath5)"
     width="136"
     rx="8"
     ry="8"
     height="50"
     id="rect124"
     style="font-size:13px;fill:#ffffff;stroke:none;stroke-linejoin:round;stroke-miterlimit:0" />
  <rect
     x="73"
     y="157"
     clip-path="url(#clipPath5)"
     width="135"
     rx="8"
     ry="8"
     height="49"
     id="rect126"
     style="font-size:13px;fill:none;stroke:#b0b0b0;stroke-linejoin:round;stroke-miterlimit:0" />
  <text
     x="78"
     y="189"
     clip-path="url(#clipPath6)"
     xml:space="preserve"
     id="text128"
     style="font-size:13px;fill:#000000;stroke:none;stroke-linejoin:round;stroke-miterlimit:0">hotspot is reached</text>
  <rect
     x="333"
     y="79"
     clip-path="url(#clipPath7)"
     width="80"
     rx="8"
     ry="8"
     height="50"
     id="rect130"
     style="font-size:13px;fill:#ffffff;stroke:none;stroke-linejoin:round;stroke-miterlimit:0" />
  <rect
     x="333"
     y="79"
     clip-path="url(#clipPath7)"
     width="79"
     rx="8"
     ry="8"
     height="49"
     id="rect132"
     style="font-size:13px;fill:none;stroke:#b0b0b0;stroke-linejoin:round;stroke-miterlimit:0" />
  <text
     x="354"
     y="111"
     clip-path="url(#clipPath8)"
     xml:space="preserve"
     id="text134"
     style="font-size:13px;fill:#000000;stroke:none;stroke-linejoin:round;stroke-miterlimit:0">PPE 0</text>
  <rect
     x="333"
     y="144"
     clip-path="url(#clipPath9)"
     width="80"
     rx="8"
     ry="8"
     height="50"
     id="rect136"
     style="font-size:13px;fill:#ffffff;stroke:none;stroke-linejoin:round;stroke-miterlimit:0" />
  <rect
     x="333"
     y="144"
     clip-path="url(#clipPath9)"
     width="79"
     rx="8"
     ry="8"
     height="49"
     id="rect138"
     style="font-size:13px;fill:none;stroke:#b0b0b0;stroke-linejoin:round;stroke-miterlimit:0" />
  <text
     x="354"
     y="176"
     clip-path="url(#clipPath10)"
     xml:space="preserve"
     id="text140"
     style="font-size:13px;fill:#000000;stroke:none;stroke-linejoin:round;stroke-miterlimit:0">PPE 1</text>
  <rect
     x="333"
     y="209"
     clip-path="url(#clipPath11)"
     width="80"
     rx="8"
     ry="8"
     height="50"
     id="rect142"
     style="font-size:13px;fill:#ffffff;stroke:none;stroke-linejoin:round;stroke-miterlimit:0" />
  <rect
     x="333"
     y="209"
     clip-path="url(#clipPath11)"
     width="79"
     rx="8"
     ry="8"
     height="49"
     id="rect144"
     style="font-size:13px;fill:none;stroke:#b0b0b0;stroke-linejoin:round;stroke-miterlimit:0" />
  <text
     x="354"
     y="241"
     clip-path="url(#clipPath12)"
     xml:space="preserve"
     id="text146"
     style="font-size:13px;fill:#000000;stroke:none;stroke-linejoin:round;stroke-miterlimit:0">PPE 2</text>
  <rect
     x="73"
     y="235"
     clip-path="url(#clipPath13)"
     width="131"
     rx="8"
     ry="8"
     height="49"
     id="rect148"
     style="font-size:13px;fill:#ffffff;stroke:none;stroke-linejoin:round;stroke-miterlimit:0" />
  <rect
     x="73"
     y="235"
     clip-path="url(#clipPath13)"
     width="130"
     rx="8"
     ry="8"
     height="48"
     id="rect150"
     style="font-size:13px;fill:none;stroke:#b0b0b0;stroke-linejoin:round;stroke-miterlimit:0" />
  <text
     x="76"
     y="266"
     clip-path="url(#clipPath14)"
     xml:space="preserve"
     id="text152"
     style="font-size:13px;fill:#000000;stroke:none;stroke-linejoin:round;stroke-miterlimit:0">program continues</text>
  <polygon
     clip-path="url(#clipPath15)"
     points="231,270 336,270 348,282 348,335 231,335 231,270 "
     id="polygon154"
     style="font-size:13px;fill:#ffffcb;stroke:none;stroke-linejoin:round;stroke-miterlimit:0" />
  <text
     x="236"
     y="290"
     clip-path="url(#clipPath16)"
     xml:space="preserve"
     id="text156"
     style="font-size:13px;fill:#000000;stroke:none;stroke-linejoin:round;stroke-miterlimit:0">hotspot </text>
  <text
     x="236"
     y="307"
     clip-path="url(#clipPath16)"
     xml:space="preserve"
     id="text158"
     style="font-size:13px;fill:#000000;stroke:none;stroke-linejoin:round;stroke-miterlimit:0">computation </text>
  <text
     x="236"
     y="324"
     clip-path="url(#clipPath17)"
     xml:space="preserve"
     id="text160"
     style="font-size:13px;fill:#000000;stroke:none;stroke-linejoin:round;stroke-miterlimit:0">management</text>
  <line
     clip-path="url(#clipPath15)"
     x1="231"
     x2="336"
     y1="270"
     y2="270"
     id="line162"
     style="font-size:13px;fill:none;stroke:#ffcc66;stroke-linejoin:round;stroke-miterlimit:0" />
  <line
     clip-path="url(#clipPath15)"
     x1="336"
     x2="348"
     y1="270"
     y2="282"
     id="line164"
     style="font-size:13px;fill:none;stroke:#ffcc66;stroke-linejoin:round;stroke-miterlimit:0" />
  <line
     clip-path="url(#clipPath15)"
     x1="348"
     x2="348"
     y1="282"
     y2="335"
     id="line166"
     style="font-size:13px;fill:none;stroke:#ffcc66;stroke-linejoin:round;stroke-miterlimit:0" />
  <line
     clip-path="url(#clipPath15)"
     x1="348"
     x2="231"
     y1="335"
     y2="335"
     id="line168"
     style="font-size:13px;fill:none;stroke:#ffcc66;stroke-linejoin:round;stroke-miterlimit:0" />
  <line
     clip-path="url(#clipPath15)"
     x1="231"
     x2="231"
     y1="335"
     y2="270"
     id="line170"
     style="font-size:13px;fill:none;stroke:#ffcc66;stroke-linejoin:round;stroke-miterlimit:0" />
  <line
     clip-path="url(#clipPath15)"
     x1="336"
     x2="336"
     y1="270"
     y2="282"
     id="line172"
     style="font-size:13px;fill:none;stroke:#ffcc66;stroke-linejoin:round;stroke-miterlimit:0" />
  <line
     clip-path="url(#clipPath15)"
     x1="336"
     x2="349"
     y1="282"
     y2="282"
     id="line174"
     style="font-size:13px;fill:none;stroke:#ffcc66;stroke-linejoin:round;stroke-miterlimit:0" />
  <line
     clip-path="url(#clipPath18)"
     x1="138"
     x2="138"
     y1="129"
     y2="157"
     id="line176"
     style="font-size:13px;fill:none;stroke:#000000;stroke-linejoin:round;stroke-miterlimit:0" />
  <line
     clip-path="url(#clipPath19)"
     x1="141"
     x2="138"
     y1="143"
     y2="157"
     id="line178"
     style="font-size:13px;fill:none;stroke:#000000;stroke-linejoin:round;stroke-miterlimit:0" />
  <line
     clip-path="url(#clipPath19)"
     x1="138"
     x2="135"
     y1="157"
     y2="143"
     id="line180"
     style="font-size:13px;fill:none;stroke:#000000;stroke-linejoin:round;stroke-miterlimit:0" />
  <text
     x="58"
     y="148"
     clip-path="url(#clipPath20)"
     xml:space="preserve"
     id="text182"
     style="font-size:13px;fill:#000000;stroke:none;stroke-linejoin:round;stroke-miterlimit:0" />
  <line
     clip-path="url(#clipPath18)"
     x1="209"
     x2="333"
     y1="164"
     y2="102"
     id="line184"
     style="font-size:13px;fill:none;stroke:#000000;stroke-linejoin:round;stroke-miterlimit:0" />
  <line
     clip-path="url(#clipPath21)"
     x1="319"
     x2="333"
     y1="106"
     y2="102"
     id="line186"
     style="font-size:13px;fill:none;stroke:#000000;stroke-linejoin:round;stroke-miterlimit:0" />
  <line
     clip-path="url(#clipPath21)"
     x1="333"
     x2="322"
     y1="102"
     y2="111"
     id="line188"
     style="font-size:13px;fill:none;stroke:#000000;stroke-linejoin:round;stroke-miterlimit:0" />
  <text
     x="307"
     y="209"
     clip-path="url(#clipPath22)"
     xml:space="preserve"
     id="text190"
     style="font-size:13px;fill:#000000;stroke:none;stroke-linejoin:round;stroke-miterlimit:0" />
  <line
     clip-path="url(#clipPath18)"
     x1="209"
     x2="333"
     y1="181"
     y2="162"
     id="line192"
     style="font-size:13px;fill:none;stroke:#000000;stroke-linejoin:round;stroke-miterlimit:0" />
  <line
     clip-path="url(#clipPath23)"
     x1="319"
     x2="333"
     y1="161"
     y2="162"
     id="line194"
     style="font-size:13px;fill:none;stroke:#000000;stroke-linejoin:round;stroke-miterlimit:0" />
  <line
     clip-path="url(#clipPath23)"
     x1="333"
     x2="320"
     y1="162"
     y2="167"
     id="line196"
     style="font-size:13px;fill:none;stroke:#000000;stroke-linejoin:round;stroke-miterlimit:0" />
  <text
     x="283"
     y="255"
     clip-path="url(#clipPath24)"
     xml:space="preserve"
     id="text198"
     style="font-size:13px;fill:#000000;stroke:none;stroke-linejoin:round;stroke-miterlimit:0" />
  <line
     clip-path="url(#clipPath18)"
     x1="209"
     x2="333"
     y1="197"
     y2="228"
     id="line200"
     style="font-size:13px;fill:none;stroke:#000000;stroke-linejoin:round;stroke-miterlimit:0" />
  <line
     clip-path="url(#clipPath25)"
     x1="320"
     x2="333"
     y1="222"
     y2="228"
     id="line202"
     style="font-size:13px;fill:none;stroke:#000000;stroke-linejoin:round;stroke-miterlimit:0" />
  <line
     clip-path="url(#clipPath25)"
     x1="333"
     x2="319"
     y1="228"
     y2="228"
     id="line204"
     style="font-size:13px;fill:none;stroke:#000000;stroke-linejoin:round;stroke-miterlimit:0" />
  <text
     x="252"
     y="295"
     clip-path="url(#clipPath26)"
     xml:space="preserve"
     id="text206"
     style="font-size:13px;fill:#000000;stroke:none;stroke-linejoin:round;stroke-miterlimit:0" />
  <line
     clip-path="url(#clipPath18)"
     x1="138"
     x2="138"
     y1="207"
     y2="235"
     id="line208"
     style="font-size:13px;fill:none;stroke:#000000;stroke-linejoin:round;stroke-miterlimit:0" />
  <line
     clip-path="url(#clipPath27)"
     x1="141"
     x2="138"
     y1="221"
     y2="235"
     id="line210"
     style="font-size:13px;fill:none;stroke:#000000;stroke-linejoin:round;stroke-miterlimit:0" />
  <line
     clip-path="url(#clipPath27)"
     x1="138"
     x2="135"
     y1="235"
     y2="221"
     id="line212"
     style="font-size:13px;fill:none;stroke:#000000;stroke-linejoin:round;stroke-miterlimit:0" />
  <text
     x="58"
     y="226"
     clip-path="url(#clipPath28)"
     xml:space="preserve"
     id="text214"
     style="font-size:13px;fill:#000000;stroke:none;stroke-linejoin:round;stroke-miterlimit:0" />
  <line
     clip-path="url(#clipPath18)"
     x1="333"
     x2="209"
     y1="113"
     y2="172"
     id="line216"
     style="font-size:13px;fill:none;stroke:#000000;stroke-linejoin:round;stroke-miterlimit:0" />
  <line
     clip-path="url(#clipPath29)"
     x1="223"
     x2="209"
     y1="169"
     y2="172"
     id="line218"
     style="font-size:13px;fill:none;stroke:#000000;stroke-linejoin:round;stroke-miterlimit:0" />
  <line
     clip-path="url(#clipPath29)"
     x1="209"
     x2="220"
     y1="172"
     y2="163"
     id="line220"
     style="font-size:13px;fill:none;stroke:#000000;stroke-linejoin:round;stroke-miterlimit:0" />
  <text
     x="237"
     y="76"
     clip-path="url(#clipPath30)"
     xml:space="preserve"
     id="text222"
     style="font-size:13px;fill:#000000;stroke:none;stroke-linejoin:round;stroke-miterlimit:0" />
  <line
     clip-path="url(#clipPath18)"
     x1="333"
     x2="209"
     y1="169"
     y2="187"
     id="line224"
     style="font-size:13px;fill:none;stroke:#000000;stroke-linejoin:round;stroke-miterlimit:0" />
  <line
     clip-path="url(#clipPath31)"
     x1="223"
     x2="209"
     y1="188"
     y2="187"
     id="line226"
     style="font-size:13px;fill:none;stroke:#000000;stroke-linejoin:round;stroke-miterlimit:0" />
  <line
     clip-path="url(#clipPath31)"
     x1="209"
     x2="222"
     y1="187"
     y2="182"
     id="line228"
     style="font-size:13px;fill:none;stroke:#000000;stroke-linejoin:round;stroke-miterlimit:0" />
  <text
     x="260"
     y="104"
     clip-path="url(#clipPath32)"
     xml:space="preserve"
     id="text230"
     style="font-size:13px;fill:#000000;stroke:none;stroke-linejoin:round;stroke-miterlimit:0" />
  <line
     clip-path="url(#clipPath18)"
     x1="333"
     x2="209"
     y1="237"
     y2="204"
     id="line232"
     style="font-size:13px;fill:none;stroke:#000000;stroke-linejoin:round;stroke-miterlimit:0" />
  <line
     clip-path="url(#clipPath33)"
     x1="222"
     x2="209"
     y1="210"
     y2="204"
     id="line234"
     style="font-size:13px;fill:none;stroke:#000000;stroke-linejoin:round;stroke-miterlimit:0" />
  <line
     clip-path="url(#clipPath33)"
     x1="209"
     x2="223"
     y1="204"
     y2="205"
     id="line236"
     style="font-size:13px;fill:none;stroke:#000000;stroke-linejoin:round;stroke-miterlimit:0" />
  <text
     x="291"
     y="149"
     clip-path="url(#clipPath34)"
     xml:space="preserve"
     id="text238"
     style="font-size:13px;fill:#000000;stroke:none;stroke-linejoin:round;stroke-miterlimit:0" />
  <g
     style="font-size:15px;fill:#b0b0b0;stroke:#b0b0b0;stroke-linejoin:round;stroke-miterlimit:0;stroke-dasharray:3, 3"
     id="g240"
     stroke-miterlimit="0"
     font-size="15">
    <line
       style="fill:none"
       id="line242"
       y2="207"
       y1="270"
       x2="172"
       x1="249"
       clip-path="url(#clipPath18)" />
  </g>
</svg>
