<?xml version="1.0" encoding="UTF-8" standalone="no"?>
<svg
   xmlns:dc="http://purl.org/dc/elements/1.1/"
   xmlns:cc="http://creativecommons.org/ns#"
   xmlns:rdf="http://www.w3.org/1999/02/22-rdf-syntax-ns#"
   xmlns:svg="http://www.w3.org/2000/svg"
   xmlns="http://www.w3.org/2000/svg"
   xmlns:sodipodi="http://sodipodi.sourceforge.net/DTD/sodipodi-0.dtd"
   xmlns:inkscape="http://www.inkscape.org/namespaces/inkscape"
   stroke-dasharray="none"
   shape-rendering="auto"
   font-family="'Dialog'"
   width="620"
   text-rendering="auto"
   fill-opacity="1"
   contentScriptType="text/ecmascript"
   color-interpolation="auto"
   color-rendering="auto"
   preserveAspectRatio="xMidYMid meet"
   font-size="12"
   viewBox="0 0 620 620"
   fill="black"
   stroke="black"
   image-rendering="auto"
   stroke-miterlimit="10"
   zoomAndPan="magnify"
   version="1.0"
   stroke-linecap="square"
   stroke-linejoin="miter"
   contentStyleType="text/css"
   font-style="normal"
   height="620"
   stroke-width="1"
   stroke-dashoffset="0"
   font-weight="normal"
   stroke-opacity="1"
   id="svg2"
   sodipodi:version="0.32"
   inkscape:version="0.46"
   sodipodi:docname="RCCLientCycle.svg"
   inkscape:output_extension="org.inkscape.output.svg.inkscape">
  <metadata
     id="metadata357">
    <rdf:RDF>
      <cc:Work
         rdf:about="">
        <dc:format>image/svg+xml</dc:format>
        <dc:type
           rdf:resource="http://purl.org/dc/dcmitype/StillImage" />
      </cc:Work>
    </rdf:RDF>
  </metadata>
  <sodipodi:namedview
     inkscape:window-height="740"
     inkscape:window-width="1280"
     inkscape:pageshadow="2"
     inkscape:pageopacity="0.0"
     guidetolerance="10.0"
     gridtolerance="10.0"
     objecttolerance="10.0"
     borderopacity="1.0"
     bordercolor="#666666"
     pagecolor="#ffffff"
     id="base"
     showgrid="false"
     inkscape:zoom="0.81307486"
     inkscape:cx="140.75511"
     inkscape:cy="247.47424"
     inkscape:window-x="-5"
     inkscape:window-y="-3"
     inkscape:current-layer="svg2" />
<!--Generated by the Batik Graphics2D SVG Generator-->  <defs
     id="genericDefs">
    <inkscape:perspective
       sodipodi:type="inkscape:persp3d"
       inkscape:vp_x="0 : 310 : 1"
       inkscape:vp_y="0 : 1000 : 0"
       inkscape:vp_z="620 : 310 : 1"
       inkscape:persp3d-origin="310 : 206.66667 : 1"
       id="perspective359" />
    <defs
       id="defs1">
      <clipPath
         id="clipPath1"
         clipPathUnits="userSpaceOnUse">
        <path
           id="path9"
           d="M9 9 L611 9 L611 611 L9 611 L9 9 Z" />
      </clipPath>
      <clipPath
         id="clipPath2"
         clipPathUnits="userSpaceOnUse">
        <path
           id="path12"
           d="M9 9 L614 9 L614 28 L9 28 L9 9 Z" />
      </clipPath>
      <clipPath
         id="clipPath3"
         clipPathUnits="userSpaceOnUse">
        <path
           id="path15"
           d="M87 126 L178 126 L178 178 L87 178 L87 126 Z" />
      </clipPath>
      <clipPath
         id="clipPath4"
         clipPathUnits="userSpaceOnUse">
        <path
           id="path18"
           d="M87 143 L181 143 L181 162 L87 162 L87 143 Z" />
      </clipPath>
      <clipPath
         id="clipPath5"
         clipPathUnits="userSpaceOnUse">
        <path
           id="path21"
           d="M87 282 L258 282 L258 334 L87 334 L87 282 Z" />
      </clipPath>
      <clipPath
         id="clipPath6"
         clipPathUnits="userSpaceOnUse">
        <path
           id="path24"
           d="M87 299 L261 299 L261 318 L87 318 L87 299 Z" />
      </clipPath>
      <clipPath
         id="clipPath7"
         clipPathUnits="userSpaceOnUse">
        <path
           id="path27"
           d="M321 126 L480 126 L480 178 L321 178 L321 126 Z" />
      </clipPath>
      <clipPath
         id="clipPath8"
         clipPathUnits="userSpaceOnUse">
        <path
           id="path30"
           d="M326 126 L467 126 L467 178 L326 178 L326 126 Z" />
      </clipPath>
      <clipPath
         id="clipPath9"
         clipPathUnits="userSpaceOnUse">
        <path
           id="path33"
           d="M87 438 L194 438 L194 490 L87 490 L87 438 Z" />
      </clipPath>
      <clipPath
         id="clipPath10"
         clipPathUnits="userSpaceOnUse">
        <path
           id="path36"
           d="M87 455 L197 455 L197 474 L87 474 L87 455 Z" />
      </clipPath>
      <clipPath
         id="clipPath11"
         clipPathUnits="userSpaceOnUse">
        <path
           id="path39"
           d="M321 282 L476 282 L476 334 L321 334 L321 282 Z" />
      </clipPath>
      <clipPath
         id="clipPath12"
         clipPathUnits="userSpaceOnUse">
        <path
           id="path42"
           d="M326 282 L463 282 L463 334 L326 334 L326 282 Z" />
      </clipPath>
      <clipPath
         id="clipPath13"
         clipPathUnits="userSpaceOnUse">
        <path
           id="path45"
           d="M321 438 L452 438 L452 490 L321 490 L321 438 Z" />
      </clipPath>
      <clipPath
         id="clipPath14"
         clipPathUnits="userSpaceOnUse">
        <path
           id="path48"
           d="M326 438 L439 438 L439 490 L326 490 L326 438 Z" />
      </clipPath>
      <clipPath
         id="clipPath15"
         clipPathUnits="userSpaceOnUse">
        <path
           id="path51"
           d="M87 204 L201 204 L201 256 L87 256 L87 204 Z" />
      </clipPath>
      <clipPath
         id="clipPath16"
         clipPathUnits="userSpaceOnUse">
        <path
           id="path54"
           d="M87 221 L204 221 L204 240 L87 240 L87 221 Z" />
      </clipPath>
      <clipPath
         id="clipPath17"
         clipPathUnits="userSpaceOnUse">
        <path
           id="path57"
           d="M87 360 L366 360 L366 412 L87 412 L87 360 Z" />
      </clipPath>
      <clipPath
         id="clipPath18"
         clipPathUnits="userSpaceOnUse">
        <path
           id="path60"
           d="M87 377 L369 377 L369 396 L87 396 L87 377 Z" />
      </clipPath>
      <clipPath
         id="clipPath19"
         clipPathUnits="userSpaceOnUse">
        <path
           id="path63"
           d="M477 113 L529 113 L529 490 L477 490 L477 113 Z" />
      </clipPath>
      <clipPath
         id="clipPath20"
         clipPathUnits="userSpaceOnUse">
        <path
           id="path66"
           d="M480 292 L528 292 L528 311 L480 311 L480 292 Z" />
      </clipPath>
      <clipPath
         id="clipPath21"
         clipPathUnits="userSpaceOnUse">
        <path
           id="path69"
           d="M87 516 L282 516 L282 568 L87 568 L87 516 Z" />
      </clipPath>
      <clipPath
         id="clipPath22"
         clipPathUnits="userSpaceOnUse">
        <path
           id="path72"
           d="M87 533 L285 533 L285 552 L87 552 L87 533 Z" />
      </clipPath>
      <clipPath
         id="clipPath23"
         clipPathUnits="userSpaceOnUse">
        <path
           id="path75"
           d="M126 87 L143 87 L143 104 L126 104 L126 87 Z" />
      </clipPath>
      <clipPath
         id="clipPath24"
         clipPathUnits="userSpaceOnUse">
        <path
           id="path78"
           d="M126 581 L151 581 L151 606 L126 606 L126 581 Z" />
      </clipPath>
      <clipPath
         id="clipPath25"
         clipPathUnits="userSpaceOnUse">
        <path
           id="path81"
           d="M130 585 L147 585 L147 602 L130 602 L130 585 Z" />
      </clipPath>
      <clipPath
         id="clipPath26"
         clipPathUnits="userSpaceOnUse">
        <path
           id="path84"
           d="M-1 -1 L621 -1 L621 621 L-1 621 L-1 -1 Z" />
      </clipPath>
      <clipPath
         id="clipPath27"
         clipPathUnits="userSpaceOnUse">
        <path
           id="path87"
           d="M307 148 L324 148 L324 157 L307 157 L307 148 Z" />
      </clipPath>
      <clipPath
         id="clipPath28"
         clipPathUnits="userSpaceOnUse">
        <path
           id="path90"
           d="M249 223 L251 223 L251 242 L249 242 L249 223 Z" />
      </clipPath>
      <clipPath
         id="clipPath29"
         clipPathUnits="userSpaceOnUse">
        <path
           id="path93"
           d="M127 190 L136 190 L136 207 L127 207 L127 190 Z" />
      </clipPath>
      <clipPath
         id="clipPath30"
         clipPathUnits="userSpaceOnUse">
        <path
           id="path96"
           d="M50 182 L52 182 L52 201 L50 201 L50 182 Z" />
      </clipPath>
      <clipPath
         id="clipPath31"
         clipPathUnits="userSpaceOnUse">
        <path
           id="path99"
           d="M307 306 L324 306 L324 315 L307 315 L307 306 Z" />
      </clipPath>
      <clipPath
         id="clipPath32"
         clipPathUnits="userSpaceOnUse">
        <path
           id="path102"
           d="M289 381 L291 381 L291 400 L289 400 L289 381 Z" />
      </clipPath>
      <clipPath
         id="clipPath33"
         clipPathUnits="userSpaceOnUse">
        <path
           id="path105"
           d="M140 346 L149 346 L149 363 L140 363 L140 346 Z" />
      </clipPath>
      <clipPath
         id="clipPath34"
         clipPathUnits="userSpaceOnUse">
        <path
           id="path108"
           d="M63 338 L65 338 L65 357 L63 357 L63 338 Z" />
      </clipPath>
      <clipPath
         id="clipPath35"
         clipPathUnits="userSpaceOnUse">
        <path
           id="path111"
           d="M307 460 L324 460 L324 469 L307 469 L307 460 Z" />
      </clipPath>
      <clipPath
         id="clipPath36"
         clipPathUnits="userSpaceOnUse">
        <path
           id="path114"
           d="M257 535 L259 535 L259 554 L257 554 L257 535 Z" />
      </clipPath>
      <clipPath
         id="clipPath37"
         clipPathUnits="userSpaceOnUse">
        <path
           id="path117"
           d="M131 502 L140 502 L140 519 L131 519 L131 502 Z" />
      </clipPath>
      <clipPath
         id="clipPath38"
         clipPathUnits="userSpaceOnUse">
        <path
           id="path120"
           d="M54 494 L56 494 L56 513 L54 513 L54 494 Z" />
      </clipPath>
      <clipPath
         id="clipPath39"
         clipPathUnits="userSpaceOnUse">
        <path
           id="path123"
           d="M130 268 L139 268 L139 285 L130 285 L130 268 Z" />
      </clipPath>
      <clipPath
         id="clipPath40"
         clipPathUnits="userSpaceOnUse">
        <path
           id="path126"
           d="M53 260 L55 260 L55 279 L53 279 L53 260 Z" />
      </clipPath>
      <clipPath
         id="clipPath41"
         clipPathUnits="userSpaceOnUse">
        <path
           id="path129"
           d="M130 424 L139 424 L139 441 L130 441 L130 424 Z" />
      </clipPath>
      <clipPath
         id="clipPath42"
         clipPathUnits="userSpaceOnUse">
        <path
           id="path132"
           d="M53 416 L55 416 L55 435 L53 435 L53 416 Z" />
      </clipPath>
      <clipPath
         id="clipPath43"
         clipPathUnits="userSpaceOnUse">
        <path
           id="path135"
           d="M73 307 L90 307 L90 316 L73 316 L73 307 Z" />
      </clipPath>
      <clipPath
         id="clipPath44"
         clipPathUnits="userSpaceOnUse">
        <path
           id="path138"
           d="M-1 308 L50 308 L50 327 L-1 327 L-1 308 Z" />
      </clipPath>
      <clipPath
         id="clipPath45"
         clipPathUnits="userSpaceOnUse">
        <path
           id="path141"
           d="M134 336 L136 336 L136 355 L134 355 L134 336 Z" />
      </clipPath>
      <clipPath
         id="clipPath46"
         clipPathUnits="userSpaceOnUse">
        <path
           id="path144"
           d="M149 589 L166 589 L166 598 L149 598 L149 589 Z" />
      </clipPath>
      <clipPath
         id="clipPath47"
         clipPathUnits="userSpaceOnUse">
        <path
           id="path147"
           d="M399 373 L431 373 L431 392 L399 392 L399 373 Z" />
      </clipPath>
      <clipPath
         id="clipPath48"
         clipPathUnits="userSpaceOnUse">
        <path
           id="path150"
           d="M456 504 L458 504 L458 523 L456 523 L456 504 Z" />
      </clipPath>
      <clipPath
         id="clipPath49"
         clipPathUnits="userSpaceOnUse">
        <path
           id="path153"
           d="M73 395 L90 395 L90 404 L73 404 L73 395 Z" />
      </clipPath>
      <clipPath
         id="clipPath50"
         clipPathUnits="userSpaceOnUse">
        <path
           id="path156"
           d="M132 463 L134 463 L134 482 L132 482 L132 463 Z" />
      </clipPath>
      <clipPath
         id="clipPath51"
         clipPathUnits="userSpaceOnUse">
        <path
           id="path159"
           d="M128 112 L137 112 L137 129 L128 129 L128 112 Z" />
      </clipPath>
      <clipPath
         id="clipPath52"
         clipPathUnits="userSpaceOnUse">
        <path
           id="path162"
           d="M51 106 L53 106 L53 125 L51 125 L51 106 Z" />
      </clipPath>
    </defs>
  </defs>
  <rect
     x="10"
     y="10"
     clip-path="url(#clipPath1)"
     width="600"
     rx="9"
     ry="9"
     height="600"
     id="rect166"
     style="font-size:13px;fill:#ffffff;stroke:none;stroke-linejoin:round;stroke-miterlimit:0" />
  <rect
     x="88"
     y="127"
     clip-path="url(#clipPath3)"
     width="89"
     rx="8"
     ry="8"
     height="50"
     id="rect172"
     style="font-size:13px;fill:#ffffff;stroke:none;stroke-linejoin:round;stroke-miterlimit:0" />
  <rect
     x="88"
     y="127"
     clip-path="url(#clipPath3)"
     width="88"
     rx="8"
     ry="8"
     height="49"
     id="rect174"
     style="font-size:13px;fill:none;stroke:#b0b0b0;stroke-linejoin:round;stroke-miterlimit:0" />
  <text
     x="93"
     y="159"
     clip-path="url(#clipPath4)"
     xml:space="preserve"
     id="text176"
     style="font-size:13px;fill:#000000;stroke:none;stroke-linejoin:round;stroke-miterlimit:0">constructor</text>
  <rect
     x="88"
     y="283"
     clip-path="url(#clipPath5)"
     width="169"
     rx="8"
     ry="8"
     height="50"
     id="rect178"
     style="font-size:13px;fill:#ffffff;stroke:none;stroke-linejoin:round;stroke-miterlimit:0" />
  <rect
     x="88"
     y="283"
     clip-path="url(#clipPath5)"
     width="168"
     rx="8"
     ry="8"
     height="49"
     id="rect180"
     style="font-size:13px;fill:none;stroke:#b0b0b0;stroke-linejoin:round;stroke-miterlimit:0" />
  <text
     x="93"
     y="315"
     clip-path="url(#clipPath6)"
     xml:space="preserve"
     id="text182"
     style="font-size:13px;fill:#000000;stroke:none;stroke-linejoin:round;stroke-miterlimit:0">PrepareOutputDataset</text>
  <polygon
     clip-path="url(#clipPath7)"
     points="322,127 445,127 475,151 445,175 322,175 322,127 "
     id="polygon184"
     style="font-size:13px;fill:#ffffff;stroke:none;stroke-linejoin:round;stroke-miterlimit:0" />
  <polygon
     clip-path="url(#clipPath7)"
     points="322,127 445,127 475,151 445,175 322,175 322,127 "
     id="polygon186"
     style="font-size:13px;fill:none;stroke:#b0b0b0;stroke-linejoin:round;stroke-miterlimit:0" />
  <text
     x="332"
     y="158"
     clip-path="url(#clipPath8)"
     xml:space="preserve"
     id="text188"
     style="font-size:13px;fill:#000000;stroke:none;stroke-linejoin:round;stroke-miterlimit:0">CREATE command</text>
  <rect
     x="88"
     y="439"
     clip-path="url(#clipPath9)"
     width="105"
     rx="8"
     ry="8"
     height="50"
     id="rect190"
     style="font-size:13px;fill:#ffffff;stroke:none;stroke-linejoin:round;stroke-miterlimit:0" />
  <rect
     x="88"
     y="439"
     clip-path="url(#clipPath9)"
     width="104"
     rx="8"
     ry="8"
     height="49"
     id="rect192"
     style="font-size:13px;fill:none;stroke:#b0b0b0;stroke-linejoin:round;stroke-miterlimit:0" />
  <text
     x="93"
     y="471"
     clip-path="url(#clipPath10)"
     xml:space="preserve"
     id="text194"
     style="font-size:13px;fill:#000000;stroke:none;stroke-linejoin:round;stroke-miterlimit:0">ProcessImage</text>
  <polygon
     clip-path="url(#clipPath11)"
     points="322,283 442,283 472,307 442,331 322,331 322,283 "
     id="polygon196"
     style="font-size:13px;fill:#ffffff;stroke:none;stroke-linejoin:round;stroke-miterlimit:0" />
  <polygon
     clip-path="url(#clipPath11)"
     points="322,283 442,283 472,307 442,331 322,331 322,283 "
     id="polygon198"
     style="font-size:13px;fill:none;stroke:#b0b0b0;stroke-linejoin:round;stroke-miterlimit:0" />
  <text
     x="327"
     y="314"
     clip-path="url(#clipPath12)"
     xml:space="preserve"
     id="text200"
     style="font-size:13px;fill:#000000;stroke:none;stroke-linejoin:round;stroke-miterlimit:0">DATASET command</text>
  <polygon
     clip-path="url(#clipPath13)"
     points="322,439 423,439 448,463 423,487 322,487 322,439 "
     id="polygon202"
     style="font-size:13px;fill:#ffffff;stroke:none;stroke-linejoin:round;stroke-miterlimit:0" />
  <polygon
     clip-path="url(#clipPath13)"
     points="322,439 423,439 448,463 423,487 322,487 322,439 "
     id="polygon204"
     style="font-size:13px;fill:none;stroke:#b0b0b0;stroke-linejoin:round;stroke-miterlimit:0" />
  <text
     x="327"
     y="470"
     clip-path="url(#clipPath14)"
     xml:space="preserve"
     id="text206"
     style="font-size:13px;fill:#000000;stroke:none;stroke-linejoin:round;stroke-miterlimit:0">EXEC command</text>
  <rect
     x="88"
     y="205"
     clip-path="url(#clipPath15)"
     width="112"
     rx="8"
     ry="8"
     height="50"
     id="rect208"
     style="font-size:13px;fill:#ffffff;stroke:none;stroke-linejoin:round;stroke-miterlimit:0" />
  <rect
     x="88"
     y="205"
     clip-path="url(#clipPath15)"
     width="111"
     rx="8"
     ry="8"
     height="49"
     id="rect210"
     style="font-size:13px;fill:none;stroke:#b0b0b0;stroke-linejoin:round;stroke-miterlimit:0" />
  <text
     x="93"
     y="237"
     clip-path="url(#clipPath16)"
     xml:space="preserve"
     id="text212"
     style="font-size:13px;fill:#000000;stroke:none;stroke-linejoin:round;stroke-miterlimit:0">IN data chaged</text>
  <rect
     x="88"
     y="361"
     clip-path="url(#clipPath17)"
     width="277"
     rx="8"
     ry="8"
     height="50"
     id="rect214"
     style="font-size:13px;fill:#ffffff;stroke:none;stroke-linejoin:round;stroke-miterlimit:0" />
  <rect
     x="88"
     y="361"
     clip-path="url(#clipPath17)"
     width="276"
     rx="8"
     ry="8"
     height="49"
     id="rect216"
     style="font-size:13px;fill:none;stroke:#b0b0b0;stroke-linejoin:round;stroke-miterlimit:0" />
  <text
     x="93"
     y="393"
     clip-path="url(#clipPath18)"
     xml:space="preserve"
     id="text218"
     style="font-size:13px;fill:#000000;stroke:none;stroke-linejoin:round;stroke-miterlimit:0">parameter tunning &amp; pipeline execution</text>
  <rect
     x="478"
     y="114"
     clip-path="url(#clipPath19)"
     width="50"
     height="375"
     id="rect220"
     style="font-size:13px;fill:#ffffcb;stroke:none;stroke-linejoin:round;stroke-miterlimit:0" />
  <rect
     x="478"
     y="114"
     clip-path="url(#clipPath19)"
     width="50"
     height="375"
     id="rect222"
     style="font-size:13px;fill:none;stroke:#ffcc66;stroke-linejoin:round;stroke-miterlimit:0" />
  <text
     x="481"
     y="308"
     clip-path="url(#clipPath20)"
     xml:space="preserve"
     id="text224"
     style="font-size:13px;fill:#000000;stroke:none;stroke-linejoin:round;stroke-miterlimit:0">server</text>
  <rect
     x="88"
     y="517"
     clip-path="url(#clipPath21)"
     width="193"
     rx="8"
     ry="8"
     height="50"
     id="rect226"
     style="font-size:13px;fill:#ffffff;stroke:none;stroke-linejoin:round;stroke-miterlimit:0" />
  <rect
     x="88"
     y="517"
     clip-path="url(#clipPath21)"
     width="192"
     rx="8"
     ry="8"
     height="49"
     id="rect228"
     style="font-size:13px;fill:none;stroke:#b0b0b0;stroke-linejoin:round;stroke-miterlimit:0" />
  <text
     x="93"
     y="549"
     clip-path="url(#clipPath22)"
     xml:space="preserve"
     id="text230"
     style="font-size:13px;fill:#000000;stroke:none;stroke-linejoin:round;stroke-miterlimit:0">server response processing</text>
  <circle
     clip-path="url(#clipPath23)"
     r="7"
     cx="134"
     cy="95"
     id="circle232"
     sodipodi:cx="134"
     sodipodi:cy="95"
     sodipodi:rx="7"
     sodipodi:ry="7"
     style="font-size:13px;fill:#000000;stroke:none;stroke-linejoin:round;stroke-miterlimit:0" />
  <circle
     clip-path="url(#clipPath23)"
     r="7"
     cx="134"
     cy="95"
     id="circle234"
     sodipodi:cx="134"
     sodipodi:cy="95"
     sodipodi:rx="7"
     sodipodi:ry="7"
     style="font-size:13px;fill:none;stroke:#b0b0b0;stroke-linejoin:round;stroke-miterlimit:0" />
  <circle
     r="11"
     clip-path="url(#clipPath24)"
     cx="138"
     cy="593"
     id="circle236"
     sodipodi:cx="138"
     sodipodi:cy="593"
     sodipodi:rx="11"
     sodipodi:ry="11"
     style="font-size:13px;fill:#ffffff;stroke:none;stroke-linejoin:round;stroke-miterlimit:0" />
  <circle
     clip-path="url(#clipPath24)"
     r="11"
     cx="138"
     cy="593"
     id="circle238"
     sodipodi:cx="138"
     sodipodi:cy="593"
     sodipodi:rx="11"
     sodipodi:ry="11"
     style="font-size:13px;fill:none;stroke:#000000;stroke-linejoin:round;stroke-miterlimit:0" />
  <circle
     clip-path="url(#clipPath25)"
     r="7"
     cx="138"
     cy="593"
     id="circle240"
     sodipodi:cx="138"
     sodipodi:cy="593"
     sodipodi:rx="7"
     sodipodi:ry="7"
     style="font-size:13px;fill:#000000;stroke:none;stroke-linejoin:round;stroke-miterlimit:0" />
  <circle
     clip-path="url(#clipPath25)"
     r="7"
     cx="138"
     cy="593"
     id="circle242"
     sodipodi:cx="138"
     sodipodi:cy="593"
     sodipodi:rx="7"
     sodipodi:ry="7"
     style="font-size:13px;fill:none;stroke:#000000;stroke-linejoin:round;stroke-miterlimit:0" />
  <line
     clip-path="url(#clipPath26)"
     x1="177"
     x2="322"
     y1="152"
     y2="152"
     id="line244"
     style="font-size:13px;fill:none;stroke:#000000;stroke-linejoin:round;stroke-miterlimit:0" />
  <line
     clip-path="url(#clipPath27)"
     x1="308"
     x2="322"
     y1="149"
     y2="152"
     id="line246"
     style="font-size:13px;fill:none;stroke:#000000;stroke-linejoin:round;stroke-miterlimit:0" />
  <line
     clip-path="url(#clipPath27)"
     x1="322"
     x2="308"
     y1="152"
     y2="155"
     id="line248"
     style="font-size:13px;fill:none;stroke:#000000;stroke-linejoin:round;stroke-miterlimit:0" />
  <text
     x="250"
     y="237"
     clip-path="url(#clipPath28)"
     xml:space="preserve"
     id="text250"
     style="font-size:13px;fill:#000000;stroke:none;stroke-linejoin:round;stroke-miterlimit:0" />
  <line
     clip-path="url(#clipPath26)"
     x1="131"
     x2="131"
     y1="177"
     y2="205"
     id="line252"
     style="font-size:13px;fill:none;stroke:#000000;stroke-linejoin:round;stroke-miterlimit:0" />
  <line
     clip-path="url(#clipPath29)"
     x1="134"
     x2="131"
     y1="191"
     y2="205"
     id="line254"
     style="font-size:13px;fill:none;stroke:#000000;stroke-linejoin:round;stroke-miterlimit:0" />
  <line
     clip-path="url(#clipPath29)"
     x1="131"
     x2="128"
     y1="205"
     y2="191"
     id="line256"
     style="font-size:13px;fill:none;stroke:#000000;stroke-linejoin:round;stroke-miterlimit:0" />
  <text
     x="51"
     y="196"
     clip-path="url(#clipPath30)"
     xml:space="preserve"
     id="text258"
     style="font-size:13px;fill:#000000;stroke:none;stroke-linejoin:round;stroke-miterlimit:0" />
  <line
     clip-path="url(#clipPath26)"
     x1="257"
     x2="322"
     y1="310"
     y2="310"
     id="line260"
     style="font-size:13px;fill:none;stroke:#000000;stroke-linejoin:round;stroke-miterlimit:0" />
  <line
     clip-path="url(#clipPath31)"
     x1="308"
     x2="322"
     y1="307"
     y2="310"
     id="line262"
     style="font-size:13px;fill:none;stroke:#000000;stroke-linejoin:round;stroke-miterlimit:0" />
  <line
     clip-path="url(#clipPath31)"
     x1="322"
     x2="308"
     y1="310"
     y2="313"
     id="line264"
     style="font-size:13px;fill:none;stroke:#000000;stroke-linejoin:round;stroke-miterlimit:0" />
  <text
     x="290"
     y="395"
     clip-path="url(#clipPath32)"
     xml:space="preserve"
     id="text266"
     style="font-size:13px;fill:#000000;stroke:none;stroke-linejoin:round;stroke-miterlimit:0" />
  <line
     clip-path="url(#clipPath26)"
     x1="144"
     x2="144"
     y1="333"
     y2="361"
     id="line268"
     style="font-size:13px;fill:none;stroke:#000000;stroke-linejoin:round;stroke-miterlimit:0"
     transform="translate(-10,0)" />
  <line
     clip-path="url(#clipPath33)"
     x1="147"
     x2="144"
     y1="347"
     y2="361"
     id="line270"
     style="font-size:13px;fill:none;stroke:#000000;stroke-linejoin:round;stroke-miterlimit:0"
     transform="translate(-10,0)" />
  <line
     clip-path="url(#clipPath33)"
     x1="144"
     x2="141"
     y1="361"
     y2="347"
     id="line272"
     style="font-size:13px;fill:none;stroke:#000000;stroke-linejoin:round;stroke-miterlimit:0"
     transform="translate(-10,0)" />
  <text
     x="64"
     y="352"
     clip-path="url(#clipPath34)"
     xml:space="preserve"
     id="text274"
     style="font-size:13px;fill:#000000;stroke:none;stroke-linejoin:round;stroke-miterlimit:0" />
  <line
     clip-path="url(#clipPath26)"
     x1="193"
     x2="322"
     y1="464"
     y2="464"
     id="line276"
     style="font-size:13px;fill:none;stroke:#000000;stroke-linejoin:round;stroke-miterlimit:0" />
  <line
     clip-path="url(#clipPath35)"
     x1="308"
     x2="322"
     y1="461"
     y2="464"
     id="line278"
     style="font-size:13px;fill:none;stroke:#000000;stroke-linejoin:round;stroke-miterlimit:0" />
  <line
     clip-path="url(#clipPath35)"
     x1="322"
     x2="308"
     y1="464"
     y2="467"
     id="line280"
     style="font-size:13px;fill:none;stroke:#000000;stroke-linejoin:round;stroke-miterlimit:0" />
  <text
     x="258"
     y="549"
     clip-path="url(#clipPath36)"
     xml:space="preserve"
     id="text282"
     style="font-size:13px;fill:#000000;stroke:none;stroke-linejoin:round;stroke-miterlimit:0" />
  <line
     clip-path="url(#clipPath26)"
     x1="135"
     x2="135"
     y1="489"
     y2="517"
     id="line284"
     style="font-size:13px;fill:none;stroke:#000000;stroke-linejoin:round;stroke-miterlimit:0" />
  <line
     clip-path="url(#clipPath37)"
     x1="138"
     x2="135"
     y1="503"
     y2="517"
     id="line286"
     style="font-size:13px;fill:none;stroke:#000000;stroke-linejoin:round;stroke-miterlimit:0" />
  <line
     clip-path="url(#clipPath37)"
     x1="135"
     x2="132"
     y1="517"
     y2="503"
     id="line288"
     style="font-size:13px;fill:none;stroke:#000000;stroke-linejoin:round;stroke-miterlimit:0" />
  <text
     x="55"
     y="508"
     clip-path="url(#clipPath38)"
     xml:space="preserve"
     id="text290"
     style="font-size:13px;fill:#000000;stroke:none;stroke-linejoin:round;stroke-miterlimit:0" />
  <line
     clip-path="url(#clipPath26)"
     x1="134"
     x2="134"
     y1="255"
     y2="283"
     id="line292"
     style="font-size:13px;fill:none;stroke:#000000;stroke-linejoin:round;stroke-miterlimit:0" />
  <line
     clip-path="url(#clipPath39)"
     x1="137"
     x2="134"
     y1="269"
     y2="283"
     id="line294"
     style="font-size:13px;fill:none;stroke:#000000;stroke-linejoin:round;stroke-miterlimit:0" />
  <line
     clip-path="url(#clipPath39)"
     x1="134"
     x2="131"
     y1="283"
     y2="269"
     id="line296"
     style="font-size:13px;fill:none;stroke:#000000;stroke-linejoin:round;stroke-miterlimit:0" />
  <text
     x="54"
     y="274"
     clip-path="url(#clipPath40)"
     xml:space="preserve"
     id="text298"
     style="font-size:13px;fill:#000000;stroke:none;stroke-linejoin:round;stroke-miterlimit:0" />
  <line
     clip-path="url(#clipPath26)"
     x1="134"
     x2="134"
     y1="411"
     y2="439"
     id="line300"
     style="font-size:13px;fill:none;stroke:#000000;stroke-linejoin:round;stroke-miterlimit:0" />
  <line
     clip-path="url(#clipPath41)"
     x1="137"
     x2="134"
     y1="425"
     y2="439"
     id="line302"
     style="font-size:13px;fill:none;stroke:#000000;stroke-linejoin:round;stroke-miterlimit:0" />
  <line
     clip-path="url(#clipPath41)"
     x1="134"
     x2="131"
     y1="439"
     y2="425"
     id="line304"
     style="font-size:13px;fill:none;stroke:#000000;stroke-linejoin:round;stroke-miterlimit:0" />
  <text
     x="54"
     y="430"
     clip-path="url(#clipPath42)"
     xml:space="preserve"
     id="text306"
     style="font-size:13px;fill:#000000;stroke:none;stroke-linejoin:round;stroke-miterlimit:0" />
  <line
     clip-path="url(#clipPath26)"
     x1="88"
     x2="55"
     y1="380"
     y2="380"
     id="line308"
     style="font-size:13px;fill:none;stroke:#000000;stroke-linejoin:round;stroke-miterlimit:0" />
  <line
     clip-path="url(#clipPath26)"
     x1="55"
     x2="55"
     y1="380"
     y2="311"
     id="line310"
     style="font-size:13px;fill:none;stroke:#000000;stroke-linejoin:round;stroke-miterlimit:0"
     transform="matrix(1,0,0,2.102189,0,-419.38291)" />
  <line
     clip-path="url(#clipPath26)"
     x1="55"
     x2="88"
     y1="311"
     y2="311"
     id="line312"
     style="font-size:13px;fill:none;stroke:#000000;stroke-linejoin:round;stroke-miterlimit:0"
     transform="translate(0,-78)" />
  <line
     clip-path="url(#clipPath43)"
     x1="74"
     x2="88"
     y1="308"
     y2="311"
     id="line314"
     style="font-size:13px;fill:none;stroke:#000000;stroke-linejoin:round;stroke-miterlimit:0"
     transform="translate(0,-78)" />
  <line
     clip-path="url(#clipPath43)"
     x1="88"
     x2="74"
     y1="311"
     y2="314"
     id="line316"
     style="font-size:13px;fill:none;stroke:#000000;stroke-linejoin:round;stroke-miterlimit:0"
     transform="translate(0,-78)" />
  <text
     x="135"
     y="350"
     clip-path="url(#clipPath45)"
     xml:space="preserve"
     id="text320"
     style="font-size:13px;fill:#000000;stroke:none;stroke-linejoin:round;stroke-miterlimit:0" />
  <line
     clip-path="url(#clipPath26)"
     x1="365"
     x2="463"
     y1="390"
     y2="390"
     id="line322"
     style="font-size:13px;fill:none;stroke:#000000;stroke-linejoin:round;stroke-miterlimit:0" />
  <line
     clip-path="url(#clipPath26)"
     x1="463"
     x2="463"
     y1="390"
     y2="593"
     id="line324"
     style="font-size:13px;fill:none;stroke:#000000;stroke-linejoin:round;stroke-miterlimit:0" />
  <line
     clip-path="url(#clipPath26)"
     x1="463"
     x2="150"
     y1="593"
     y2="593"
     id="line326"
     style="font-size:13px;fill:none;stroke:#000000;stroke-linejoin:round;stroke-miterlimit:0" />
  <line
     clip-path="url(#clipPath46)"
     x1="164"
     x2="150"
     y1="596"
     y2="593"
     id="line328"
     style="font-size:13px;fill:none;stroke:#000000;stroke-linejoin:round;stroke-miterlimit:0" />
  <line
     clip-path="url(#clipPath46)"
     x1="150"
     x2="164"
     y1="593"
     y2="590"
     id="line330"
     style="font-size:13px;fill:none;stroke:#000000;stroke-linejoin:round;stroke-miterlimit:0" />
  <text
     x="400"
     y="389"
     clip-path="url(#clipPath47)"
     xml:space="preserve"
     id="text332"
     style="font-size:13px;fill:#000000;stroke:none;stroke-linejoin:round;stroke-miterlimit:0">exit</text>
  <text
     x="457"
     y="518"
     clip-path="url(#clipPath48)"
     xml:space="preserve"
     id="text334"
     style="font-size:13px;fill:#000000;stroke:none;stroke-linejoin:round;stroke-miterlimit:0" />
  <line
     clip-path="url(#clipPath26)"
     x1="88"
     x2="53"
     y1="545"
     y2="545"
     id="line336"
     style="font-size:13px;fill:none;stroke:#000000;stroke-linejoin:round;stroke-miterlimit:0" />
  <line
     clip-path="url(#clipPath26)"
     x1="53"
     x2="53"
     y1="545"
     y2="399"
     id="line338"
     style="font-size:13px;fill:none;stroke:#000000;stroke-linejoin:round;stroke-miterlimit:0" />
  <line
     clip-path="url(#clipPath26)"
     x1="53"
     x2="88"
     y1="399"
     y2="399"
     id="line340"
     style="font-size:13px;fill:none;stroke:#000000;stroke-linejoin:round;stroke-miterlimit:0" />
  <line
     clip-path="url(#clipPath49)"
     x1="74"
     x2="88"
     y1="396"
     y2="399"
     id="line342"
     style="font-size:13px;fill:none;stroke:#000000;stroke-linejoin:round;stroke-miterlimit:0" />
  <line
     clip-path="url(#clipPath49)"
     x1="88"
     x2="74"
     y1="399"
     y2="402"
     id="line344"
     style="font-size:13px;fill:none;stroke:#000000;stroke-linejoin:round;stroke-miterlimit:0" />
  <text
     x="133"
     y="477"
     clip-path="url(#clipPath50)"
     xml:space="preserve"
     id="text346"
     style="font-size:13px;fill:#000000;stroke:none;stroke-linejoin:round;stroke-miterlimit:0" />
  <line
     clip-path="url(#clipPath26)"
     x1="132"
     x2="132"
     y1="103"
     y2="127"
     id="line348"
     style="font-size:13px;fill:none;stroke:#000000;stroke-linejoin:round;stroke-miterlimit:0" />
  <line
     clip-path="url(#clipPath51)"
     x1="135"
     x2="132"
     y1="113"
     y2="127"
     id="line350"
     style="font-size:13px;fill:none;stroke:#000000;stroke-linejoin:round;stroke-miterlimit:0" />
  <line
     clip-path="url(#clipPath51)"
     x1="132"
     x2="129"
     y1="127"
     y2="113"
     id="line352"
     style="font-size:13px;fill:none;stroke:#000000;stroke-linejoin:round;stroke-miterlimit:0" />
  <text
     x="52"
     y="120"
     clip-path="url(#clipPath52)"
     xml:space="preserve"
     id="text354"
     style="font-size:13px;fill:#000000;stroke:none;stroke-linejoin:round;stroke-miterlimit:0" />
  <text
     x="93"
     y="237"
     clip-path="url(#clipPath16)"
     xml:space="preserve"
     id="text3798"
     style="font-size:13px;text-align:start;line-height:125%;writing-mode:lr-tb;text-anchor:start;fill:#000000;stroke:none;stroke-linejoin:round;stroke-miterlimit:0"
     transform="translate(172.29483,69.272471)"
     sodipodi:linespacing="125%"><tspan
       sodipodi:role="line"
       id="tspan3800"
       x="93"
       y="237">data</tspan></text>
  <text
     x="93"
     y="237"
     clip-path="url(#clipPath16)"
     xml:space="preserve"
     id="text3802"
     style="font-size:13px;text-align:start;line-height:125%;writing-mode:lr-tb;text-anchor:start;fill:#000000;stroke:none;stroke-linejoin:round;stroke-miterlimit:0"
     transform="translate(106.7364,223.81006)"
     sodipodi:linespacing="125%"><tspan
       sodipodi:role="line"
       id="tspan3808"
       x="93"
       y="237">filter properties</tspan></text>
</svg>
