<?xml version="1.0" encoding="UTF-8" standalone="no"?>
<svg
   xmlns:dc="http://purl.org/dc/elements/1.1/"
   xmlns:cc="http://creativecommons.org/ns#"
   xmlns:rdf="http://www.w3.org/1999/02/22-rdf-syntax-ns#"
   xmlns:svg="http://www.w3.org/2000/svg"
   xmlns="http://www.w3.org/2000/svg"
   xmlns:sodipodi="http://sodipodi.sourceforge.net/DTD/sodipodi-0.dtd"
   xmlns:inkscape="http://www.inkscape.org/namespaces/inkscape"
   version="1.1"
   baseProfile="full"
   id="body"
   width="8in"
   height="8in"
   viewBox="0 0 1 1"
   preserveAspectRatio="none"
   sodipodi:version="0.32"
   inkscape:version="0.46"
   sodipodi:docname="shore.svg"
   inkscape:output_extension="org.inkscape.output.svg.inkscape">
  <metadata
     id="metadata2523">
    <rdf:RDF>
      <cc:Work
         rdf:about="">
        <dc:format>image/svg+xml</dc:format>
        <dc:type
           rdf:resource="http://purl.org/dc/dcmitype/StillImage" />
      </cc:Work>
    </rdf:RDF>
  </metadata>
  <defs
     id="defs2521">
    <inkscape:perspective
       sodipodi:type="inkscape:persp3d"
       inkscape:vp_x="0 : 360 : 1"
       inkscape:vp_y="0 : 1000 : 0"
       inkscape:vp_z="720 : 360 : 1"
       inkscape:persp3d-origin="360 : 240 : 1"
       id="perspective2525" />
  </defs>
  <sodipodi:namedview
     inkscape:window-height="840"
     inkscape:window-width="1440"
     inkscape:pageshadow="2"
     inkscape:pageopacity="0.0"
     guidetolerance="10.0"
     gridtolerance="10.0"
     objecttolerance="10.0"
     borderopacity="1.0"
     bordercolor="#666666"
     pagecolor="#ffffff"
     id="base"
     showgrid="false"
     inkscape:zoom="0.63888889"
     inkscape:cx="360"
     inkscape:cy="360"
     inkscape:window-x="-5"
     inkscape:window-y="-3"
     inkscape:current-layer="body" />
  <title
     id="title2484">SVG drawing</title>
  <desc
     id="desc2486">This was produced by version 4.2 of GNU libplot, a free library for exporting 2-D vector graphics.</desc>
  <rect
     id="background"
     x="0"
     y="0"
     width="1"
     height="1"
     stroke="none"
     fill="white" />
  <g
     id="content"
     transform="matrix(1.7361e-3,0,0,-1.7361e-3,1.6576087e-2,1.4244565)"
     xml:space="preserve"
     stroke-miterlimit="10.433"
     fill-rule="even-odd"
     font-style="normal"
     font-variant="normal"
     font-weight="normal"
     font-stretch="normal"
     font-size-adjust="none"
     letter-spacing="normal"
     word-spacing="normal"
     style="font-style:normal;font-variant:normal;font-weight:normal;font-stretch:normal;letter-spacing:normal;word-spacing:normal;text-anchor:start;fill:none;fill-opacity:1;stroke:#000000;stroke-linecap:butt;stroke-linejoin:miter;stroke-miterlimit:10.43299961;stroke-dasharray:none;stroke-dashoffset:0;stroke-opacity:1">
<path
   d="M 94.832,675.85 L 94.84,675.99 L 94.863,676.13 L 94.902,676.29 L 94.955,676.46 L 95.022,676.64 L 95.102,676.82 L 95.196,677.02 L 95.302,677.23 L 95.42,677.45 L 95.55,677.67 L 95.691,677.91 L 95.842,678.15 L 96.004,678.4 L 96.174,678.66 L 96.354,678.92 L 96.543,679.19 L 96.739,679.46 L 96.944,679.74 L 97.155,680.03 L 97.373,680.31 L 97.826,680.9 L 98.299,681.5 L 98.789,682.11 L 99.291,682.72 L 99.801,683.33 L 100.32,683.94 C 103.51,687.71 103.62,690.82 101.68,697.69 C 100.77,700.92 107.11,700.09 109.91,700.92 C 113.5,701.98 114.98,704.28 118.14,703.35 C 121.15,702.46 114.99,696.07 122.25,696.07 C 125.41,696.07 127.72,696.88 130.47,697.69 C 133.46,698.57 137.66,697.69 140.75,697.69 C 144.18,697.69 147.61,697.69 151.04,697.69 C 153.65,697.69 157.4,696.62 159.26,696.07 C 163.96,697.18 163.71,696.57 167.49,697.69 C 170.12,698.46 173.16,698.35 176.4,699.3 C 179.19,700.12 182.62,700.3 186,699.3 C 188.79,698.48 191.55,697.67 194.22,696.88 C 197.27,695.98 199.66,695.27 202.45,694.45 C 205.12,693.66 207.59,692.03 210.67,692.03 C 212.43,692.03 216.09,692.03 219.58,692.03 C 222.93,692.03 226.38,693.22 227.8,693.65 C 230.18,694.34 234.04,694.45 237.4,694.45 C 240.83,694.45 244.26,694.45 247.68,694.45 C 251.51,694.45 253.84,694.06 255.91,692.84 C 258.05,691.57 261.11,691.67 263.45,689.6 C 265.99,687.35 267.51,685.68 268.93,682.32 C 270.03,679.73 271.08,677.05 271.68,674.24 C 272.68,669.48 270.3,669.34 270.3,665.34 C 270.3,660.3 268.34,659.91 266.88,656.45 C 265.95,654.25 263.67,650.52 262.76,649.98 C 260.63,648.72 259.27,645.51 257.96,645.13 C 254.23,644.02 252.16,642.51 249.74,641.09 C 247.28,639.63 244.53,640.56 240.83,639.47 C 238.3,638.72 234.4,637.04 231.23,637.04 C 228.11,637.04 224.3,636.23 221.64,636.23 C 216.89,636.23 217.52,635.43 213.41,635.43 C 210.31,635.43 206.12,634.54 203.13,635.43 C 200.76,636.12 196.9,636.23 193.54,636.23 C 189.62,636.23 187.41,635.43 183.94,635.43 C 180.51,635.43 177.08,635.43 173.66,635.43 C 170.76,635.43 166.62,637.75 164.06,636.23 C 161.14,634.51 160.92,636.8 157.21,634.62 C 154.86,633.23 152.5,631.61 148.98,630.57 C 146.69,629.9 143.37,628.88 140.75,627.34 C 138.98,626.29 136.43,624.04 133.9,623.3 C 131.9,622.7 128.05,620.06 126.36,620.06 C 124.1,620.06 121.62,619.47 118.14,618.45 C 116.94,618.09 112.76,616.83 109.91,616.83 C 106.57,616.83 103.25,616.77 100.32,617.64 C 97.059,618.6 95.125,618.27 92.09,620.06 C 89.156,621.79 88.305,621.72 86.605,625.72 C 86.137,626.83 85.199,629.85 83.863,633 C 82.82,635.46 81.121,636.12 81.121,640.28 C 81.121,644.84 81.32,646.41 82.492,649.17 C 83.438,651.4 86.066,654.37 86.605,655.64 C 87.484,657.72 89.363,661.32 90.031,662.11 C 92.277,664.76 94.832,660.04 94.832,675.85 z"
   id="path2490"
   style="stroke-width:0.71970999" />
<path
   d="M 176.25,715.6 L 177.88,717.25 L 179.48,718.76 L 181.06,720.15 L 182.62,721.41 L 184.15,722.55 L 185.66,723.57 L 187.16,724.48 L 188.63,725.27 L 190.09,725.97 L 191.53,726.55 L 192.96,727.04 L 194.38,727.44 L 195.78,727.74 L 197.18,727.96 L 198.56,728.09 L 199.94,728.15 L 202.67,728.03 L 205.39,727.64 L 208.11,727.01 L 210.83,726.17 L 213.56,725.15 L 216.32,723.98 L 219.11,722.68 L 221.95,721.3 L 224.85,719.86 L 227.81,718.39 L 230.85,716.92 L 233.98,715.49 L 237.2,714.11 L 240.53,712.83 L 243.98,711.68 L 247.55,710.67 L 251.26,709.86 L 255.12,709.25 L 257.11,709.04 L 259.14,708.9 L 261.22,708.82 L 263.33,708.82 L 265.49,708.89 L 267.7,709.05 L 269.95,709.28 L 272.26,709.61 L 274.61,710.03 L 277.01,710.54 L 279.47,711.15 L 281.98,711.87 C 305.95,717.27 306.79,670.28 306.79,670.28 C 308.86,648.2 291.45,641.45 270.31,637.64 C 188.49,623.62 192.19,609.61 165.07,595.59"
   id="path2492"
   style="stroke-width:0.23989999" />
<path
   d="M 123.96,661.1 L 123.89,661.19 L 123.83,661.26 L 123.77,661.31 L 123.72,661.34 L 123.67,661.35 L 123.63,661.35 L 123.6,661.32 L 123.57,661.28 L 123.55,661.22 L 123.54,661.15 L 123.53,661.06 L 123.53,660.96 L 123.53,660.85 L 123.54,660.72 L 123.56,660.58 L 123.58,660.43 L 123.6,660.27 L 123.64,660.1 L 123.67,659.91 L 123.71,659.72 L 123.76,659.52 L 123.81,659.31 L 123.87,659.1 L 123.93,658.88 L 124.07,658.42 L 124.22,657.94 L 124.4,657.45 L 124.58,656.95 L 124.79,656.45 L 125.01,655.95 L 125.24,655.46 L 125.49,654.98 L 125.75,654.51 L 126.03,654.07 L 126.17,653.86 L 126.31,653.66 L 126.46,653.46 L 126.61,653.28 L 126.76,653.1 L 126.91,652.93 L 127.07,652.78 L 127.23,652.63 L 127.39,652.5 L 127.55,652.38 L 127.72,652.27 L 127.88,652.18 L 128.05,652.1 L 128.22,652.04 L 128.39,651.99 L 128.57,651.96 L 128.74,651.94 L 128.92,651.95 L 129.09,651.97 L 129.27,652.01 C 131.91,652.74 134.81,650.79 138.01,650.79 C 147.55,650.79 146.97,653.65 150.35,655.64 C 153.61,657.56 153.71,658.07 157.21,658.07 C 158.35,658.07 161.64,658.88 164.75,658.88 C 167.06,658.88 171.04,658.07 174.34,658.07 C 178.15,658.07 180.79,658.88 183.94,658.88 C 185.37,658.88 189.5,662.2 190.79,663.73 C 191.83,664.95 192.88,666.23 193.54,667.77 C 194.58,670.24 192.45,672.08 191.98,672.63"
   id="path2494"
   style="stroke-width:0.95960999" />
<path
   d="M 124.45,663.81 L 125.25,664.79 L 126.05,665.71 L 126.86,666.57 L 127.66,667.38 L 128.46,668.13 L 129.26,668.83 L 130.06,669.49 L 130.85,670.1 L 131.63,670.66 L 132.41,671.18 L 133.18,671.66 L 133.93,672.1 L 134.68,672.51 L 135.41,672.88 L 136.13,673.22 L 136.83,673.52 L 137.51,673.8 L 138.18,674.05 L 138.82,674.27 L 139.45,674.47 L 140.05,674.65 L 140.63,674.81 L 141.19,674.95 L 141.71,675.08 L 142.21,675.19 L 142.68,675.29 L 143.13,675.39 L 143.53,675.47 L 143.91,675.55 L 144.25,675.62 L 144.56,675.7 L 144.83,675.77 C 149.28,677.08 152.95,679.63 154.97,679.63 C 157.4,679.63 162.43,681.84 166.9,681.84 C 170.9,681.84 189.16,675.56 192.85,671.81"
   id="path2496"
   style="stroke-width:0.95960999;stroke-dasharray:2.8788, 0.95961" />
<path
   d="M 123.61,663.71 L 123.75,664.43 L 123.93,665.2 L 124.15,666.01 L 124.41,666.86 L 124.7,667.74 L 125.02,668.65 L 125.37,669.6 L 125.75,670.56 L 126.15,671.55 L 126.57,672.55 L 127.02,673.57 L 127.48,674.6 L 128.46,676.67 L 129.47,678.73 L 130.52,680.75 L 131.05,681.74 L 131.57,682.71 L 132.1,683.66 L 132.62,684.58 L 133.13,685.47 L 133.64,686.32 L 134.13,687.14 L 134.61,687.91 L 135.08,688.64 L 135.52,689.32 L 135.95,689.95 L 136.35,690.52 L 136.73,691.03 L 137.09,691.48 C 137.66,692.16 138.16,692.31 138.79,692.68 C 139.47,693.09 140.22,693.1 140.84,693.29 C 141.5,693.48 142.85,693.1 142.89,693.09 C 143.81,692.81 143.86,692.95 144.76,692.68 C 145.24,692.54 145.94,691.59 146.3,691.28 C 146.93,690.71 147.35,690.25 148,689.87 C 158.45,684.79 173.15,687.45 184.5,687.45 C 185.47,687.45 185.51,686.96 186.38,686.45 C 187.23,685.95 187.6,685.81 188.09,685.24 C 188.35,684.93 188.45,683.16 188.6,682.82 C 188.87,682.18 189.16,681.1 189.45,680.41 C 189.72,679.77 189.97,678.78 190.13,678 C 190.33,677.08 190.75,676.41 191.16,675.78 C 191.45,675.32 191.56,673.9 191.67,673.37 C 191.71,673.17 191.67,672.97 191.67,672.77"
   id="path2498"
   style="stroke-width:0.23989999" />
<path
   d="M 429.08,655.92 L 428.98,655.38 L 428.95,654.83 L 428.98,654.29 L 429.07,653.74 L 429.23,653.19 L 429.45,652.64 L 429.75,652.09 L 430.12,651.53 L 430.56,650.98 L 431.08,650.42 L 431.67,649.87 L 432.35,649.31 L 433.11,648.75 L 433.95,648.2 L 434.87,647.64 L 435.89,647.08 L 436.99,646.52 L 438.19,645.96 L 439.48,645.4 L 440.86,644.84 L 442.34,644.28 L 443.92,643.73 L 445.61,643.17 L 447.39,642.61 L 449.29,642.05 L 451.29,641.5 L 453.39,640.94 L 455.61,640.39 L 457.95,639.84 L 460.39,639.29 L 462.96,638.74 L 465.64,638.19 C 475.09,619.85 408.3,639.74 378.19,626.07 C 330.05,613.32 363.53,701.88 415.2,688.33 C 418.26,687.43 420.65,686.73 423.43,685.91 C 432.77,682.91 441.17,686.14 448.55,688.43"
   id="path2500"
   style="stroke-width:0.71970999" />
<path
   d="M 429.1,656.67 L 429.16,657.12 L 429.24,657.57 L 429.34,658.02 L 429.47,658.47 L 429.61,658.92 L 429.78,659.37 L 429.96,659.81 L 430.15,660.25 L 430.37,660.69 L 430.59,661.13 L 430.83,661.57 L 431.09,662 L 431.62,662.86 L 432.19,663.71 L 432.78,664.54 L 433.39,665.36 L 434.01,666.16 L 434.62,666.94 L 435.22,667.7 L 435.8,668.44 L 436.36,669.16 L 436.62,669.51 L 436.87,669.85 C 437.99,671.17 438.26,672.76 438.58,674.28 C 438.81,675.39 440.18,676.85 440.62,677.9 C 441.5,679.97 441.57,679.41 442.67,680.72 C 444.09,682.39 444.43,682.57 444.72,683.94 C 444.93,684.95 446.64,685.4 447.45,686.35 C 448.55,687.66 448.82,689.9 449.91,691.2 C 453.03,690.94 456.59,695.68 459.64,696.12 C 461.13,696.12 463.39,695.59 465.19,696.01 C 466.77,696.38 466.87,697.91 468.6,698.42 C 470.19,698.9 471.94,698.82 473.71,698.82 C 475.04,698.82 476.93,698.42 478.49,698.42 C 480.2,698.42 481.9,698.42 483.61,698.42 C 484.95,698.42 486.84,698.87 488.04,699.23 C 489.09,699.54 489.95,700.4 491.45,700.84 C 492.42,701.12 493.86,702.47 494.52,703.25 C 495.27,704.13 497.29,704.88 497.93,705.27 C 499.17,706 499.67,707.31 500.66,708.48 C 501.95,710 501.78,711.09 501,712.91 C 500.36,714.43 499.7,715.29 498.28,716.13 C 497.14,716.8 496.12,718.14 495.21,718.95 C 493.96,720.05 492.89,720.71 491.79,721.36 C 490.54,722.1 489.71,723.01 488.72,724.18 C 487.71,725.37 486.2,725.95 485.31,727 C 484.45,728.02 482.55,729.23 481.56,729.81 C 480.26,730.58 479.1,731.51 478.15,732.63 C 477.04,733.93 476.18,734.15 475.08,735.45 C 474.02,736.7 473.5,737.71 472.35,739.07 C 471.51,740.06 469.18,740.3 467.91,740.68 C 466.61,741.06 465.12,741.9 463.82,742.29 C 462.56,742.66 460.77,742.69 459.05,742.69 C 458.2,742.69 455.75,741.41 454.61,741.08 C 453.12,740.64 451.47,740.66 450.18,740.28 C 448.27,739.71 446.99,739.93 445.06,739.47 C 443.21,739.03 442.82,739.1 440.96,738.66 C 439.82,738.4 438.94,737.27 437.89,736.65 C 436.27,735.69 435.7,734.95 433.8,733.84 C 430.65,731.98 431.54,730.45 427.32,733.43 C 427.2,733.52 424.46,731.14 424.25,731.02 C 423.07,730.32 421.84,729.6 420.84,729.01 C 420.37,728.73 419.01,729.01 418.45,729.01"
   id="path2502"
   style="stroke-width:0.23989999" />
<path
   d="M 467.57,638.06 L 467.68,638.02 L 467.78,637.98 L 467.9,637.93 L 468.02,637.88 L 468.14,637.83 L 468.27,637.78 L 468.4,637.72 L 468.53,637.66 L 468.67,637.59 L 468.81,637.53 L 469.1,637.39 L 469.39,637.25 L 469.68,637.09 L 469.97,636.93 L 470.26,636.76 L 470.54,636.59 L 470.67,636.5 L 470.8,636.41 L 470.93,636.32 L 471.05,636.22 L 471.17,636.13 L 471.28,636.03 L 471.39,635.94 L 471.49,635.84 L 471.58,635.74 L 471.67,635.65 C 472.34,634.86 473.98,635.09 475.08,634.44 C 475.88,633.97 476.16,632.77 476.79,632.02 C 477.91,630.7 478.81,629.63 479.86,628.4 C 480.51,627.62 481.32,625.51 481.56,624.38 C 482.02,622.2 481.82,621.15 482.24,619.15 C 482.55,617.69 483.61,616.32 484.29,615.52 C 485.43,614.18 484.17,611.63 483.95,611.1 C 483.14,609.2 483.36,608.4 482.24,607.07 C 481.45,606.14 478.94,605.29 478.15,605.06 C 477.82,604.97 477.47,605.06 477.12,605.06"
   id="path2504"
   style="stroke-width:0.23989999" />
<path
   d="M 429.2,656.77 L 429.52,657.35 L 429.88,657.91 L 430.26,658.46 L 430.46,658.73 L 430.67,658.99 L 430.89,659.25 L 431.12,659.51 L 431.36,659.76 L 431.61,660.01 L 431.87,660.25 L 432.13,660.49 L 432.41,660.73 L 432.7,660.96 L 433,661.19 L 433.31,661.42 L 433.63,661.64 L 433.96,661.86 L 434.3,662.07 L 434.66,662.28 L 435.02,662.49 L 435.4,662.7 L 435.8,662.9 L 436.2,663.09 L 436.62,663.29 L 437.05,663.48 L 437.5,663.67 L 437.96,663.86 L 438.43,664.04 L 438.92,664.22 C 440.45,664.67 441.42,664.96 443.01,665.43 C 444.5,665.86 446.59,665.43 448.13,665.43 C 449.84,665.43 451.54,665.43 453.25,665.43 C 454.95,665.43 456.66,665.43 458.36,665.43 C 460.07,665.43 461.77,665.43 463.48,665.43 C 465.22,665.43 466.97,665.4 468.26,665.02 C 469.52,664.65 470.93,666.21 472.35,666.63 C 473.92,667.1 474.75,668.3 475.08,669.85 C 475.44,671.56 476.79,672.59 476.79,674.68 C 476.79,677.31 476.11,677.48 475.42,679.11 C 474.86,680.44 473.47,681.19 472.35,681.52 C 470.92,681.95 469.98,682.73 468.6,683.13 C 466.47,683.76 466.15,683.45 464.5,683.94 C 463.21,684.32 462.05,685.16 460.75,685.55 C 459.14,686.02 459.18,688.08 458.02,688.77 C 456.69,689.55 455.5,689.57 453.59,689.57 C 451.72,689.57 450.88,688.66 448.9,688.66"
   id="path2506"
   style="stroke-width:0.95960999;stroke-dasharray:2.8788, 0.95961" />
<polygon
   points="313.34,669.42 313.34,669.42 "
   id="polygon2508"
   style="stroke-width:0.23989999" />
<line
   x1="314.79001"
   y1="666.54999"
   x2="347.87"
   y2="666.54999"
   id="line2510"
   style="stroke-width:1.19949996" />
<polygon
   points="335.87,666.55 331.07,660.89 347.87,666.55 331.07,672.21 335.87,666.55 "
   id="polygon2512"
   style="fill:#000000;stroke-width:0" />
<polygon
   points="335.87,666.55 331.07,660.89 347.87,666.55 331.07,672.21 335.87,666.55 "
   id="polygon2514"
   style="stroke-width:1.19949996" />
<text
   transform="matrix(0.47981,0,0,-0.56602,225.3,600)"
   font-size="20px"
   id="text2516"
   style="font-size:20px;fill:#000000;stroke:none;font-family:'Helvetica,sans-serif'">A</text>

<text
   transform="matrix(0.47981,0,0,-0.56602,414.98,602.29)"
   font-size="20px"
   id="text2518"
   style="font-size:20px;fill:#000000;stroke:none;font-family:'Helvetica,sans-serif'">B</text>

</g></svg>
