<?xml version="1.0" encoding="UTF-8" standalone="no"?>
<svg
   xmlns:dc="http://purl.org/dc/elements/1.1/"
   xmlns:cc="http://creativecommons.org/ns#"
   xmlns:rdf="http://www.w3.org/1999/02/22-rdf-syntax-ns#"
   xmlns:svg="http://www.w3.org/2000/svg"
   xmlns="http://www.w3.org/2000/svg"
   xmlns:sodipodi="http://sodipodi.sourceforge.net/DTD/sodipodi-0.dtd"
   xmlns:inkscape="http://www.inkscape.org/namespaces/inkscape"
   stroke-dasharray="none"
   shape-rendering="auto"
   font-family="'Dialog'"
   width="541"
   text-rendering="auto"
   fill-opacity="1"
   contentScriptType="text/ecmascript"
   color-interpolation="auto"
   color-rendering="auto"
   preserveAspectRatio="xMidYMid meet"
   font-size="12"
   viewBox="0 0 541 321"
   fill="black"
   stroke="black"
   image-rendering="auto"
   stroke-miterlimit="10"
   zoomAndPan="magnify"
   version="1.0"
   stroke-linecap="square"
   stroke-linejoin="miter"
   contentStyleType="text/css"
   font-style="normal"
   height="321"
   stroke-width="1"
   stroke-dashoffset="0"
   font-weight="normal"
   stroke-opacity="1"
   id="svg2"
   sodipodi:version="0.32"
   inkscape:version="0.46"
   sodipodi:docname="streamingModel.svg"
   inkscape:output_extension="org.inkscape.output.svg.inkscape">
  <metadata
     id="metadata210">
    <rdf:RDF>
      <cc:Work
         rdf:about="">
        <dc:format>image/svg+xml</dc:format>
        <dc:type
           rdf:resource="http://purl.org/dc/dcmitype/StillImage" />
      </cc:Work>
    </rdf:RDF>
  </metadata>
  <sodipodi:namedview
     inkscape:window-height="740"
     inkscape:window-width="1280"
     inkscape:pageshadow="2"
     inkscape:pageopacity="0.0"
     guidetolerance="10.0"
     gridtolerance="10.0"
     objecttolerance="10.0"
     borderopacity="1.0"
     bordercolor="#666666"
     pagecolor="#ffffff"
     id="base"
     showgrid="false"
     inkscape:zoom="0.86120401"
     inkscape:cx="255"
     inkscape:cy="147"
     inkscape:window-x="-5"
     inkscape:window-y="-3"
     inkscape:current-layer="svg2" />
<!--Generated by the Batik Graphics2D SVG Generator-->  <defs
     id="genericDefs">
    <inkscape:perspective
       sodipodi:type="inkscape:persp3d"
       inkscape:vp_x="0 : 160.5 : 1"
       inkscape:vp_y="0 : 1000 : 0"
       inkscape:vp_z="541 : 160.5 : 1"
       inkscape:persp3d-origin="270.5 : 107 : 1"
       id="perspective212" />
    <defs
       id="defs1">
      <clipPath
         id="clipPath1"
         clipPathUnits="userSpaceOnUse">
        <path
           id="path9"
           d="M 9,9 L 532,9 L 532,312 L 9,312 L 9,9 z" />
      </clipPath>
      <clipPath
         id="clipPath2"
         clipPathUnits="userSpaceOnUse">
        <path
           id="path12"
           d="M 9,9 L 535,9 L 535,28 L 9,28 L 9,9 z" />
      </clipPath>
      <clipPath
         id="clipPath3"
         clipPathUnits="userSpaceOnUse">
        <path
           id="path15"
           d="M 48,139 L 140,139 L 140,191 L 48,191 L 48,139 z" />
      </clipPath>
      <clipPath
         id="clipPath4"
         clipPathUnits="userSpaceOnUse">
        <path
           id="path18"
           d="M 48,156 L 143,156 L 143,175 L 48,175 L 48,156 z" />
      </clipPath>
      <clipPath
         id="clipPath5"
         clipPathUnits="userSpaceOnUse">
        <path
           id="path21"
           d="M 217,178 L 299,178 L 299,230 L 217,230 L 217,178 z" />
      </clipPath>
      <clipPath
         id="clipPath6"
         clipPathUnits="userSpaceOnUse">
        <path
           id="path24"
           d="M 233,195 L 287,195 L 287,214 L 233,214 L 233,195 z" />
      </clipPath>
      <clipPath
         id="clipPath7"
         clipPathUnits="userSpaceOnUse">
        <path
           id="path27"
           d="M 217,48 L 299,48 L 299,100 L 217,100 L 217,48 z" />
      </clipPath>
      <clipPath
         id="clipPath8"
         clipPathUnits="userSpaceOnUse">
        <path
           id="path30"
           d="M 233,65 L 287,65 L 287,84 L 233,84 L 233,65 z" />
      </clipPath>
      <clipPath
         id="clipPath9"
         clipPathUnits="userSpaceOnUse">
        <path
           id="path33"
           d="M 217,243 L 299,243 L 299,295 L 217,295 L 217,243 z" />
      </clipPath>
      <clipPath
         id="clipPath10"
         clipPathUnits="userSpaceOnUse">
        <path
           id="path36"
           d="M 233,260 L 287,260 L 287,279 L 233,279 L 233,260 z" />
      </clipPath>
      <clipPath
         id="clipPath11"
         clipPathUnits="userSpaceOnUse">
        <path
           id="path39"
           d="M 217,113 L 299,113 L 299,165 L 217,165 L 217,113 z" />
      </clipPath>
      <clipPath
         id="clipPath12"
         clipPathUnits="userSpaceOnUse">
        <path
           id="path42"
           d="M 233,130 L 287,130 L 287,149 L 233,149 L 233,130 z" />
      </clipPath>
      <clipPath
         id="clipPath13"
         clipPathUnits="userSpaceOnUse">
        <path
           id="path45"
           d="M 373,139 L 496,139 L 496,191 L 373,191 L 373,139 z" />
      </clipPath>
      <clipPath
         id="clipPath14"
         clipPathUnits="userSpaceOnUse">
        <path
           id="path48"
           d="M 373,156 L 499,156 L 499,175 L 373,175 L 373,156 z" />
      </clipPath>
      <clipPath
         id="clipPath15"
         clipPathUnits="userSpaceOnUse">
        <path
           id="path51"
           d="M -1,-1 L 542,-1 L 542,322 L -1,322 L -1,-1 z" />
      </clipPath>
      <clipPath
         id="clipPath16"
         clipPathUnits="userSpaceOnUse">
        <path
           id="path54"
           d="M 205,72 L 220,72 L 220,87 L 205,87 L 205,72 z" />
      </clipPath>
      <clipPath
         id="clipPath17"
         clipPathUnits="userSpaceOnUse">
        <path
           id="path57"
           d="M 235,160 L 237,160 L 237,179 L 235,179 L 235,160 z" />
      </clipPath>
      <clipPath
         id="clipPath18"
         clipPathUnits="userSpaceOnUse">
        <path
           id="path60"
           d="M 203,137 L 220,137 L 220,147 L 203,147 L 203,137 z" />
      </clipPath>
      <clipPath
         id="clipPath19"
         clipPathUnits="userSpaceOnUse">
        <path
           id="path63"
           d="M 201,217 L 203,217 L 203,236 L 201,236 L 201,217 z" />
      </clipPath>
      <clipPath
         id="clipPath20"
         clipPathUnits="userSpaceOnUse">
        <path
           id="path66"
           d="M 203,196 L 220,196 L 220,207 L 203,207 L 203,196 z" />
      </clipPath>
      <clipPath
         id="clipPath21"
         clipPathUnits="userSpaceOnUse">
        <path
           id="path69"
           d="M 146,252 L 148,252 L 148,271 L 146,271 L 146,252 z" />
      </clipPath>
      <clipPath
         id="clipPath22"
         clipPathUnits="userSpaceOnUse">
        <path
           id="path72"
           d="M 205,257 L 220,257 L 220,272 L 205,272 L 205,257 z" />
      </clipPath>
      <clipPath
         id="clipPath23"
         clipPathUnits="userSpaceOnUse">
        <path
           id="path75"
           d="M 118,270 L 120,270 L 120,289 L 118,289 L 118,270 z" />
      </clipPath>
      <clipPath
         id="clipPath24"
         clipPathUnits="userSpaceOnUse">
        <path
           id="path78"
           d="M 359,167 L 376,167 L 376,179 L 359,179 L 359,167 z" />
      </clipPath>
      <clipPath
         id="clipPath25"
         clipPathUnits="userSpaceOnUse">
        <path
           id="path81"
           d="M 368,248 L 370,248 L 370,267 L 368,267 L 368,248 z" />
      </clipPath>
      <clipPath
         id="clipPath26"
         clipPathUnits="userSpaceOnUse">
        <path
           id="path84"
           d="M 361,129 L 376,129 L 376,144 L 361,144 L 361,129 z" />
      </clipPath>
      <clipPath
         id="clipPath27"
         clipPathUnits="userSpaceOnUse">
        <path
           id="path87"
           d="M 282,158 L 284,158 L 284,177 L 282,177 L 282,158 z" />
      </clipPath>
      <clipPath
         id="clipPath28"
         clipPathUnits="userSpaceOnUse">
        <path
           id="path90"
           d="M 361,179 L 376,179 L 376,194 L 361,194 L 361,179 z" />
      </clipPath>
      <clipPath
         id="clipPath29"
         clipPathUnits="userSpaceOnUse">
        <path
           id="path93"
           d="M 394,266 L 396,266 L 396,285 L 394,285 L 394,266 z" />
      </clipPath>
      <clipPath
         id="clipPath30"
         clipPathUnits="userSpaceOnUse">
        <path
           id="path96"
           d="M 359,152 L 376,152 L 376,161 L 359,161 L 359,152 z" />
      </clipPath>
      <clipPath
         id="clipPath31"
         clipPathUnits="userSpaceOnUse">
        <path
           id="path99"
           d="M 316,217 L 318,217 L 318,236 L 316,236 L 316,217 z" />
      </clipPath>
    </defs>
  </defs>
  <rect
     x="10"
     y="10"
     clip-path="url(#clipPath1)"
     width="521"
     rx="9"
     ry="9"
     height="301"
     id="rect103"
     style="font-size:13px;fill:#ffffff;stroke:none;stroke-linejoin:round;stroke-miterlimit:0" />
  <rect
     x="49"
     y="140"
     clip-path="url(#clipPath3)"
     width="90"
     rx="8"
     ry="8"
     height="50"
     id="rect109"
     style="font-size:13px;fill:#ffffff;stroke:none;stroke-linejoin:round;stroke-miterlimit:0" />
  <rect
     x="49"
     y="140"
     clip-path="url(#clipPath3)"
     width="89"
     rx="8"
     ry="8"
     height="49"
     id="rect111"
     style="font-size:13px;fill:none;stroke:#b0b0b0;stroke-linejoin:round;stroke-miterlimit:0" />
  <text
     x="54"
     y="172"
     clip-path="url(#clipPath4)"
     xml:space="preserve"
     id="text113"
     style="font-size:13px;fill:#000000;stroke:none;stroke-linejoin:round;stroke-miterlimit:0">data source</text>
  <rect
     x="218"
     y="179"
     clip-path="url(#clipPath5)"
     width="80"
     rx="8"
     ry="8"
     height="50"
     id="rect115"
     style="font-size:13px;fill:#ffffff;stroke:none;stroke-linejoin:round;stroke-miterlimit:0" />
  <rect
     x="218"
     y="179"
     clip-path="url(#clipPath5)"
     width="79"
     rx="8"
     ry="8"
     height="49"
     id="rect117"
     style="font-size:13px;fill:none;stroke:#b0b0b0;stroke-linejoin:round;stroke-miterlimit:0" />
  <text
     x="239"
     y="211"
     clip-path="url(#clipPath6)"
     xml:space="preserve"
     id="text119"
     style="font-size:13px;fill:#000000;stroke:none;stroke-linejoin:round;stroke-miterlimit:0">SPE 2</text>
  <rect
     x="218"
     y="49"
     clip-path="url(#clipPath7)"
     width="80"
     rx="8"
     ry="8"
     height="50"
     id="rect121"
     style="font-size:13px;fill:#ffffff;stroke:none;stroke-linejoin:round;stroke-miterlimit:0" />
  <rect
     x="218"
     y="49"
     clip-path="url(#clipPath7)"
     width="79"
     rx="8"
     ry="8"
     height="49"
     id="rect123"
     style="font-size:13px;fill:none;stroke:#b0b0b0;stroke-linejoin:round;stroke-miterlimit:0" />
  <text
     x="239"
     y="81"
     clip-path="url(#clipPath8)"
     xml:space="preserve"
     id="text125"
     style="font-size:13px;fill:#000000;stroke:none;stroke-linejoin:round;stroke-miterlimit:0">SPE 0</text>
  <rect
     x="218"
     y="244"
     clip-path="url(#clipPath9)"
     width="80"
     rx="8"
     ry="8"
     height="50"
     id="rect127"
     style="font-size:13px;fill:#ffffff;stroke:none;stroke-linejoin:round;stroke-miterlimit:0" />
  <rect
     x="218"
     y="244"
     clip-path="url(#clipPath9)"
     width="79"
     rx="8"
     ry="8"
     height="49"
     id="rect129"
     style="font-size:13px;fill:none;stroke:#b0b0b0;stroke-linejoin:round;stroke-miterlimit:0" />
  <text
     x="239"
     y="276"
     clip-path="url(#clipPath10)"
     xml:space="preserve"
     id="text131"
     style="font-size:13px;fill:#000000;stroke:none;stroke-linejoin:round;stroke-miterlimit:0">SPE 3</text>
  <rect
     x="218"
     y="114"
     clip-path="url(#clipPath11)"
     width="80"
     rx="8"
     ry="8"
     height="50"
     id="rect133"
     style="font-size:13px;fill:#ffffff;stroke:none;stroke-linejoin:round;stroke-miterlimit:0" />
  <rect
     x="218"
     y="114"
     clip-path="url(#clipPath11)"
     width="79"
     rx="8"
     ry="8"
     height="49"
     id="rect135"
     style="font-size:13px;fill:none;stroke:#b0b0b0;stroke-linejoin:round;stroke-miterlimit:0" />
  <text
     x="239"
     y="146"
     clip-path="url(#clipPath12)"
     xml:space="preserve"
     id="text137"
     style="font-size:13px;fill:#000000;stroke:none;stroke-linejoin:round;stroke-miterlimit:0">SPE 1</text>
  <rect
     x="374"
     y="140"
     clip-path="url(#clipPath13)"
     width="121"
     rx="8"
     ry="8"
     height="50"
     id="rect139"
     style="font-size:13px;fill:#ffffff;stroke:none;stroke-linejoin:round;stroke-miterlimit:0" />
  <rect
     x="374"
     y="140"
     clip-path="url(#clipPath13)"
     width="120"
     rx="8"
     ry="8"
     height="49"
     id="rect141"
     style="font-size:13px;fill:none;stroke:#b0b0b0;stroke-linejoin:round;stroke-miterlimit:0" />
  <text
     x="379"
     y="172"
     clip-path="url(#clipPath14)"
     xml:space="preserve"
     id="text143"
     style="font-size:13px;fill:#000000;stroke:none;stroke-linejoin:round;stroke-miterlimit:0">data destination</text>
  <line
     clip-path="url(#clipPath15)"
     x1="139"
     x2="218"
     y1="155"
     y2="73"
     id="line145"
     style="font-size:13px;fill:none;stroke:#000000;stroke-linejoin:round;stroke-miterlimit:0" />
  <line
     clip-path="url(#clipPath16)"
     x1="206"
     x2="218"
     y1="81"
     y2="73"
     id="line147"
     style="font-size:13px;fill:none;stroke:#000000;stroke-linejoin:round;stroke-miterlimit:0" />
  <line
     clip-path="url(#clipPath16)"
     x1="218"
     x2="210"
     y1="73"
     y2="85"
     id="line149"
     style="font-size:13px;fill:none;stroke:#000000;stroke-linejoin:round;stroke-miterlimit:0" />
  <text
     x="236"
     y="174"
     clip-path="url(#clipPath17)"
     xml:space="preserve"
     id="text151"
     style="font-size:13px;fill:#000000;stroke:none;stroke-linejoin:round;stroke-miterlimit:0" />
  <line
     clip-path="url(#clipPath15)"
     x1="139"
     x2="218"
     y1="162"
     y2="138"
     id="line153"
     style="font-size:13px;fill:none;stroke:#000000;stroke-linejoin:round;stroke-miterlimit:0" />
  <line
     clip-path="url(#clipPath18)"
     x1="204"
     x2="218"
     y1="139"
     y2="138"
     id="line155"
     style="font-size:13px;fill:none;stroke:#000000;stroke-linejoin:round;stroke-miterlimit:0" />
  <line
     clip-path="url(#clipPath18)"
     x1="218"
     x2="205"
     y1="138"
     y2="145"
     id="line157"
     style="font-size:13px;fill:none;stroke:#000000;stroke-linejoin:round;stroke-miterlimit:0" />
  <text
     x="202"
     y="231"
     clip-path="url(#clipPath19)"
     xml:space="preserve"
     id="text159"
     style="font-size:13px;fill:#000000;stroke:none;stroke-linejoin:round;stroke-miterlimit:0" />
  <line
     clip-path="url(#clipPath15)"
     x1="139"
     x2="218"
     y1="171"
     y2="205"
     id="line161"
     style="font-size:13px;fill:none;stroke:#000000;stroke-linejoin:round;stroke-miterlimit:0" />
  <line
     clip-path="url(#clipPath20)"
     x1="206"
     x2="218"
     y1="197"
     y2="205"
     id="line163"
     style="font-size:13px;fill:none;stroke:#000000;stroke-linejoin:round;stroke-miterlimit:0" />
  <line
     clip-path="url(#clipPath20)"
     x1="218"
     x2="204"
     y1="205"
     y2="202"
     id="line165"
     style="font-size:13px;fill:none;stroke:#000000;stroke-linejoin:round;stroke-miterlimit:0" />
  <text
     x="147"
     y="266"
     clip-path="url(#clipPath21)"
     xml:space="preserve"
     id="text167"
     style="font-size:13px;fill:#000000;stroke:none;stroke-linejoin:round;stroke-miterlimit:0" />
  <line
     clip-path="url(#clipPath15)"
     x1="139"
     x2="218"
     y1="182"
     y2="270"
     id="line169"
     style="font-size:13px;fill:none;stroke:#000000;stroke-linejoin:round;stroke-miterlimit:0" />
  <line
     clip-path="url(#clipPath22)"
     x1="211"
     x2="218"
     y1="258"
     y2="270"
     id="line171"
     style="font-size:13px;fill:none;stroke:#000000;stroke-linejoin:round;stroke-miterlimit:0" />
  <line
     clip-path="url(#clipPath22)"
     x1="218"
     x2="206"
     y1="270"
     y2="262"
     id="line173"
     style="font-size:13px;fill:none;stroke:#000000;stroke-linejoin:round;stroke-miterlimit:0" />
  <text
     x="119"
     y="284"
     clip-path="url(#clipPath23)"
     xml:space="preserve"
     id="text175"
     style="font-size:13px;fill:#000000;stroke:none;stroke-linejoin:round;stroke-miterlimit:0" />
  <line
     clip-path="url(#clipPath15)"
     x1="298"
     x2="374"
     y1="203"
     y2="168"
     id="line177"
     style="font-size:13px;fill:none;stroke:#000000;stroke-linejoin:round;stroke-miterlimit:0" />
  <line
     clip-path="url(#clipPath24)"
     x1="360"
     x2="374"
     y1="171"
     y2="168"
     id="line179"
     style="font-size:13px;fill:none;stroke:#000000;stroke-linejoin:round;stroke-miterlimit:0" />
  <line
     clip-path="url(#clipPath24)"
     x1="374"
     x2="363"
     y1="168"
     y2="177"
     id="line181"
     style="font-size:13px;fill:none;stroke:#000000;stroke-linejoin:round;stroke-miterlimit:0" />
  <text
     x="369"
     y="262"
     clip-path="url(#clipPath25)"
     xml:space="preserve"
     id="text183"
     style="font-size:13px;fill:#000000;stroke:none;stroke-linejoin:round;stroke-miterlimit:0" />
  <line
     clip-path="url(#clipPath15)"
     x1="298"
     x2="374"
     y1="74"
     y2="142"
     id="line185"
     style="font-size:13px;fill:none;stroke:#000000;stroke-linejoin:round;stroke-miterlimit:0" />
  <line
     clip-path="url(#clipPath26)"
     x1="366"
     x2="374"
     y1="130"
     y2="142"
     id="line187"
     style="font-size:13px;fill:none;stroke:#000000;stroke-linejoin:round;stroke-miterlimit:0" />
  <line
     clip-path="url(#clipPath26)"
     x1="374"
     x2="362"
     y1="142"
     y2="135"
     id="line189"
     style="font-size:13px;fill:none;stroke:#000000;stroke-linejoin:round;stroke-miterlimit:0" />
  <text
     x="283"
     y="172"
     clip-path="url(#clipPath27)"
     xml:space="preserve"
     id="text191"
     style="font-size:13px;fill:#000000;stroke:none;stroke-linejoin:round;stroke-miterlimit:0" />
  <line
     clip-path="url(#clipPath15)"
     x1="298"
     x2="374"
     y1="266"
     y2="180"
     id="line193"
     style="font-size:13px;fill:none;stroke:#000000;stroke-linejoin:round;stroke-miterlimit:0" />
  <line
     clip-path="url(#clipPath28)"
     x1="362"
     x2="374"
     y1="189"
     y2="180"
     id="line195"
     style="font-size:13px;fill:none;stroke:#000000;stroke-linejoin:round;stroke-miterlimit:0" />
  <line
     clip-path="url(#clipPath28)"
     x1="374"
     x2="367"
     y1="180"
     y2="192"
     id="line197"
     style="font-size:13px;fill:none;stroke:#000000;stroke-linejoin:round;stroke-miterlimit:0" />
  <text
     x="395"
     y="280"
     clip-path="url(#clipPath29)"
     xml:space="preserve"
     id="text199"
     style="font-size:13px;fill:#000000;stroke:none;stroke-linejoin:round;stroke-miterlimit:0" />
  <line
     clip-path="url(#clipPath15)"
     x1="298"
     x2="374"
     y1="140"
     y2="159"
     id="line201"
     style="font-size:13px;fill:none;stroke:#000000;stroke-linejoin:round;stroke-miterlimit:0" />
  <line
     clip-path="url(#clipPath30)"
     x1="361"
     x2="374"
     y1="153"
     y2="159"
     id="line203"
     style="font-size:13px;fill:none;stroke:#000000;stroke-linejoin:round;stroke-miterlimit:0" />
  <line
     clip-path="url(#clipPath30)"
     x1="374"
     x2="360"
     y1="159"
     y2="159"
     id="line205"
     style="font-size:13px;fill:none;stroke:#000000;stroke-linejoin:round;stroke-miterlimit:0" />
  <text
     x="317"
     y="231"
     clip-path="url(#clipPath31)"
     xml:space="preserve"
     id="text207"
     style="font-size:13px;fill:#000000;stroke:none;stroke-linejoin:round;stroke-miterlimit:0" />
</svg>
